G75*
%MOIN*%
%OFA0B0*%
%FSLAX25Y25*%
%IPPOS*%
%LPD*%
%AMOC8*
5,1,8,0,0,1.08239X$1,22.5*
%
%ADD10C,0.00000*%
%ADD11R,0.05118X0.05906*%
%ADD12R,0.05906X0.01969*%
%ADD13R,0.01969X0.05906*%
%ADD14R,0.06299X0.05118*%
%ADD15OC8,0.03962*%
%ADD16C,0.03962*%
%ADD17C,0.00540*%
%ADD18R,0.05000X0.07000*%
%ADD19R,0.05118X0.07087*%
%ADD20OC8,0.04750*%
%ADD21C,0.05000*%
%ADD22C,0.04800*%
%ADD23R,0.05906X0.05118*%
%ADD24R,0.07087X0.05118*%
%ADD25R,0.08268X0.05512*%
%ADD26C,0.01378*%
%ADD27C,0.02756*%
%ADD28C,0.02362*%
%ADD29R,0.05118X0.06299*%
%ADD30R,0.02559X0.04921*%
%ADD31C,0.01600*%
%ADD32C,0.02400*%
%ADD33C,0.01000*%
%ADD34C,0.04000*%
%ADD35C,0.01200*%
%ADD36C,0.04362*%
D10*
X0001200Y0026800D02*
X0001200Y0168532D01*
X0229546Y0168532D01*
X0229546Y0026800D01*
X0001200Y0026800D01*
X0204349Y0060147D02*
X0204351Y0060235D01*
X0204357Y0060323D01*
X0204367Y0060411D01*
X0204381Y0060499D01*
X0204398Y0060585D01*
X0204420Y0060671D01*
X0204445Y0060755D01*
X0204475Y0060839D01*
X0204507Y0060921D01*
X0204544Y0061001D01*
X0204584Y0061080D01*
X0204628Y0061157D01*
X0204675Y0061232D01*
X0204725Y0061304D01*
X0204779Y0061375D01*
X0204835Y0061442D01*
X0204895Y0061508D01*
X0204957Y0061570D01*
X0205023Y0061630D01*
X0205090Y0061686D01*
X0205161Y0061740D01*
X0205233Y0061790D01*
X0205308Y0061837D01*
X0205385Y0061881D01*
X0205464Y0061921D01*
X0205544Y0061958D01*
X0205626Y0061990D01*
X0205710Y0062020D01*
X0205794Y0062045D01*
X0205880Y0062067D01*
X0205966Y0062084D01*
X0206054Y0062098D01*
X0206142Y0062108D01*
X0206230Y0062114D01*
X0206318Y0062116D01*
X0206406Y0062114D01*
X0206494Y0062108D01*
X0206582Y0062098D01*
X0206670Y0062084D01*
X0206756Y0062067D01*
X0206842Y0062045D01*
X0206926Y0062020D01*
X0207010Y0061990D01*
X0207092Y0061958D01*
X0207172Y0061921D01*
X0207251Y0061881D01*
X0207328Y0061837D01*
X0207403Y0061790D01*
X0207475Y0061740D01*
X0207546Y0061686D01*
X0207613Y0061630D01*
X0207679Y0061570D01*
X0207741Y0061508D01*
X0207801Y0061442D01*
X0207857Y0061375D01*
X0207911Y0061304D01*
X0207961Y0061232D01*
X0208008Y0061157D01*
X0208052Y0061080D01*
X0208092Y0061001D01*
X0208129Y0060921D01*
X0208161Y0060839D01*
X0208191Y0060755D01*
X0208216Y0060671D01*
X0208238Y0060585D01*
X0208255Y0060499D01*
X0208269Y0060411D01*
X0208279Y0060323D01*
X0208285Y0060235D01*
X0208287Y0060147D01*
X0208285Y0060059D01*
X0208279Y0059971D01*
X0208269Y0059883D01*
X0208255Y0059795D01*
X0208238Y0059709D01*
X0208216Y0059623D01*
X0208191Y0059539D01*
X0208161Y0059455D01*
X0208129Y0059373D01*
X0208092Y0059293D01*
X0208052Y0059214D01*
X0208008Y0059137D01*
X0207961Y0059062D01*
X0207911Y0058990D01*
X0207857Y0058919D01*
X0207801Y0058852D01*
X0207741Y0058786D01*
X0207679Y0058724D01*
X0207613Y0058664D01*
X0207546Y0058608D01*
X0207475Y0058554D01*
X0207403Y0058504D01*
X0207328Y0058457D01*
X0207251Y0058413D01*
X0207172Y0058373D01*
X0207092Y0058336D01*
X0207010Y0058304D01*
X0206926Y0058274D01*
X0206842Y0058249D01*
X0206756Y0058227D01*
X0206670Y0058210D01*
X0206582Y0058196D01*
X0206494Y0058186D01*
X0206406Y0058180D01*
X0206318Y0058178D01*
X0206230Y0058180D01*
X0206142Y0058186D01*
X0206054Y0058196D01*
X0205966Y0058210D01*
X0205880Y0058227D01*
X0205794Y0058249D01*
X0205710Y0058274D01*
X0205626Y0058304D01*
X0205544Y0058336D01*
X0205464Y0058373D01*
X0205385Y0058413D01*
X0205308Y0058457D01*
X0205233Y0058504D01*
X0205161Y0058554D01*
X0205090Y0058608D01*
X0205023Y0058664D01*
X0204957Y0058724D01*
X0204895Y0058786D01*
X0204835Y0058852D01*
X0204779Y0058919D01*
X0204725Y0058990D01*
X0204675Y0059062D01*
X0204628Y0059137D01*
X0204584Y0059214D01*
X0204544Y0059293D01*
X0204507Y0059373D01*
X0204475Y0059455D01*
X0204445Y0059539D01*
X0204420Y0059623D01*
X0204398Y0059709D01*
X0204381Y0059795D01*
X0204367Y0059883D01*
X0204357Y0059971D01*
X0204351Y0060059D01*
X0204349Y0060147D01*
X0204349Y0091564D02*
X0204351Y0091652D01*
X0204357Y0091740D01*
X0204367Y0091828D01*
X0204381Y0091916D01*
X0204398Y0092002D01*
X0204420Y0092088D01*
X0204445Y0092172D01*
X0204475Y0092256D01*
X0204507Y0092338D01*
X0204544Y0092418D01*
X0204584Y0092497D01*
X0204628Y0092574D01*
X0204675Y0092649D01*
X0204725Y0092721D01*
X0204779Y0092792D01*
X0204835Y0092859D01*
X0204895Y0092925D01*
X0204957Y0092987D01*
X0205023Y0093047D01*
X0205090Y0093103D01*
X0205161Y0093157D01*
X0205233Y0093207D01*
X0205308Y0093254D01*
X0205385Y0093298D01*
X0205464Y0093338D01*
X0205544Y0093375D01*
X0205626Y0093407D01*
X0205710Y0093437D01*
X0205794Y0093462D01*
X0205880Y0093484D01*
X0205966Y0093501D01*
X0206054Y0093515D01*
X0206142Y0093525D01*
X0206230Y0093531D01*
X0206318Y0093533D01*
X0206406Y0093531D01*
X0206494Y0093525D01*
X0206582Y0093515D01*
X0206670Y0093501D01*
X0206756Y0093484D01*
X0206842Y0093462D01*
X0206926Y0093437D01*
X0207010Y0093407D01*
X0207092Y0093375D01*
X0207172Y0093338D01*
X0207251Y0093298D01*
X0207328Y0093254D01*
X0207403Y0093207D01*
X0207475Y0093157D01*
X0207546Y0093103D01*
X0207613Y0093047D01*
X0207679Y0092987D01*
X0207741Y0092925D01*
X0207801Y0092859D01*
X0207857Y0092792D01*
X0207911Y0092721D01*
X0207961Y0092649D01*
X0208008Y0092574D01*
X0208052Y0092497D01*
X0208092Y0092418D01*
X0208129Y0092338D01*
X0208161Y0092256D01*
X0208191Y0092172D01*
X0208216Y0092088D01*
X0208238Y0092002D01*
X0208255Y0091916D01*
X0208269Y0091828D01*
X0208279Y0091740D01*
X0208285Y0091652D01*
X0208287Y0091564D01*
X0208285Y0091476D01*
X0208279Y0091388D01*
X0208269Y0091300D01*
X0208255Y0091212D01*
X0208238Y0091126D01*
X0208216Y0091040D01*
X0208191Y0090956D01*
X0208161Y0090872D01*
X0208129Y0090790D01*
X0208092Y0090710D01*
X0208052Y0090631D01*
X0208008Y0090554D01*
X0207961Y0090479D01*
X0207911Y0090407D01*
X0207857Y0090336D01*
X0207801Y0090269D01*
X0207741Y0090203D01*
X0207679Y0090141D01*
X0207613Y0090081D01*
X0207546Y0090025D01*
X0207475Y0089971D01*
X0207403Y0089921D01*
X0207328Y0089874D01*
X0207251Y0089830D01*
X0207172Y0089790D01*
X0207092Y0089753D01*
X0207010Y0089721D01*
X0206926Y0089691D01*
X0206842Y0089666D01*
X0206756Y0089644D01*
X0206670Y0089627D01*
X0206582Y0089613D01*
X0206494Y0089603D01*
X0206406Y0089597D01*
X0206318Y0089595D01*
X0206230Y0089597D01*
X0206142Y0089603D01*
X0206054Y0089613D01*
X0205966Y0089627D01*
X0205880Y0089644D01*
X0205794Y0089666D01*
X0205710Y0089691D01*
X0205626Y0089721D01*
X0205544Y0089753D01*
X0205464Y0089790D01*
X0205385Y0089830D01*
X0205308Y0089874D01*
X0205233Y0089921D01*
X0205161Y0089971D01*
X0205090Y0090025D01*
X0205023Y0090081D01*
X0204957Y0090141D01*
X0204895Y0090203D01*
X0204835Y0090269D01*
X0204779Y0090336D01*
X0204725Y0090407D01*
X0204675Y0090479D01*
X0204628Y0090554D01*
X0204584Y0090631D01*
X0204544Y0090710D01*
X0204507Y0090790D01*
X0204475Y0090872D01*
X0204445Y0090956D01*
X0204420Y0091040D01*
X0204398Y0091126D01*
X0204381Y0091212D01*
X0204367Y0091300D01*
X0204357Y0091388D01*
X0204351Y0091476D01*
X0204349Y0091564D01*
D11*
X0123078Y0062430D03*
X0115598Y0062430D03*
X0115609Y0052670D03*
X0123090Y0052670D03*
X0094602Y0053481D03*
X0087121Y0053481D03*
D12*
X0098424Y0081989D03*
X0098424Y0085139D03*
X0098424Y0088288D03*
X0098424Y0091438D03*
X0098424Y0094587D03*
X0098424Y0097737D03*
X0098424Y0100887D03*
X0098424Y0104036D03*
X0098424Y0107186D03*
X0098424Y0110336D03*
X0098424Y0113485D03*
X0052755Y0113485D03*
X0052755Y0110336D03*
X0052755Y0107186D03*
X0052755Y0104036D03*
X0052755Y0100887D03*
X0052755Y0097737D03*
X0052755Y0094587D03*
X0052755Y0091438D03*
X0052755Y0088288D03*
X0052755Y0085139D03*
X0052755Y0081989D03*
D13*
X0059842Y0074902D03*
X0062991Y0074902D03*
X0066141Y0074902D03*
X0069291Y0074902D03*
X0072440Y0074902D03*
X0075590Y0074902D03*
X0078739Y0074902D03*
X0081889Y0074902D03*
X0085039Y0074902D03*
X0088188Y0074902D03*
X0091338Y0074902D03*
X0091338Y0120572D03*
X0088188Y0120572D03*
X0085039Y0120572D03*
X0081889Y0120572D03*
X0078739Y0120572D03*
X0075590Y0120572D03*
X0072440Y0120572D03*
X0069291Y0120572D03*
X0066141Y0120572D03*
X0062991Y0120572D03*
X0059842Y0120572D03*
D14*
X0041200Y0103737D03*
X0041200Y0095863D03*
X0111259Y0097485D03*
X0111259Y0089611D03*
X0141125Y0092674D03*
X0141125Y0100548D03*
X0140980Y0107918D03*
X0140980Y0115792D03*
D15*
X0149948Y0066493D03*
D16*
X0149948Y0061493D03*
X0149948Y0056493D03*
X0149948Y0051493D03*
X0149948Y0046493D03*
X0149948Y0041493D03*
D17*
X0050289Y0059217D02*
X0047229Y0059217D01*
X0050289Y0059217D02*
X0050289Y0054257D01*
X0047229Y0054257D01*
X0047229Y0059217D01*
X0047229Y0054796D02*
X0050289Y0054796D01*
X0050289Y0055335D02*
X0047229Y0055335D01*
X0047229Y0055874D02*
X0050289Y0055874D01*
X0050289Y0056413D02*
X0047229Y0056413D01*
X0047229Y0056952D02*
X0050289Y0056952D01*
X0050289Y0057491D02*
X0047229Y0057491D01*
X0047229Y0058030D02*
X0050289Y0058030D01*
X0050289Y0058569D02*
X0047229Y0058569D01*
X0047229Y0059108D02*
X0050289Y0059108D01*
X0035454Y0059217D02*
X0032394Y0059217D01*
X0035454Y0059217D02*
X0035454Y0054257D01*
X0032394Y0054257D01*
X0032394Y0059217D01*
X0032394Y0054796D02*
X0035454Y0054796D01*
X0035454Y0055335D02*
X0032394Y0055335D01*
X0032394Y0055874D02*
X0035454Y0055874D01*
X0035454Y0056413D02*
X0032394Y0056413D01*
X0032394Y0056952D02*
X0035454Y0056952D01*
X0035454Y0057491D02*
X0032394Y0057491D01*
X0032394Y0058030D02*
X0035454Y0058030D01*
X0035454Y0058569D02*
X0032394Y0058569D01*
X0032394Y0059108D02*
X0035454Y0059108D01*
D18*
X0086973Y0042410D03*
X0099420Y0042410D03*
X0115418Y0042190D03*
X0127865Y0042190D03*
D19*
X0070908Y0040052D03*
X0058634Y0040052D03*
X0058323Y0052300D03*
X0070597Y0052300D03*
D20*
X0014850Y0071935D03*
D21*
X0024850Y0067560D03*
X0014850Y0062560D03*
X0024850Y0057560D03*
X0014850Y0052560D03*
X0024850Y0047560D03*
D22*
X0125767Y0096300D03*
X0125767Y0115300D03*
D23*
X0141511Y0082469D03*
X0141511Y0074989D03*
D24*
X0151995Y0075073D03*
X0151995Y0087347D03*
D25*
X0158680Y0136052D03*
X0158680Y0153769D03*
X0119310Y0153769D03*
X0107499Y0153769D03*
X0107499Y0136052D03*
X0119310Y0136052D03*
X0068129Y0136052D03*
X0056318Y0136052D03*
X0056318Y0153769D03*
X0068129Y0153769D03*
X0016948Y0153769D03*
X0016948Y0136052D03*
D26*
X0160157Y0088788D02*
X0165077Y0088788D01*
X0165077Y0087410D01*
X0160157Y0087410D01*
X0160157Y0088788D01*
X0160157Y0088787D02*
X0165077Y0088787D01*
X0165077Y0084458D02*
X0160157Y0084458D01*
X0165077Y0084458D02*
X0165077Y0083080D01*
X0160157Y0083080D01*
X0160157Y0084458D01*
X0160157Y0084457D02*
X0165077Y0084457D01*
X0165077Y0078749D02*
X0160157Y0078749D01*
X0160157Y0080127D01*
X0165077Y0080127D01*
X0165077Y0078749D01*
X0165077Y0080126D02*
X0160157Y0080126D01*
X0160157Y0075796D02*
X0165077Y0075796D01*
X0165077Y0074418D01*
X0160157Y0074418D01*
X0160157Y0075796D01*
X0160157Y0075795D02*
X0165077Y0075795D01*
X0165077Y0071465D02*
X0160157Y0071465D01*
X0165077Y0071465D02*
X0165077Y0070087D01*
X0160157Y0070087D01*
X0160157Y0071465D01*
X0160157Y0071464D02*
X0165077Y0071464D01*
X0165077Y0067135D02*
X0160157Y0067135D01*
X0165077Y0067135D02*
X0165077Y0065757D01*
X0160157Y0065757D01*
X0160157Y0067135D01*
X0160157Y0067134D02*
X0165077Y0067134D01*
X0165077Y0062804D02*
X0160157Y0062804D01*
X0165077Y0062804D02*
X0165077Y0061426D01*
X0160157Y0061426D01*
X0160157Y0062804D01*
X0160157Y0062803D02*
X0165077Y0062803D01*
X0165077Y0057095D02*
X0160157Y0057095D01*
X0160157Y0058473D01*
X0165077Y0058473D01*
X0165077Y0057095D01*
X0165077Y0058472D02*
X0160157Y0058472D01*
X0160059Y0054143D02*
X0164979Y0054143D01*
X0164979Y0052765D01*
X0160059Y0052765D01*
X0160059Y0054143D01*
X0160059Y0054142D02*
X0164979Y0054142D01*
D27*
X0165176Y0106663D02*
X0165176Y0110205D01*
X0165176Y0106663D02*
X0162420Y0106663D01*
X0162420Y0110205D01*
X0165176Y0110205D01*
X0165176Y0109418D02*
X0162420Y0109418D01*
D28*
X0207499Y0108434D02*
X0207499Y0110796D01*
X0207499Y0108434D02*
X0201201Y0108434D01*
X0201201Y0110796D01*
X0207499Y0110796D01*
X0207499Y0110795D02*
X0201201Y0110795D01*
X0207499Y0048887D02*
X0207499Y0046525D01*
X0201201Y0046525D01*
X0201201Y0048887D01*
X0207499Y0048887D01*
X0207499Y0048886D02*
X0201201Y0048886D01*
X0167736Y0049280D02*
X0167736Y0046918D01*
X0164586Y0046918D01*
X0164586Y0049280D01*
X0167736Y0049280D01*
X0167736Y0049279D02*
X0164586Y0049279D01*
D29*
X0077637Y0064300D03*
X0069763Y0064300D03*
D30*
X0042200Y0045934D03*
X0038460Y0037666D03*
X0045940Y0037666D03*
D31*
X0041700Y0032800D02*
X0038700Y0035800D01*
X0038700Y0037426D01*
X0038460Y0037666D01*
X0038460Y0039162D01*
X0037221Y0040400D01*
X0024500Y0040400D01*
X0019900Y0045000D01*
X0019900Y0059800D01*
X0024300Y0064200D01*
X0024300Y0067500D01*
X0034100Y0056500D02*
X0025300Y0047700D01*
X0042200Y0045934D02*
X0042200Y0052300D01*
X0044700Y0054800D01*
X0048322Y0054800D01*
X0048759Y0056737D01*
X0062200Y0067300D02*
X0062991Y0068091D01*
X0062991Y0074902D01*
X0072400Y0073800D02*
X0072400Y0067200D01*
X0070500Y0065300D01*
X0075700Y0066500D02*
X0075700Y0074200D01*
X0077100Y0065300D02*
X0077637Y0064300D01*
X0087121Y0053481D02*
X0086973Y0053333D01*
X0086973Y0042410D01*
X0070500Y0041100D02*
X0070500Y0034600D01*
X0068700Y0032800D01*
X0041700Y0032800D01*
X0057882Y0039300D02*
X0058634Y0040052D01*
X0110200Y0067828D02*
X0115598Y0062430D01*
X0122200Y0062430D02*
X0123078Y0062430D01*
X0122200Y0062430D02*
X0122200Y0068800D01*
X0110200Y0068800D02*
X0110200Y0067828D01*
X0123070Y0052670D02*
X0122700Y0052300D01*
X0122700Y0049472D01*
X0115418Y0042190D01*
X0127865Y0042190D02*
X0128561Y0041493D01*
X0149948Y0041493D01*
X0162519Y0053454D02*
X0168854Y0053454D01*
X0173700Y0058300D01*
X0173200Y0051800D02*
X0182700Y0051800D01*
X0184700Y0053800D01*
X0184700Y0064800D01*
X0184200Y0064800D01*
X0182700Y0066300D01*
X0165200Y0066300D01*
X0165100Y0066400D01*
X0162617Y0070776D02*
X0162641Y0070800D01*
X0170700Y0070800D01*
X0162617Y0075107D02*
X0162583Y0075073D01*
X0163255Y0078800D02*
X0162617Y0079438D01*
X0163255Y0078800D02*
X0182200Y0078800D01*
X0188200Y0072800D01*
X0188700Y0072800D01*
X0189700Y0071800D01*
X0189700Y0048300D01*
X0187700Y0046300D01*
X0171700Y0046300D01*
X0168700Y0043300D01*
X0168400Y0043300D01*
X0172200Y0042300D02*
X0193700Y0042300D01*
X0195700Y0044300D01*
X0195700Y0073800D01*
X0186200Y0083300D01*
X0163086Y0083300D01*
X0162617Y0083769D01*
X0151900Y0087900D02*
X0146400Y0087900D01*
X0146400Y0096100D01*
X0142000Y0100500D01*
X0146400Y0087900D02*
X0126700Y0087900D01*
X0118500Y0096100D01*
X0112700Y0096100D01*
X0111063Y0097737D01*
X0098424Y0097737D01*
X0094763Y0097737D01*
X0090700Y0101800D01*
X0090700Y0105800D01*
X0081889Y0114611D01*
X0081889Y0120572D01*
X0081900Y0122500D02*
X0081900Y0125800D01*
X0073800Y0125800D01*
X0072400Y0124400D01*
X0072400Y0121100D01*
X0075700Y0120600D02*
X0075700Y0114000D01*
X0084800Y0104900D01*
X0084800Y0103700D01*
X0094000Y0094500D01*
X0098500Y0094500D01*
X0098424Y0088288D02*
X0094188Y0088288D01*
X0092700Y0086800D01*
X0092700Y0080800D01*
X0112200Y0088400D02*
X0117700Y0082900D01*
X0140900Y0082900D01*
X0151911Y0074989D02*
X0151995Y0075073D01*
X0153507Y0066493D02*
X0149948Y0066493D01*
X0153507Y0066493D02*
X0157885Y0062115D01*
X0162617Y0062115D01*
X0173200Y0051800D02*
X0170900Y0049500D01*
X0168400Y0049500D01*
X0123090Y0052670D02*
X0123070Y0052670D01*
X0112700Y0096100D02*
X0111200Y0096100D01*
X0111259Y0097485D02*
X0110007Y0097737D01*
X0107700Y0102800D02*
X0104787Y0100887D01*
X0098424Y0100887D01*
X0098424Y0104036D02*
X0102936Y0104036D01*
X0104700Y0105800D01*
X0119900Y0102800D02*
X0119900Y0102767D01*
X0132700Y0115300D02*
X0133200Y0115800D01*
X0119310Y0136052D02*
X0107499Y0136052D01*
X0061700Y0104900D02*
X0057800Y0100900D01*
X0052900Y0100900D01*
X0051300Y0101000D02*
X0043600Y0101000D01*
X0041900Y0102700D01*
X0043074Y0097737D02*
X0041200Y0095863D01*
X0040800Y0096100D02*
X0039000Y0097900D01*
X0037900Y0097900D01*
X0035300Y0100500D01*
X0035300Y0136300D01*
X0043074Y0097737D02*
X0052755Y0097737D01*
X0063200Y0097737D01*
X0063200Y0096800D01*
D32*
X0104700Y0105800D02*
X0114200Y0115300D01*
X0125767Y0115300D01*
X0132700Y0115300D01*
X0133200Y0115800D02*
X0140972Y0115800D01*
X0140980Y0115792D01*
X0140900Y0107100D02*
X0140900Y0101600D01*
X0140900Y0092800D02*
X0129900Y0092800D01*
X0126600Y0096100D01*
X0125767Y0096300D02*
X0119900Y0102767D01*
X0119900Y0102800D02*
X0107700Y0102800D01*
X0141511Y0074989D02*
X0151911Y0074989D01*
X0151995Y0075073D02*
X0162583Y0075073D01*
X0165100Y0047700D02*
X0158500Y0047700D01*
X0077100Y0058700D02*
X0076500Y0059100D01*
X0072600Y0055200D01*
X0070500Y0052100D02*
X0070500Y0041100D01*
X0064700Y0044800D02*
X0064518Y0044618D01*
X0064200Y0044618D01*
X0058634Y0040052D01*
X0057882Y0039300D02*
X0051700Y0039300D01*
X0050066Y0037666D01*
X0045940Y0037666D01*
X0058323Y0052300D02*
X0056200Y0054300D01*
X0051200Y0054300D01*
X0049263Y0056237D01*
X0048759Y0056737D01*
X0064700Y0059300D02*
X0064700Y0044800D01*
X0064700Y0059300D02*
X0069763Y0063863D01*
X0069763Y0064300D01*
X0077100Y0064200D02*
X0077100Y0058700D01*
X0068129Y0136052D02*
X0056318Y0136052D01*
X0056070Y0136300D01*
X0035300Y0136300D01*
X0015700Y0136300D01*
X0015948Y0136052D01*
X0016948Y0136052D01*
X0016948Y0153769D02*
X0056318Y0153769D01*
X0068129Y0153769D02*
X0074900Y0153769D01*
X0107499Y0153769D01*
X0119310Y0153769D02*
X0158680Y0153769D01*
D33*
X0164514Y0153611D02*
X0225609Y0153611D01*
X0225609Y0152613D02*
X0164514Y0152613D01*
X0164514Y0151614D02*
X0225609Y0151614D01*
X0225609Y0150616D02*
X0164514Y0150616D01*
X0164514Y0150309D02*
X0164514Y0157229D01*
X0163518Y0158224D01*
X0153842Y0158224D01*
X0152846Y0157229D01*
X0152846Y0156669D01*
X0125144Y0156669D01*
X0125144Y0157229D01*
X0124148Y0158224D01*
X0114472Y0158224D01*
X0113476Y0157229D01*
X0113476Y0151100D01*
X0113333Y0151100D01*
X0113333Y0157229D01*
X0112337Y0158224D01*
X0102661Y0158224D01*
X0101665Y0157229D01*
X0101665Y0156669D01*
X0073963Y0156669D01*
X0073963Y0157229D01*
X0072967Y0158224D01*
X0063291Y0158224D01*
X0062295Y0157229D01*
X0062295Y0150309D01*
X0063291Y0149313D01*
X0072700Y0149313D01*
X0072700Y0140244D01*
X0072460Y0140308D01*
X0068629Y0140308D01*
X0068629Y0136552D01*
X0067629Y0136552D01*
X0067629Y0135552D01*
X0062495Y0135552D01*
X0062495Y0133099D01*
X0062598Y0132717D01*
X0062795Y0132375D01*
X0063074Y0132096D01*
X0063416Y0131898D01*
X0063798Y0131796D01*
X0064585Y0131796D01*
X0057300Y0124511D01*
X0057300Y0124371D01*
X0057157Y0124229D01*
X0057157Y0121497D01*
X0057119Y0121403D01*
X0057157Y0121310D01*
X0057157Y0116915D01*
X0058153Y0115919D01*
X0063859Y0115919D01*
X0063890Y0107943D01*
X0063796Y0108037D01*
X0062436Y0108600D01*
X0060964Y0108600D01*
X0059604Y0108037D01*
X0058563Y0106996D01*
X0058000Y0105636D01*
X0058000Y0104686D01*
X0057408Y0104079D01*
X0057408Y0115174D01*
X0056412Y0116169D01*
X0049098Y0116169D01*
X0048102Y0115174D01*
X0048102Y0103500D01*
X0046050Y0103500D01*
X0046050Y0107000D01*
X0045054Y0107996D01*
X0037346Y0107996D01*
X0036350Y0107000D01*
X0036350Y0100474D01*
X0037175Y0099649D01*
X0037129Y0099622D01*
X0036850Y0099343D01*
X0036653Y0099001D01*
X0036550Y0098620D01*
X0036550Y0096363D01*
X0040700Y0096363D01*
X0040700Y0095363D01*
X0041700Y0095363D01*
X0041700Y0091804D01*
X0044547Y0091804D01*
X0044929Y0091906D01*
X0045271Y0092104D01*
X0045550Y0092383D01*
X0045747Y0092725D01*
X0045850Y0093107D01*
X0045850Y0095363D01*
X0041700Y0095363D01*
X0041700Y0096363D01*
X0045850Y0096363D01*
X0045850Y0098500D01*
X0048302Y0098500D01*
X0048302Y0097737D01*
X0048302Y0096555D01*
X0048319Y0096493D01*
X0048102Y0096276D01*
X0048102Y0090588D01*
X0045720Y0090588D01*
X0045160Y0090593D01*
X0045153Y0090600D01*
X0044209Y0090600D01*
X0043265Y0090607D01*
X0043258Y0090600D01*
X0041804Y0090600D01*
X0040959Y0090677D01*
X0040867Y0090600D01*
X0040747Y0090600D01*
X0040147Y0090000D01*
X0039510Y0089469D01*
X0039436Y0089500D01*
X0037964Y0089500D01*
X0036604Y0088937D01*
X0035700Y0088033D01*
X0035700Y0091367D01*
X0036537Y0092204D01*
X0036711Y0092624D01*
X0036850Y0092383D01*
X0037129Y0092104D01*
X0037471Y0091906D01*
X0037853Y0091804D01*
X0040700Y0091804D01*
X0040700Y0095363D01*
X0036965Y0095363D01*
X0036537Y0096396D01*
X0035496Y0097437D01*
X0034136Y0098000D01*
X0032664Y0098000D01*
X0031304Y0097437D01*
X0030263Y0096396D01*
X0029700Y0095036D01*
X0029700Y0093564D01*
X0030263Y0092204D01*
X0031100Y0091367D01*
X0031100Y0084647D01*
X0032447Y0083300D01*
X0036058Y0079689D01*
X0048714Y0079689D01*
X0049098Y0079305D01*
X0054452Y0079305D01*
X0051247Y0076100D01*
X0041347Y0076100D01*
X0036647Y0071400D01*
X0035464Y0071400D01*
X0034104Y0070837D01*
X0033063Y0069796D01*
X0032500Y0068436D01*
X0032500Y0066964D01*
X0033063Y0065604D01*
X0034104Y0064563D01*
X0035464Y0064000D01*
X0036936Y0064000D01*
X0038296Y0064563D01*
X0039337Y0065604D01*
X0039900Y0066964D01*
X0039900Y0068147D01*
X0043253Y0071500D01*
X0053153Y0071500D01*
X0054500Y0072847D01*
X0057157Y0075505D01*
X0057157Y0071246D01*
X0058153Y0070250D01*
X0059917Y0070250D01*
X0059063Y0069396D01*
X0058500Y0068036D01*
X0058500Y0066564D01*
X0059063Y0065204D01*
X0060104Y0064163D01*
X0061464Y0063600D01*
X0062936Y0063600D01*
X0064296Y0064163D01*
X0065337Y0065204D01*
X0065504Y0065608D01*
X0065504Y0063929D01*
X0063129Y0061788D01*
X0063057Y0061759D01*
X0062703Y0061404D01*
X0062330Y0061068D01*
X0062297Y0060998D01*
X0062241Y0060943D01*
X0062050Y0060479D01*
X0061834Y0060027D01*
X0061830Y0059949D01*
X0061800Y0059877D01*
X0061800Y0059375D01*
X0061774Y0058874D01*
X0061800Y0058801D01*
X0061800Y0057330D01*
X0061586Y0057543D01*
X0055060Y0057543D01*
X0054717Y0057200D01*
X0052401Y0057200D01*
X0052259Y0057342D01*
X0052259Y0060033D01*
X0051105Y0061187D01*
X0046413Y0061187D01*
X0045259Y0060033D01*
X0045259Y0057300D01*
X0044203Y0057300D01*
X0043284Y0056919D01*
X0040081Y0053716D01*
X0039700Y0052797D01*
X0039700Y0049578D01*
X0039220Y0049099D01*
X0039220Y0042769D01*
X0040216Y0041773D01*
X0043903Y0041773D01*
X0042961Y0040831D01*
X0042961Y0034501D01*
X0043956Y0033506D01*
X0047924Y0033506D01*
X0048920Y0034501D01*
X0048920Y0034766D01*
X0050643Y0034766D01*
X0051709Y0035208D01*
X0052901Y0036400D01*
X0054375Y0036400D01*
X0054375Y0035805D01*
X0055371Y0034809D01*
X0061897Y0034809D01*
X0062893Y0035805D01*
X0062893Y0039795D01*
X0064262Y0040918D01*
X0064936Y0040918D01*
X0066296Y0041481D01*
X0066849Y0042034D01*
X0066849Y0040552D01*
X0070408Y0040552D01*
X0070408Y0045095D01*
X0068151Y0045095D01*
X0067900Y0045028D01*
X0067900Y0045354D01*
X0067600Y0046078D01*
X0067600Y0047321D01*
X0067840Y0047257D01*
X0070097Y0047257D01*
X0070097Y0051800D01*
X0071097Y0051800D01*
X0071097Y0052800D01*
X0074656Y0052800D01*
X0074656Y0056041D01*
X0074554Y0056422D01*
X0074356Y0056764D01*
X0074077Y0057044D01*
X0073735Y0057241D01*
X0073353Y0057343D01*
X0071097Y0057343D01*
X0071097Y0052800D01*
X0070097Y0052800D01*
X0070097Y0057343D01*
X0067840Y0057343D01*
X0067600Y0057279D01*
X0067600Y0058010D01*
X0069199Y0059450D01*
X0073026Y0059450D01*
X0073851Y0060275D01*
X0073878Y0060229D01*
X0074157Y0059950D01*
X0074499Y0059753D01*
X0074880Y0059650D01*
X0077137Y0059650D01*
X0077137Y0063800D01*
X0078137Y0063800D01*
X0078137Y0059650D01*
X0080394Y0059650D01*
X0080775Y0059753D01*
X0081117Y0059950D01*
X0081396Y0060229D01*
X0081594Y0060572D01*
X0081696Y0060953D01*
X0081696Y0063800D01*
X0078137Y0063800D01*
X0078137Y0064800D01*
X0081696Y0064800D01*
X0081696Y0067647D01*
X0081594Y0068029D01*
X0081396Y0068371D01*
X0081117Y0068650D01*
X0080775Y0068847D01*
X0080394Y0068950D01*
X0078137Y0068950D01*
X0078137Y0064800D01*
X0077137Y0064800D01*
X0074022Y0064800D01*
X0074022Y0063800D01*
X0077137Y0063800D01*
X0077137Y0064800D01*
X0077137Y0068950D01*
X0074900Y0068950D01*
X0074900Y0070450D01*
X0075590Y0070450D01*
X0076771Y0070450D01*
X0076834Y0070466D01*
X0077051Y0070250D01*
X0089100Y0070250D01*
X0089100Y0067353D01*
X0081647Y0059900D01*
X0080300Y0058553D01*
X0080300Y0036847D01*
X0083600Y0033547D01*
X0084947Y0032200D01*
X0164210Y0032200D01*
X0164256Y0032158D01*
X0165154Y0032200D01*
X0166053Y0032200D01*
X0166097Y0032244D01*
X0166160Y0032247D01*
X0166765Y0032912D01*
X0167400Y0033547D01*
X0167400Y0033610D01*
X0173035Y0039800D01*
X0194197Y0039800D01*
X0195116Y0040181D01*
X0197116Y0042181D01*
X0197819Y0042884D01*
X0198200Y0043803D01*
X0198200Y0074297D01*
X0197819Y0075216D01*
X0188319Y0084716D01*
X0187616Y0085419D01*
X0186697Y0085800D01*
X0167114Y0085800D01*
X0166980Y0085934D01*
X0167467Y0086421D01*
X0167467Y0089778D01*
X0166067Y0091177D01*
X0159167Y0091177D01*
X0157768Y0089778D01*
X0157768Y0086421D01*
X0158255Y0085934D01*
X0157768Y0085447D01*
X0157768Y0082090D01*
X0158255Y0081603D01*
X0157768Y0081116D01*
X0157768Y0077973D01*
X0157239Y0077973D01*
X0157239Y0078336D01*
X0156243Y0079332D01*
X0147748Y0079332D01*
X0146752Y0078336D01*
X0146752Y0077889D01*
X0146164Y0077889D01*
X0146164Y0078252D01*
X0145687Y0078729D01*
X0146164Y0079206D01*
X0146164Y0085733D01*
X0145168Y0086728D01*
X0137854Y0086728D01*
X0136858Y0085733D01*
X0136858Y0085400D01*
X0118736Y0085400D01*
X0116109Y0088027D01*
X0116109Y0092874D01*
X0115284Y0093699D01*
X0115330Y0093726D01*
X0115609Y0094005D01*
X0115806Y0094347D01*
X0115909Y0094729D01*
X0115909Y0096985D01*
X0111759Y0096985D01*
X0111759Y0093870D01*
X0110759Y0093870D01*
X0110759Y0096985D01*
X0111759Y0096985D01*
X0111759Y0097985D01*
X0115909Y0097985D01*
X0115909Y0099900D01*
X0118585Y0099900D01*
X0121667Y0096503D01*
X0121667Y0095485D01*
X0122291Y0093978D01*
X0123444Y0092824D01*
X0124951Y0092200D01*
X0126399Y0092200D01*
X0128257Y0090342D01*
X0129323Y0089900D01*
X0136276Y0089900D01*
X0136276Y0089411D01*
X0137271Y0088415D01*
X0144979Y0088415D01*
X0145975Y0089411D01*
X0145975Y0095937D01*
X0145150Y0096762D01*
X0145196Y0096789D01*
X0145475Y0097068D01*
X0145673Y0097410D01*
X0145775Y0097792D01*
X0145775Y0100048D01*
X0141625Y0100048D01*
X0141625Y0101048D01*
X0140625Y0101048D01*
X0140625Y0100048D01*
X0136476Y0100048D01*
X0136476Y0097792D01*
X0136578Y0097410D01*
X0136775Y0097068D01*
X0137055Y0096789D01*
X0137101Y0096762D01*
X0136276Y0095937D01*
X0136276Y0095700D01*
X0131101Y0095700D01*
X0129867Y0096934D01*
X0129867Y0097116D01*
X0129243Y0098623D01*
X0128089Y0099776D01*
X0126582Y0100400D01*
X0125963Y0100400D01*
X0122412Y0104315D01*
X0122358Y0104443D01*
X0121677Y0105124D01*
X0121660Y0105143D01*
X0121657Y0105144D01*
X0121543Y0105259D01*
X0120477Y0105700D01*
X0108701Y0105700D01*
X0115401Y0112400D01*
X0122869Y0112400D01*
X0123444Y0111824D01*
X0124951Y0111200D01*
X0126582Y0111200D01*
X0128089Y0111824D01*
X0128665Y0112400D01*
X0133277Y0112400D01*
X0134343Y0112842D01*
X0134401Y0112900D01*
X0136130Y0112900D01*
X0136130Y0112529D01*
X0136955Y0111704D01*
X0136909Y0111678D01*
X0136630Y0111398D01*
X0136432Y0111056D01*
X0136330Y0110675D01*
X0113676Y0110675D01*
X0112678Y0109677D02*
X0136330Y0109677D01*
X0136330Y0110675D02*
X0136330Y0108418D01*
X0140479Y0108418D01*
X0140479Y0107418D01*
X0136330Y0107418D01*
X0136330Y0105162D01*
X0136432Y0104780D01*
X0136630Y0104438D01*
X0136907Y0104160D01*
X0136775Y0104028D01*
X0136578Y0103686D01*
X0136476Y0103305D01*
X0136476Y0101048D01*
X0140625Y0101048D01*
X0140625Y0104607D01*
X0140480Y0104607D01*
X0140480Y0107418D01*
X0141479Y0107418D01*
X0141479Y0103859D01*
X0141625Y0103859D01*
X0141625Y0101048D01*
X0145775Y0101048D01*
X0145775Y0103305D01*
X0145673Y0103686D01*
X0145475Y0104028D01*
X0145197Y0104306D01*
X0145329Y0104438D01*
X0145527Y0104780D01*
X0145629Y0105162D01*
X0145629Y0107418D01*
X0141480Y0107418D01*
X0141480Y0108418D01*
X0145629Y0108418D01*
X0145629Y0110675D01*
X0159343Y0110675D01*
X0159343Y0110818D02*
X0159343Y0106050D01*
X0159811Y0104919D01*
X0160677Y0104053D01*
X0161808Y0103584D01*
X0165789Y0103584D01*
X0166920Y0104053D01*
X0167786Y0104919D01*
X0168254Y0106050D01*
X0168254Y0110818D01*
X0167786Y0111949D01*
X0166920Y0112815D01*
X0165789Y0113284D01*
X0161808Y0113284D01*
X0160677Y0112815D01*
X0159811Y0111949D01*
X0159343Y0110818D01*
X0159697Y0111674D02*
X0145054Y0111674D01*
X0145050Y0111678D02*
X0145004Y0111704D01*
X0145829Y0112529D01*
X0145829Y0119055D01*
X0144833Y0120051D01*
X0137126Y0120051D01*
X0136130Y0119055D01*
X0136130Y0118700D01*
X0132623Y0118700D01*
X0131557Y0118259D01*
X0131499Y0118200D01*
X0128665Y0118200D01*
X0128089Y0118776D01*
X0126582Y0119400D01*
X0124951Y0119400D01*
X0123444Y0118776D01*
X0122869Y0118200D01*
X0113623Y0118200D01*
X0112557Y0117759D01*
X0111741Y0116943D01*
X0103077Y0108278D01*
X0103077Y0114766D01*
X0109480Y0120919D01*
X0110972Y0120919D01*
X0112398Y0121510D01*
X0113490Y0122602D01*
X0114081Y0124028D01*
X0114081Y0125572D01*
X0113490Y0126999D01*
X0112398Y0128090D01*
X0110972Y0128681D01*
X0109428Y0128681D01*
X0108002Y0128090D01*
X0106910Y0126999D01*
X0106319Y0125572D01*
X0106319Y0124261D01*
X0097898Y0116169D01*
X0094767Y0116169D01*
X0093772Y0115174D01*
X0093772Y0099198D01*
X0093988Y0098981D01*
X0093972Y0098919D01*
X0093972Y0098064D01*
X0088245Y0103790D01*
X0088400Y0104164D01*
X0088400Y0105636D01*
X0087837Y0106996D01*
X0086796Y0108037D01*
X0085436Y0108600D01*
X0084636Y0108600D01*
X0078200Y0115036D01*
X0078200Y0115919D01*
X0080428Y0115919D01*
X0080645Y0116136D01*
X0080707Y0116119D01*
X0081889Y0116119D01*
X0083071Y0116119D01*
X0083133Y0116136D01*
X0083350Y0115919D01*
X0093026Y0115919D01*
X0094022Y0116915D01*
X0094022Y0124229D01*
X0093026Y0125224D01*
X0083350Y0125224D01*
X0083133Y0125008D01*
X0083071Y0125024D01*
X0081889Y0125024D01*
X0080707Y0125024D01*
X0080645Y0125008D01*
X0080428Y0125224D01*
X0073901Y0125224D01*
X0073685Y0125008D01*
X0073622Y0125024D01*
X0072440Y0125024D01*
X0071258Y0125024D01*
X0071196Y0125008D01*
X0070979Y0125224D01*
X0067536Y0125224D01*
X0069211Y0126900D01*
X0082011Y0126900D01*
X0101811Y0146700D01*
X0115411Y0146700D01*
X0118024Y0149313D01*
X0124148Y0149313D01*
X0125144Y0150309D01*
X0125144Y0150869D01*
X0152846Y0150869D01*
X0152846Y0150309D01*
X0153842Y0149313D01*
X0163518Y0149313D01*
X0164514Y0150309D01*
X0163823Y0149617D02*
X0225609Y0149617D01*
X0225609Y0148618D02*
X0117330Y0148618D01*
X0116331Y0147620D02*
X0225609Y0147620D01*
X0225609Y0146621D02*
X0101733Y0146621D01*
X0100734Y0145623D02*
X0225609Y0145623D01*
X0225609Y0144624D02*
X0099736Y0144624D01*
X0098737Y0143626D02*
X0225609Y0143626D01*
X0225609Y0142627D02*
X0097739Y0142627D01*
X0096740Y0141629D02*
X0225609Y0141629D01*
X0225609Y0140630D02*
X0095742Y0140630D01*
X0094743Y0139632D02*
X0102109Y0139632D01*
X0102165Y0139729D02*
X0101968Y0139387D01*
X0101865Y0139005D01*
X0101865Y0136552D01*
X0106999Y0136552D01*
X0106999Y0135552D01*
X0101865Y0135552D01*
X0101865Y0133099D01*
X0101968Y0132717D01*
X0102165Y0132375D01*
X0102444Y0132096D01*
X0102786Y0131898D01*
X0103168Y0131796D01*
X0106999Y0131796D01*
X0106999Y0135552D01*
X0107999Y0135552D01*
X0107999Y0131796D01*
X0111831Y0131796D01*
X0112212Y0131898D01*
X0112554Y0132096D01*
X0112833Y0132375D01*
X0113031Y0132717D01*
X0113133Y0133099D01*
X0113133Y0135552D01*
X0107999Y0135552D01*
X0107999Y0136552D01*
X0106999Y0136552D01*
X0106999Y0140308D01*
X0103168Y0140308D01*
X0102786Y0140206D01*
X0102444Y0140008D01*
X0102165Y0139729D01*
X0101865Y0138633D02*
X0093745Y0138633D01*
X0092746Y0137635D02*
X0101865Y0137635D01*
X0101865Y0136636D02*
X0091748Y0136636D01*
X0091800Y0135700D02*
X0106800Y0135700D01*
X0107499Y0136052D01*
X0106999Y0135638D02*
X0090749Y0135638D01*
X0091800Y0135700D02*
X0081900Y0125800D01*
X0081889Y0125024D02*
X0081889Y0120572D01*
X0081889Y0120572D01*
X0081889Y0125024D01*
X0081889Y0124654D02*
X0081889Y0124654D01*
X0081889Y0123656D02*
X0081889Y0123656D01*
X0081889Y0122657D02*
X0081889Y0122657D01*
X0081900Y0122500D02*
X0081889Y0120572D01*
X0081889Y0116119D01*
X0081889Y0120572D01*
X0081889Y0120572D01*
X0081889Y0120660D02*
X0081889Y0120660D01*
X0081889Y0119662D02*
X0081889Y0119662D01*
X0081889Y0118663D02*
X0081889Y0118663D01*
X0081889Y0117665D02*
X0081889Y0117665D01*
X0081889Y0116666D02*
X0081889Y0116666D01*
X0078200Y0115668D02*
X0094266Y0115668D01*
X0093773Y0116666D02*
X0098415Y0116666D01*
X0099455Y0117665D02*
X0094022Y0117665D01*
X0094022Y0118663D02*
X0100494Y0118663D01*
X0101533Y0119662D02*
X0094022Y0119662D01*
X0094022Y0120660D02*
X0102572Y0120660D01*
X0103611Y0121659D02*
X0094022Y0121659D01*
X0094022Y0122657D02*
X0104650Y0122657D01*
X0105689Y0123656D02*
X0094022Y0123656D01*
X0093596Y0124654D02*
X0106319Y0124654D01*
X0106352Y0125653D02*
X0067964Y0125653D01*
X0068962Y0126651D02*
X0106766Y0126651D01*
X0107561Y0127650D02*
X0082761Y0127650D01*
X0083759Y0128648D02*
X0109348Y0128648D01*
X0111052Y0128648D02*
X0225609Y0128648D01*
X0225609Y0127650D02*
X0112839Y0127650D01*
X0113634Y0126651D02*
X0225609Y0126651D01*
X0225609Y0125653D02*
X0114048Y0125653D01*
X0114081Y0124654D02*
X0225609Y0124654D01*
X0225609Y0123656D02*
X0113927Y0123656D01*
X0113513Y0122657D02*
X0225609Y0122657D01*
X0225609Y0121659D02*
X0112547Y0121659D01*
X0109211Y0120660D02*
X0225609Y0120660D01*
X0225609Y0119662D02*
X0145223Y0119662D01*
X0145829Y0118663D02*
X0225609Y0118663D01*
X0225609Y0117665D02*
X0145829Y0117665D01*
X0145829Y0116666D02*
X0225609Y0116666D01*
X0225609Y0115668D02*
X0145829Y0115668D01*
X0145829Y0114669D02*
X0225609Y0114669D01*
X0225609Y0113671D02*
X0208088Y0113671D01*
X0208072Y0113677D02*
X0209131Y0113239D01*
X0209942Y0112428D01*
X0210380Y0111369D01*
X0210380Y0107861D01*
X0209942Y0106802D01*
X0209131Y0105991D01*
X0208072Y0105553D01*
X0200627Y0105553D01*
X0199568Y0105991D01*
X0198758Y0106802D01*
X0198319Y0107861D01*
X0198319Y0111369D01*
X0198758Y0112428D01*
X0199568Y0113239D01*
X0200627Y0113677D01*
X0208072Y0113677D01*
X0209698Y0112672D02*
X0225609Y0112672D01*
X0225609Y0111674D02*
X0210254Y0111674D01*
X0210380Y0110675D02*
X0225609Y0110675D01*
X0225609Y0109677D02*
X0210380Y0109677D01*
X0210380Y0108678D02*
X0225609Y0108678D01*
X0225609Y0107680D02*
X0210305Y0107680D01*
X0209821Y0106681D02*
X0225609Y0106681D01*
X0225609Y0105682D02*
X0208385Y0105682D01*
X0200314Y0105682D02*
X0168102Y0105682D01*
X0168254Y0106681D02*
X0198878Y0106681D01*
X0198394Y0107680D02*
X0168254Y0107680D01*
X0168254Y0108678D02*
X0198319Y0108678D01*
X0198319Y0109677D02*
X0168254Y0109677D01*
X0168254Y0110675D02*
X0198319Y0110675D01*
X0198445Y0111674D02*
X0167900Y0111674D01*
X0167063Y0112672D02*
X0199001Y0112672D01*
X0200611Y0113671D02*
X0145829Y0113671D01*
X0145829Y0112672D02*
X0160534Y0112672D01*
X0159343Y0109677D02*
X0145629Y0109677D01*
X0145629Y0110675D02*
X0145527Y0111056D01*
X0145329Y0111398D01*
X0145050Y0111678D01*
X0145629Y0108678D02*
X0159343Y0108678D01*
X0159343Y0107680D02*
X0141480Y0107680D01*
X0140980Y0107918D02*
X0142000Y0108200D01*
X0140980Y0107918D02*
X0140900Y0107100D01*
X0140480Y0106681D02*
X0141479Y0106681D01*
X0141479Y0105682D02*
X0140480Y0105682D01*
X0140480Y0104684D02*
X0141479Y0104684D01*
X0141625Y0103685D02*
X0140625Y0103685D01*
X0140625Y0102687D02*
X0141625Y0102687D01*
X0141625Y0101688D02*
X0140625Y0101688D01*
X0140900Y0101600D02*
X0141125Y0100548D01*
X0142000Y0100500D01*
X0141625Y0100690D02*
X0225609Y0100690D01*
X0225609Y0101688D02*
X0145775Y0101688D01*
X0145775Y0102687D02*
X0225609Y0102687D01*
X0225609Y0103685D02*
X0166033Y0103685D01*
X0167551Y0104684D02*
X0225609Y0104684D01*
X0225609Y0099691D02*
X0145775Y0099691D01*
X0145775Y0098693D02*
X0225609Y0098693D01*
X0225609Y0097694D02*
X0145749Y0097694D01*
X0145216Y0096696D02*
X0225609Y0096696D01*
X0225609Y0095697D02*
X0145975Y0095697D01*
X0145975Y0094699D02*
X0204823Y0094699D01*
X0204353Y0094504D02*
X0203378Y0093529D01*
X0202850Y0092254D01*
X0202850Y0090874D01*
X0203378Y0089599D01*
X0204353Y0088623D01*
X0205628Y0088095D01*
X0207008Y0088095D01*
X0208283Y0088623D01*
X0209259Y0089599D01*
X0209787Y0090874D01*
X0209787Y0092254D01*
X0209259Y0093529D01*
X0208283Y0094504D01*
X0207008Y0095032D01*
X0205628Y0095032D01*
X0204353Y0094504D01*
X0203549Y0093700D02*
X0145975Y0093700D01*
X0145975Y0092702D02*
X0203035Y0092702D01*
X0202850Y0091703D02*
X0145975Y0091703D01*
X0145975Y0090705D02*
X0147181Y0090705D01*
X0147252Y0090827D02*
X0147054Y0090485D01*
X0146952Y0090103D01*
X0146952Y0087847D01*
X0151495Y0087847D01*
X0151495Y0091406D01*
X0148254Y0091406D01*
X0147873Y0091303D01*
X0147531Y0091106D01*
X0147252Y0090827D01*
X0146952Y0089706D02*
X0145975Y0089706D01*
X0145272Y0088708D02*
X0146952Y0088708D01*
X0146952Y0086847D02*
X0146952Y0084590D01*
X0147054Y0084209D01*
X0147252Y0083866D01*
X0147531Y0083587D01*
X0147873Y0083390D01*
X0148254Y0083288D01*
X0151495Y0083288D01*
X0151495Y0086847D01*
X0146952Y0086847D01*
X0146952Y0086711D02*
X0145186Y0086711D01*
X0146164Y0085712D02*
X0146952Y0085712D01*
X0146952Y0084714D02*
X0146164Y0084714D01*
X0146164Y0083715D02*
X0147403Y0083715D01*
X0146164Y0082717D02*
X0157768Y0082717D01*
X0157768Y0083715D02*
X0156588Y0083715D01*
X0156460Y0083587D02*
X0156739Y0083866D01*
X0156936Y0084209D01*
X0157039Y0084590D01*
X0157039Y0086847D01*
X0152495Y0086847D01*
X0152495Y0087847D01*
X0151495Y0087847D01*
X0151495Y0086847D01*
X0152495Y0086847D01*
X0152495Y0083288D01*
X0155736Y0083288D01*
X0156118Y0083390D01*
X0156460Y0083587D01*
X0157039Y0084714D02*
X0157768Y0084714D01*
X0158033Y0085712D02*
X0157039Y0085712D01*
X0157039Y0086711D02*
X0157768Y0086711D01*
X0157768Y0087709D02*
X0152495Y0087709D01*
X0152495Y0087847D02*
X0157039Y0087847D01*
X0157039Y0090103D01*
X0156936Y0090485D01*
X0156739Y0090827D01*
X0156460Y0091106D01*
X0156118Y0091303D01*
X0155736Y0091406D01*
X0152495Y0091406D01*
X0152495Y0087847D01*
X0151900Y0087900D02*
X0151995Y0087347D01*
X0151495Y0087709D02*
X0116426Y0087709D01*
X0116109Y0088708D02*
X0136979Y0088708D01*
X0136276Y0089706D02*
X0116109Y0089706D01*
X0116109Y0090705D02*
X0127894Y0090705D01*
X0126896Y0091703D02*
X0116109Y0091703D01*
X0116109Y0092702D02*
X0123740Y0092702D01*
X0122568Y0093700D02*
X0115286Y0093700D01*
X0115901Y0094699D02*
X0121992Y0094699D01*
X0121667Y0095697D02*
X0115909Y0095697D01*
X0115909Y0096696D02*
X0121492Y0096696D01*
X0120586Y0097694D02*
X0111759Y0097694D01*
X0111259Y0097485D02*
X0111200Y0096100D01*
X0110759Y0095697D02*
X0111759Y0095697D01*
X0111759Y0094699D02*
X0110759Y0094699D01*
X0110759Y0096696D02*
X0111759Y0096696D01*
X0110759Y0096985D02*
X0106609Y0096985D01*
X0106609Y0096243D01*
X0106053Y0096800D01*
X0102877Y0096800D01*
X0102877Y0097737D01*
X0098425Y0097737D01*
X0098425Y0097737D01*
X0102877Y0097737D01*
X0102877Y0098387D01*
X0104530Y0098387D01*
X0104766Y0098338D01*
X0105023Y0098387D01*
X0105284Y0098387D01*
X0105507Y0098479D01*
X0105743Y0098524D01*
X0105962Y0098667D01*
X0106203Y0098767D01*
X0106373Y0098938D01*
X0106609Y0099093D01*
X0106609Y0097985D01*
X0110759Y0097985D01*
X0110759Y0096985D01*
X0110759Y0097694D02*
X0102877Y0097694D01*
X0106023Y0098693D02*
X0106609Y0098693D01*
X0106609Y0096696D02*
X0106157Y0096696D01*
X0102400Y0091700D02*
X0104600Y0089500D01*
X0102400Y0091700D02*
X0099100Y0091700D01*
X0098424Y0091438D01*
X0098500Y0094500D02*
X0098424Y0094587D01*
X0099600Y0094500D01*
X0098424Y0097737D02*
X0094299Y0097737D01*
X0094298Y0097737D01*
X0098424Y0097737D01*
X0098424Y0097737D01*
X0093972Y0098693D02*
X0093343Y0098693D01*
X0093772Y0099691D02*
X0092344Y0099691D01*
X0091346Y0100690D02*
X0093772Y0100690D01*
X0093772Y0101688D02*
X0090347Y0101688D01*
X0089349Y0102687D02*
X0093772Y0102687D01*
X0093772Y0103685D02*
X0088350Y0103685D01*
X0088400Y0104684D02*
X0093772Y0104684D01*
X0093772Y0105682D02*
X0088381Y0105682D01*
X0087967Y0106681D02*
X0093772Y0106681D01*
X0093772Y0107680D02*
X0087153Y0107680D01*
X0084558Y0108678D02*
X0093772Y0108678D01*
X0093772Y0109677D02*
X0083559Y0109677D01*
X0082561Y0110675D02*
X0093772Y0110675D01*
X0093772Y0111674D02*
X0081562Y0111674D01*
X0080564Y0112672D02*
X0093772Y0112672D01*
X0093772Y0113671D02*
X0079565Y0113671D01*
X0078567Y0114669D02*
X0093772Y0114669D01*
X0103077Y0114669D02*
X0109468Y0114669D01*
X0110466Y0115668D02*
X0104015Y0115668D01*
X0105054Y0116666D02*
X0111465Y0116666D01*
X0112463Y0117665D02*
X0106094Y0117665D01*
X0107133Y0118663D02*
X0123332Y0118663D01*
X0128202Y0118663D02*
X0132534Y0118663D01*
X0136736Y0119662D02*
X0108172Y0119662D01*
X0108469Y0113671D02*
X0103077Y0113671D01*
X0103077Y0112672D02*
X0107471Y0112672D01*
X0106472Y0111674D02*
X0103077Y0111674D01*
X0103077Y0110675D02*
X0105474Y0110675D01*
X0104475Y0109677D02*
X0103077Y0109677D01*
X0103077Y0108678D02*
X0103477Y0108678D01*
X0109682Y0106681D02*
X0136330Y0106681D01*
X0136330Y0105682D02*
X0120519Y0105682D01*
X0122117Y0104684D02*
X0136488Y0104684D01*
X0136578Y0103685D02*
X0122982Y0103685D01*
X0123888Y0102687D02*
X0136476Y0102687D01*
X0136476Y0101688D02*
X0124794Y0101688D01*
X0125700Y0100690D02*
X0140625Y0100690D01*
X0136476Y0099691D02*
X0128174Y0099691D01*
X0129172Y0098693D02*
X0136476Y0098693D01*
X0136502Y0097694D02*
X0129627Y0097694D01*
X0130105Y0096696D02*
X0137034Y0096696D01*
X0140900Y0092800D02*
X0141125Y0092674D01*
X0137836Y0086711D02*
X0117425Y0086711D01*
X0118423Y0085712D02*
X0136858Y0085712D01*
X0140900Y0082900D02*
X0141511Y0082469D01*
X0146164Y0081718D02*
X0158140Y0081718D01*
X0157768Y0080720D02*
X0146164Y0080720D01*
X0146164Y0079721D02*
X0157768Y0079721D01*
X0157768Y0078723D02*
X0156852Y0078723D01*
X0162617Y0079438D02*
X0163400Y0079000D01*
X0167467Y0076300D02*
X0181164Y0076300D01*
X0186784Y0070681D01*
X0187200Y0070508D01*
X0187200Y0049336D01*
X0186664Y0048800D01*
X0171203Y0048800D01*
X0170284Y0048419D01*
X0169581Y0047716D01*
X0169464Y0047599D01*
X0166661Y0047599D01*
X0166661Y0048599D01*
X0170417Y0048599D01*
X0170417Y0049544D01*
X0170313Y0050062D01*
X0170111Y0050550D01*
X0169818Y0050990D01*
X0169706Y0051101D01*
X0170270Y0051334D01*
X0173354Y0054419D01*
X0174472Y0054419D01*
X0175898Y0055010D01*
X0176990Y0056102D01*
X0177581Y0057528D01*
X0177581Y0059072D01*
X0176990Y0060499D01*
X0175898Y0061590D01*
X0174472Y0062181D01*
X0172928Y0062181D01*
X0171502Y0061590D01*
X0170410Y0060499D01*
X0169819Y0059072D01*
X0169819Y0057955D01*
X0167818Y0055954D01*
X0167315Y0055954D01*
X0167467Y0056106D01*
X0167467Y0059463D01*
X0166980Y0059950D01*
X0167467Y0060437D01*
X0167467Y0063794D01*
X0166836Y0064424D01*
X0167118Y0064912D01*
X0167267Y0065469D01*
X0167267Y0066257D01*
X0162806Y0066257D01*
X0162806Y0066635D01*
X0167267Y0066635D01*
X0167267Y0067423D01*
X0167118Y0067980D01*
X0166933Y0068300D01*
X0167967Y0068300D01*
X0168604Y0067663D01*
X0169964Y0067100D01*
X0171436Y0067100D01*
X0172796Y0067663D01*
X0173837Y0068704D01*
X0174400Y0070064D01*
X0174400Y0071536D01*
X0173837Y0072896D01*
X0172796Y0073937D01*
X0171436Y0074500D01*
X0169964Y0074500D01*
X0168604Y0073937D01*
X0167967Y0073300D01*
X0167338Y0073300D01*
X0167467Y0073429D01*
X0167467Y0076300D01*
X0167467Y0075727D02*
X0181737Y0075727D01*
X0182736Y0074729D02*
X0167467Y0074729D01*
X0167467Y0073730D02*
X0168397Y0073730D01*
X0173003Y0073730D02*
X0183734Y0073730D01*
X0184733Y0072732D02*
X0173905Y0072732D01*
X0174318Y0071733D02*
X0185731Y0071733D01*
X0186730Y0070735D02*
X0174400Y0070735D01*
X0174264Y0069736D02*
X0187200Y0069736D01*
X0187200Y0068738D02*
X0173851Y0068738D01*
X0172872Y0067739D02*
X0187200Y0067739D01*
X0187200Y0066741D02*
X0167267Y0066741D01*
X0167267Y0065742D02*
X0187200Y0065742D01*
X0187200Y0064744D02*
X0167021Y0064744D01*
X0167467Y0063745D02*
X0187200Y0063745D01*
X0187200Y0062747D02*
X0167467Y0062747D01*
X0167467Y0061748D02*
X0171882Y0061748D01*
X0170661Y0060749D02*
X0167467Y0060749D01*
X0167179Y0059751D02*
X0170100Y0059751D01*
X0169819Y0058752D02*
X0167467Y0058752D01*
X0167467Y0057754D02*
X0169618Y0057754D01*
X0168620Y0056755D02*
X0167467Y0056755D01*
X0171697Y0052761D02*
X0187200Y0052761D01*
X0187200Y0051763D02*
X0170698Y0051763D01*
X0169968Y0050764D02*
X0187200Y0050764D01*
X0187200Y0049766D02*
X0170372Y0049766D01*
X0170417Y0048767D02*
X0171124Y0048767D01*
X0169633Y0047769D02*
X0166661Y0047769D01*
X0166161Y0048099D02*
X0165100Y0047700D01*
X0165661Y0047769D02*
X0156400Y0047769D01*
X0156400Y0047553D02*
X0156400Y0049753D01*
X0153526Y0052627D01*
X0153518Y0052731D01*
X0153366Y0052861D01*
X0153069Y0053578D01*
X0152654Y0053993D01*
X0153069Y0054408D01*
X0153629Y0055761D01*
X0153629Y0057225D01*
X0153069Y0058578D01*
X0152654Y0058993D01*
X0153069Y0059408D01*
X0153629Y0060761D01*
X0153629Y0062225D01*
X0153198Y0063267D01*
X0156469Y0059996D01*
X0157388Y0059615D01*
X0157920Y0059615D01*
X0157768Y0059463D01*
X0157768Y0056106D01*
X0158205Y0055668D01*
X0157669Y0055132D01*
X0157669Y0051775D01*
X0159069Y0050376D01*
X0162138Y0050376D01*
X0162008Y0050062D01*
X0161905Y0049544D01*
X0161905Y0048599D01*
X0165661Y0048599D01*
X0165661Y0050376D01*
X0165969Y0050376D01*
X0166547Y0050954D01*
X0166661Y0050954D01*
X0166661Y0048599D01*
X0165661Y0048599D01*
X0165661Y0047599D01*
X0161905Y0047599D01*
X0161905Y0046654D01*
X0162008Y0046136D01*
X0162210Y0045648D01*
X0162242Y0045600D01*
X0158353Y0045600D01*
X0156400Y0047553D01*
X0157182Y0046770D02*
X0161905Y0046770D01*
X0162159Y0045772D02*
X0158181Y0045772D01*
X0154671Y0042776D02*
X0153184Y0042776D01*
X0153295Y0042508D02*
X0153033Y0043142D01*
X0152652Y0043712D01*
X0152512Y0043852D01*
X0153054Y0044393D01*
X0153147Y0044300D01*
X0156447Y0041000D01*
X0167420Y0041000D01*
X0167773Y0040854D01*
X0164083Y0036800D01*
X0086853Y0036800D01*
X0086442Y0037210D01*
X0090177Y0037210D01*
X0091173Y0038206D01*
X0091173Y0046614D01*
X0090177Y0047610D01*
X0089473Y0047610D01*
X0089473Y0048828D01*
X0090384Y0048828D01*
X0090861Y0049305D01*
X0091338Y0048828D01*
X0097865Y0048828D01*
X0098861Y0049824D01*
X0098861Y0056387D01*
X0104000Y0051247D01*
X0104000Y0050064D01*
X0104563Y0048704D01*
X0105604Y0047663D01*
X0106964Y0047100D01*
X0108436Y0047100D01*
X0109796Y0047663D01*
X0110837Y0048704D01*
X0111350Y0049944D01*
X0111350Y0049013D01*
X0112346Y0048017D01*
X0117710Y0048017D01*
X0117082Y0047390D01*
X0112214Y0047390D01*
X0111218Y0046394D01*
X0111218Y0037986D01*
X0112214Y0036990D01*
X0118622Y0036990D01*
X0119618Y0037986D01*
X0119618Y0042854D01*
X0124781Y0048017D01*
X0126353Y0048017D01*
X0127349Y0049013D01*
X0127349Y0056327D01*
X0126353Y0057323D01*
X0119827Y0057323D01*
X0119350Y0056846D01*
X0118873Y0057323D01*
X0113930Y0057323D01*
X0113475Y0057777D01*
X0118861Y0057777D01*
X0119338Y0058254D01*
X0119815Y0057777D01*
X0126341Y0057777D01*
X0126564Y0058000D01*
X0133247Y0058000D01*
X0145707Y0045540D01*
X0146819Y0044429D01*
X0146827Y0044408D01*
X0147384Y0043852D01*
X0147244Y0043712D01*
X0146863Y0043142D01*
X0146601Y0042508D01*
X0146467Y0041836D01*
X0146467Y0041584D01*
X0149857Y0041584D01*
X0149857Y0041402D01*
X0150039Y0041402D01*
X0150039Y0041584D01*
X0153429Y0041584D01*
X0153429Y0041836D01*
X0153295Y0042508D01*
X0153429Y0041778D02*
X0155670Y0041778D01*
X0153429Y0041402D02*
X0150039Y0041402D01*
X0150039Y0038012D01*
X0150291Y0038012D01*
X0150963Y0038146D01*
X0151597Y0038408D01*
X0152167Y0038789D01*
X0152652Y0039274D01*
X0153033Y0039844D01*
X0153295Y0040478D01*
X0153429Y0041150D01*
X0153429Y0041402D01*
X0153355Y0040779D02*
X0167706Y0040779D01*
X0166797Y0039781D02*
X0152991Y0039781D01*
X0152157Y0038782D02*
X0165888Y0038782D01*
X0164979Y0037784D02*
X0131573Y0037784D01*
X0131565Y0037769D02*
X0131762Y0038111D01*
X0131865Y0038492D01*
X0131865Y0041690D01*
X0128365Y0041690D01*
X0128365Y0042690D01*
X0131865Y0042690D01*
X0131865Y0045887D01*
X0131762Y0046269D01*
X0131565Y0046611D01*
X0131286Y0046890D01*
X0130944Y0047088D01*
X0130562Y0047190D01*
X0128365Y0047190D01*
X0128365Y0042690D01*
X0127365Y0042690D01*
X0127365Y0047190D01*
X0125167Y0047190D01*
X0124786Y0047088D01*
X0124444Y0046890D01*
X0124164Y0046611D01*
X0123967Y0046269D01*
X0123865Y0045887D01*
X0123865Y0042690D01*
X0127365Y0042690D01*
X0127365Y0041690D01*
X0128365Y0041690D01*
X0128365Y0037190D01*
X0130562Y0037190D01*
X0130944Y0037292D01*
X0131286Y0037490D01*
X0131565Y0037769D01*
X0131865Y0038782D02*
X0147739Y0038782D01*
X0147729Y0038789D02*
X0148299Y0038408D01*
X0148933Y0038146D01*
X0149605Y0038012D01*
X0149857Y0038012D01*
X0149857Y0041402D01*
X0146467Y0041402D01*
X0146467Y0041150D01*
X0146601Y0040478D01*
X0146863Y0039844D01*
X0147244Y0039274D01*
X0147729Y0038789D01*
X0146905Y0039781D02*
X0131865Y0039781D01*
X0131865Y0040779D02*
X0146541Y0040779D01*
X0146467Y0041778D02*
X0128365Y0041778D01*
X0127865Y0042190D02*
X0127700Y0041100D01*
X0123500Y0036900D01*
X0112200Y0036900D01*
X0106800Y0042200D01*
X0100200Y0042200D01*
X0099420Y0042410D01*
X0099920Y0042776D02*
X0111218Y0042776D01*
X0111218Y0041778D02*
X0103420Y0041778D01*
X0103420Y0041910D02*
X0099920Y0041910D01*
X0099920Y0042910D01*
X0103420Y0042910D01*
X0103420Y0046108D01*
X0103317Y0046489D01*
X0103120Y0046831D01*
X0102841Y0047111D01*
X0102499Y0047308D01*
X0102117Y0047410D01*
X0099920Y0047410D01*
X0099920Y0042910D01*
X0098920Y0042910D01*
X0098920Y0041910D01*
X0099920Y0041910D01*
X0099920Y0037410D01*
X0102117Y0037410D01*
X0102499Y0037513D01*
X0102841Y0037710D01*
X0103120Y0037989D01*
X0103317Y0038331D01*
X0103420Y0038713D01*
X0103420Y0041910D01*
X0103420Y0040779D02*
X0111218Y0040779D01*
X0111218Y0039781D02*
X0103420Y0039781D01*
X0103420Y0038782D02*
X0111218Y0038782D01*
X0111420Y0037784D02*
X0102914Y0037784D01*
X0099920Y0037784D02*
X0098920Y0037784D01*
X0098920Y0037410D02*
X0096722Y0037410D01*
X0096341Y0037513D01*
X0095999Y0037710D01*
X0095719Y0037989D01*
X0095522Y0038331D01*
X0095420Y0038713D01*
X0095420Y0041910D01*
X0098920Y0041910D01*
X0098920Y0037410D01*
X0098920Y0038782D02*
X0099920Y0038782D01*
X0099920Y0039781D02*
X0098920Y0039781D01*
X0098920Y0040779D02*
X0099920Y0040779D01*
X0099920Y0041778D02*
X0098920Y0041778D01*
X0098920Y0042776D02*
X0091173Y0042776D01*
X0091173Y0041778D02*
X0095420Y0041778D01*
X0095420Y0040779D02*
X0091173Y0040779D01*
X0091173Y0039781D02*
X0095420Y0039781D01*
X0095420Y0038782D02*
X0091173Y0038782D01*
X0090750Y0037784D02*
X0095925Y0037784D01*
X0095420Y0042910D02*
X0098920Y0042910D01*
X0098920Y0047410D01*
X0096722Y0047410D01*
X0096341Y0047308D01*
X0095999Y0047111D01*
X0095719Y0046831D01*
X0095522Y0046489D01*
X0095420Y0046108D01*
X0095420Y0042910D01*
X0095420Y0043775D02*
X0091173Y0043775D01*
X0091173Y0044773D02*
X0095420Y0044773D01*
X0095420Y0045772D02*
X0091173Y0045772D01*
X0091017Y0046770D02*
X0095684Y0046770D01*
X0098920Y0046770D02*
X0099920Y0046770D01*
X0099920Y0045772D02*
X0098920Y0045772D01*
X0098920Y0044773D02*
X0099920Y0044773D01*
X0099920Y0043775D02*
X0098920Y0043775D01*
X0103420Y0043775D02*
X0111218Y0043775D01*
X0111218Y0044773D02*
X0103420Y0044773D01*
X0103420Y0045772D02*
X0111218Y0045772D01*
X0111594Y0046770D02*
X0103155Y0046770D01*
X0104537Y0048767D02*
X0089473Y0048767D01*
X0089473Y0047769D02*
X0105499Y0047769D01*
X0104124Y0049766D02*
X0098802Y0049766D01*
X0098861Y0050764D02*
X0104000Y0050764D01*
X0103485Y0051763D02*
X0098861Y0051763D01*
X0098861Y0052761D02*
X0102486Y0052761D01*
X0101487Y0053760D02*
X0098861Y0053760D01*
X0098861Y0054758D02*
X0100489Y0054758D01*
X0099490Y0055757D02*
X0098861Y0055757D01*
X0109901Y0047769D02*
X0117461Y0047769D01*
X0121537Y0044773D02*
X0123865Y0044773D01*
X0123865Y0043775D02*
X0120538Y0043775D01*
X0119618Y0042776D02*
X0123865Y0042776D01*
X0123865Y0041690D02*
X0123865Y0038492D01*
X0123967Y0038111D01*
X0124164Y0037769D01*
X0124444Y0037490D01*
X0124786Y0037292D01*
X0125167Y0037190D01*
X0127365Y0037190D01*
X0127365Y0041690D01*
X0123865Y0041690D01*
X0123865Y0040779D02*
X0119618Y0040779D01*
X0119618Y0039781D02*
X0123865Y0039781D01*
X0123865Y0038782D02*
X0119618Y0038782D01*
X0119416Y0037784D02*
X0124156Y0037784D01*
X0127365Y0037784D02*
X0128365Y0037784D01*
X0128365Y0038782D02*
X0127365Y0038782D01*
X0127365Y0039781D02*
X0128365Y0039781D01*
X0128365Y0040779D02*
X0127365Y0040779D01*
X0127365Y0041778D02*
X0119618Y0041778D01*
X0122535Y0045772D02*
X0123865Y0045772D01*
X0123534Y0046770D02*
X0124324Y0046770D01*
X0124532Y0047769D02*
X0143479Y0047769D01*
X0144477Y0046770D02*
X0131405Y0046770D01*
X0131865Y0045772D02*
X0145476Y0045772D01*
X0146474Y0044773D02*
X0131865Y0044773D01*
X0131865Y0043775D02*
X0147307Y0043775D01*
X0146712Y0042776D02*
X0131865Y0042776D01*
X0128365Y0042776D02*
X0127365Y0042776D01*
X0127365Y0043775D02*
X0128365Y0043775D01*
X0128365Y0044773D02*
X0127365Y0044773D01*
X0127365Y0045772D02*
X0128365Y0045772D01*
X0128365Y0046770D02*
X0127365Y0046770D01*
X0127103Y0048767D02*
X0142480Y0048767D01*
X0141482Y0049766D02*
X0127349Y0049766D01*
X0127349Y0050764D02*
X0140483Y0050764D01*
X0139485Y0051763D02*
X0127349Y0051763D01*
X0127349Y0052761D02*
X0138486Y0052761D01*
X0137488Y0053760D02*
X0127349Y0053760D01*
X0127349Y0054758D02*
X0136489Y0054758D01*
X0135490Y0055757D02*
X0127349Y0055757D01*
X0126920Y0056755D02*
X0134492Y0056755D01*
X0133493Y0057754D02*
X0113499Y0057754D01*
X0111350Y0049766D02*
X0111276Y0049766D01*
X0111596Y0048767D02*
X0110863Y0048767D01*
X0087489Y0065742D02*
X0081696Y0065742D01*
X0081696Y0066741D02*
X0088488Y0066741D01*
X0089100Y0067739D02*
X0081671Y0067739D01*
X0080965Y0068738D02*
X0089100Y0068738D01*
X0089100Y0069736D02*
X0074900Y0069736D01*
X0075590Y0070450D02*
X0075590Y0074902D01*
X0075590Y0070450D01*
X0075590Y0070735D02*
X0075590Y0070735D01*
X0075590Y0071733D02*
X0075590Y0071733D01*
X0075590Y0072732D02*
X0075590Y0072732D01*
X0075590Y0073730D02*
X0075590Y0073730D01*
X0075700Y0074200D02*
X0075590Y0074902D01*
X0075590Y0074902D01*
X0075590Y0074729D02*
X0075590Y0074729D01*
X0072700Y0075200D02*
X0072440Y0074902D01*
X0072400Y0073800D01*
X0077137Y0068738D02*
X0078137Y0068738D01*
X0078137Y0067739D02*
X0077137Y0067739D01*
X0077137Y0066741D02*
X0078137Y0066741D01*
X0078137Y0065742D02*
X0077137Y0065742D01*
X0077100Y0065300D02*
X0075700Y0066500D01*
X0077137Y0064744D02*
X0074022Y0064744D01*
X0077100Y0064200D02*
X0077637Y0064300D01*
X0078137Y0064744D02*
X0086491Y0064744D01*
X0085492Y0063745D02*
X0081696Y0063745D01*
X0081696Y0062747D02*
X0084494Y0062747D01*
X0083495Y0061748D02*
X0081696Y0061748D01*
X0081642Y0060749D02*
X0082497Y0060749D01*
X0081498Y0059751D02*
X0080769Y0059751D01*
X0080500Y0058752D02*
X0068424Y0058752D01*
X0067600Y0057754D02*
X0080300Y0057754D01*
X0080300Y0056755D02*
X0074361Y0056755D01*
X0074656Y0055757D02*
X0080300Y0055757D01*
X0080300Y0054758D02*
X0074656Y0054758D01*
X0074656Y0053760D02*
X0080300Y0053760D01*
X0080300Y0052761D02*
X0071097Y0052761D01*
X0070597Y0052300D02*
X0072600Y0055200D01*
X0071097Y0054758D02*
X0070097Y0054758D01*
X0070097Y0053760D02*
X0071097Y0053760D01*
X0070597Y0052300D02*
X0070500Y0052100D01*
X0070097Y0051763D02*
X0071097Y0051763D01*
X0071097Y0051800D02*
X0071097Y0047257D01*
X0073353Y0047257D01*
X0073735Y0047359D01*
X0074077Y0047556D01*
X0074356Y0047836D01*
X0074554Y0048178D01*
X0074656Y0048559D01*
X0074656Y0051800D01*
X0071097Y0051800D01*
X0071097Y0050764D02*
X0070097Y0050764D01*
X0070097Y0049766D02*
X0071097Y0049766D01*
X0071097Y0048767D02*
X0070097Y0048767D01*
X0070097Y0047769D02*
X0071097Y0047769D01*
X0074289Y0047769D02*
X0080300Y0047769D01*
X0080300Y0048767D02*
X0074656Y0048767D01*
X0074656Y0049766D02*
X0080300Y0049766D01*
X0080300Y0050764D02*
X0074656Y0050764D01*
X0074656Y0051763D02*
X0080300Y0051763D01*
X0080300Y0046770D02*
X0067600Y0046770D01*
X0067727Y0045772D02*
X0080300Y0045772D01*
X0080300Y0044773D02*
X0074410Y0044773D01*
X0074388Y0044796D02*
X0074046Y0044993D01*
X0073664Y0045095D01*
X0071408Y0045095D01*
X0071408Y0040552D01*
X0074967Y0040552D01*
X0074967Y0043793D01*
X0074865Y0044174D01*
X0074667Y0044516D01*
X0074388Y0044796D01*
X0074967Y0043775D02*
X0080300Y0043775D01*
X0080300Y0042776D02*
X0074967Y0042776D01*
X0074967Y0041778D02*
X0080300Y0041778D01*
X0080300Y0040779D02*
X0074967Y0040779D01*
X0074967Y0039552D02*
X0071408Y0039552D01*
X0071408Y0040552D01*
X0070408Y0040552D01*
X0070408Y0039552D01*
X0071408Y0039552D01*
X0071408Y0035009D01*
X0073664Y0035009D01*
X0074046Y0035111D01*
X0074388Y0035308D01*
X0074667Y0035588D01*
X0074865Y0035930D01*
X0074967Y0036311D01*
X0074967Y0039552D01*
X0074967Y0038782D02*
X0080300Y0038782D01*
X0080300Y0037784D02*
X0074967Y0037784D01*
X0074967Y0036785D02*
X0080362Y0036785D01*
X0081361Y0035787D02*
X0074782Y0035787D01*
X0071408Y0035787D02*
X0070408Y0035787D01*
X0070408Y0035009D02*
X0068151Y0035009D01*
X0067770Y0035111D01*
X0067428Y0035308D01*
X0067149Y0035588D01*
X0066951Y0035930D01*
X0066849Y0036311D01*
X0066849Y0039552D01*
X0070408Y0039552D01*
X0070408Y0035009D01*
X0070408Y0036785D02*
X0071408Y0036785D01*
X0071408Y0037784D02*
X0070408Y0037784D01*
X0070408Y0038782D02*
X0071408Y0038782D01*
X0071408Y0039781D02*
X0080300Y0039781D01*
X0082359Y0034788D02*
X0050696Y0034788D01*
X0052288Y0035787D02*
X0054393Y0035787D01*
X0048208Y0033790D02*
X0083358Y0033790D01*
X0084356Y0032791D02*
X0003169Y0032791D01*
X0003169Y0032706D02*
X0003169Y0160658D01*
X0172460Y0164595D01*
X0172429Y0164595D01*
X0172460Y0164595D02*
X0172460Y0156721D01*
X0225609Y0156721D01*
X0225609Y0038611D01*
X0172460Y0038611D01*
X0172460Y0030737D01*
X0003169Y0032706D01*
X0003169Y0033790D02*
X0036669Y0033790D01*
X0036601Y0033808D02*
X0036983Y0033706D01*
X0038320Y0033706D01*
X0038320Y0037526D01*
X0038600Y0037526D01*
X0038600Y0037806D01*
X0041239Y0037806D01*
X0041239Y0040324D01*
X0041137Y0040706D01*
X0040940Y0041048D01*
X0040660Y0041327D01*
X0040318Y0041525D01*
X0039937Y0041627D01*
X0038600Y0041627D01*
X0038600Y0037806D01*
X0038320Y0037806D01*
X0038320Y0037526D01*
X0035680Y0037526D01*
X0035680Y0035008D01*
X0035783Y0034627D01*
X0035980Y0034285D01*
X0036259Y0034005D01*
X0036601Y0033808D01*
X0035739Y0034788D02*
X0003169Y0034788D01*
X0003169Y0035787D02*
X0035680Y0035787D01*
X0035680Y0036785D02*
X0003169Y0036785D01*
X0003169Y0037784D02*
X0038320Y0037784D01*
X0038320Y0037806D02*
X0035680Y0037806D01*
X0035680Y0040324D01*
X0035783Y0040706D01*
X0035980Y0041048D01*
X0036259Y0041327D01*
X0036601Y0041525D01*
X0036983Y0041627D01*
X0038320Y0041627D01*
X0038320Y0037806D01*
X0038600Y0037784D02*
X0042961Y0037784D01*
X0042961Y0038782D02*
X0041239Y0038782D01*
X0041239Y0039781D02*
X0042961Y0039781D01*
X0042961Y0040779D02*
X0041095Y0040779D01*
X0040212Y0041778D02*
X0003169Y0041778D01*
X0003169Y0042776D02*
X0039220Y0042776D01*
X0039220Y0043775D02*
X0026687Y0043775D01*
X0027229Y0043999D02*
X0025685Y0043360D01*
X0024014Y0043360D01*
X0022470Y0043999D01*
X0021289Y0045181D01*
X0020650Y0046724D01*
X0020650Y0048395D01*
X0021289Y0049939D01*
X0022470Y0051121D01*
X0024014Y0051760D01*
X0025685Y0051760D01*
X0025784Y0051719D01*
X0030424Y0056360D01*
X0030424Y0060033D01*
X0031578Y0061187D01*
X0036270Y0061187D01*
X0037424Y0060033D01*
X0037424Y0053441D01*
X0036270Y0052287D01*
X0033423Y0052287D01*
X0029050Y0047914D01*
X0029050Y0046724D01*
X0028410Y0045181D01*
X0027229Y0043999D01*
X0028003Y0044773D02*
X0039220Y0044773D01*
X0039220Y0045772D02*
X0028655Y0045772D01*
X0029050Y0046770D02*
X0039220Y0046770D01*
X0039220Y0047769D02*
X0029050Y0047769D01*
X0029903Y0048767D02*
X0039220Y0048767D01*
X0039700Y0049766D02*
X0030901Y0049766D01*
X0031900Y0050764D02*
X0039700Y0050764D01*
X0039700Y0051763D02*
X0032898Y0051763D01*
X0036745Y0052761D02*
X0039700Y0052761D01*
X0040124Y0053760D02*
X0037424Y0053760D01*
X0037424Y0054758D02*
X0041123Y0054758D01*
X0042121Y0055757D02*
X0037424Y0055757D01*
X0037424Y0056755D02*
X0043120Y0056755D01*
X0045259Y0057754D02*
X0037424Y0057754D01*
X0037424Y0058752D02*
X0045259Y0058752D01*
X0045259Y0059751D02*
X0037424Y0059751D01*
X0036708Y0060749D02*
X0045975Y0060749D01*
X0051543Y0060749D02*
X0062161Y0060749D01*
X0061800Y0059751D02*
X0052259Y0059751D01*
X0052259Y0058752D02*
X0061800Y0058752D01*
X0061800Y0057754D02*
X0052259Y0057754D01*
X0059524Y0064744D02*
X0038476Y0064744D01*
X0039394Y0065742D02*
X0058841Y0065742D01*
X0058500Y0066741D02*
X0039807Y0066741D01*
X0039900Y0067739D02*
X0058500Y0067739D01*
X0058791Y0068738D02*
X0040490Y0068738D01*
X0041489Y0069736D02*
X0059403Y0069736D01*
X0057668Y0070735D02*
X0042487Y0070735D01*
X0038977Y0073730D02*
X0018817Y0073730D01*
X0018924Y0073623D02*
X0016537Y0076010D01*
X0013162Y0076010D01*
X0010775Y0073623D01*
X0010775Y0070247D01*
X0013162Y0067860D01*
X0016537Y0067860D01*
X0018924Y0070247D01*
X0018924Y0073623D01*
X0018924Y0072732D02*
X0037979Y0072732D01*
X0036980Y0071733D02*
X0018924Y0071733D01*
X0018924Y0070735D02*
X0022401Y0070735D01*
X0022300Y0070667D02*
X0021743Y0070110D01*
X0021305Y0069455D01*
X0021003Y0068727D01*
X0020850Y0067954D01*
X0020850Y0067847D01*
X0024562Y0067847D01*
X0024562Y0067273D01*
X0020850Y0067273D01*
X0020850Y0067166D01*
X0021003Y0066393D01*
X0021305Y0065665D01*
X0021743Y0065010D01*
X0022300Y0064453D01*
X0022955Y0064015D01*
X0023683Y0063714D01*
X0024456Y0063560D01*
X0024562Y0063560D01*
X0024562Y0067272D01*
X0025137Y0067272D01*
X0025137Y0063560D01*
X0025244Y0063560D01*
X0026016Y0063714D01*
X0026744Y0064015D01*
X0027399Y0064453D01*
X0027957Y0065010D01*
X0028394Y0065665D01*
X0028696Y0066393D01*
X0028850Y0067166D01*
X0028850Y0067273D01*
X0025137Y0067273D01*
X0025137Y0067847D01*
X0028850Y0067847D01*
X0028850Y0067954D01*
X0028696Y0068727D01*
X0028394Y0069455D01*
X0027957Y0070110D01*
X0027399Y0070667D01*
X0026744Y0071105D01*
X0026016Y0071406D01*
X0025244Y0071560D01*
X0025137Y0071560D01*
X0025137Y0067847D01*
X0024562Y0067847D01*
X0024562Y0071560D01*
X0024456Y0071560D01*
X0023683Y0071406D01*
X0022955Y0071105D01*
X0022300Y0070667D01*
X0021493Y0069736D02*
X0018413Y0069736D01*
X0017415Y0068738D02*
X0021008Y0068738D01*
X0020934Y0066741D02*
X0015732Y0066741D01*
X0015685Y0066760D02*
X0014014Y0066760D01*
X0012470Y0066121D01*
X0011289Y0064939D01*
X0010650Y0063395D01*
X0010650Y0061724D01*
X0011289Y0060181D01*
X0012470Y0058999D01*
X0014014Y0058360D01*
X0015685Y0058360D01*
X0017229Y0058999D01*
X0018410Y0060181D01*
X0019050Y0061724D01*
X0019050Y0063395D01*
X0018410Y0064939D01*
X0017229Y0066121D01*
X0015685Y0066760D01*
X0013967Y0066741D02*
X0003169Y0066741D01*
X0003169Y0067739D02*
X0024562Y0067739D01*
X0024850Y0067560D02*
X0024300Y0067500D01*
X0024562Y0066741D02*
X0025137Y0066741D01*
X0025137Y0067739D02*
X0032500Y0067739D01*
X0032593Y0066741D02*
X0028765Y0066741D01*
X0028426Y0065742D02*
X0033006Y0065742D01*
X0033924Y0064744D02*
X0027690Y0064744D01*
X0026092Y0063745D02*
X0061114Y0063745D01*
X0063286Y0063745D02*
X0065300Y0063745D01*
X0065504Y0064744D02*
X0064876Y0064744D01*
X0064192Y0062747D02*
X0019050Y0062747D01*
X0019050Y0061748D02*
X0023985Y0061748D01*
X0024014Y0061760D02*
X0022470Y0061121D01*
X0021289Y0059939D01*
X0020650Y0058395D01*
X0020650Y0056724D01*
X0021289Y0055181D01*
X0022470Y0053999D01*
X0024014Y0053360D01*
X0025685Y0053360D01*
X0027229Y0053999D01*
X0028410Y0055181D01*
X0029050Y0056724D01*
X0029050Y0058395D01*
X0028410Y0059939D01*
X0027229Y0061121D01*
X0025685Y0061760D01*
X0024014Y0061760D01*
X0025714Y0061748D02*
X0063047Y0061748D01*
X0069763Y0064300D02*
X0070500Y0065300D01*
X0073327Y0059751D02*
X0074505Y0059751D01*
X0077137Y0059751D02*
X0078137Y0059751D01*
X0078137Y0060749D02*
X0077137Y0060749D01*
X0077137Y0061748D02*
X0078137Y0061748D01*
X0078137Y0062747D02*
X0077137Y0062747D01*
X0077137Y0063745D02*
X0078137Y0063745D01*
X0071097Y0056755D02*
X0070097Y0056755D01*
X0070097Y0055757D02*
X0071097Y0055757D01*
X0071408Y0044773D02*
X0070408Y0044773D01*
X0070408Y0043775D02*
X0071408Y0043775D01*
X0071408Y0042776D02*
X0070408Y0042776D01*
X0070408Y0041778D02*
X0071408Y0041778D01*
X0071408Y0040779D02*
X0070408Y0040779D01*
X0070500Y0041100D02*
X0070908Y0040052D01*
X0070408Y0039781D02*
X0062893Y0039781D01*
X0062893Y0038782D02*
X0066849Y0038782D01*
X0066849Y0037784D02*
X0062893Y0037784D01*
X0062893Y0036785D02*
X0066849Y0036785D01*
X0067034Y0035787D02*
X0062875Y0035787D01*
X0064093Y0040779D02*
X0066849Y0040779D01*
X0066849Y0041778D02*
X0066593Y0041778D01*
X0081683Y0031793D02*
X0172460Y0031793D01*
X0172460Y0032791D02*
X0166655Y0032791D01*
X0167563Y0033790D02*
X0172460Y0033790D01*
X0172460Y0034788D02*
X0168472Y0034788D01*
X0169381Y0035787D02*
X0172460Y0035787D01*
X0172460Y0036785D02*
X0170290Y0036785D01*
X0171199Y0037784D02*
X0172460Y0037784D01*
X0172108Y0038782D02*
X0225609Y0038782D01*
X0225609Y0039781D02*
X0173017Y0039781D01*
X0172460Y0030794D02*
X0167555Y0030794D01*
X0153673Y0043775D02*
X0152589Y0043775D01*
X0150039Y0040779D02*
X0149857Y0040779D01*
X0149857Y0039781D02*
X0150039Y0039781D01*
X0150039Y0038782D02*
X0149857Y0038782D01*
X0156400Y0048767D02*
X0161905Y0048767D01*
X0161949Y0049766D02*
X0156387Y0049766D01*
X0155388Y0050764D02*
X0158680Y0050764D01*
X0157682Y0051763D02*
X0154390Y0051763D01*
X0153482Y0052761D02*
X0157669Y0052761D01*
X0157669Y0053760D02*
X0152887Y0053760D01*
X0153214Y0054758D02*
X0157669Y0054758D01*
X0158117Y0055757D02*
X0153628Y0055757D01*
X0153629Y0056755D02*
X0157768Y0056755D01*
X0157768Y0057754D02*
X0153410Y0057754D01*
X0152894Y0058752D02*
X0157768Y0058752D01*
X0157060Y0059751D02*
X0153211Y0059751D01*
X0153624Y0060749D02*
X0155715Y0060749D01*
X0154717Y0061748D02*
X0153629Y0061748D01*
X0153718Y0062747D02*
X0153413Y0062747D01*
X0157794Y0065742D02*
X0157968Y0065742D01*
X0157968Y0065568D02*
X0155626Y0067909D01*
X0154923Y0068612D01*
X0154004Y0068993D01*
X0152654Y0068993D01*
X0151473Y0070174D01*
X0148423Y0070174D01*
X0147042Y0068793D01*
X0138360Y0068793D01*
X0129153Y0078000D01*
X0116053Y0078000D01*
X0108701Y0085352D01*
X0111712Y0085352D01*
X0116284Y0080781D01*
X0117203Y0080400D01*
X0136858Y0080400D01*
X0136858Y0079206D01*
X0137335Y0078729D01*
X0136858Y0078252D01*
X0136858Y0071726D01*
X0137854Y0070730D01*
X0145168Y0070730D01*
X0146164Y0071726D01*
X0146164Y0072089D01*
X0146752Y0072089D01*
X0146752Y0071810D01*
X0147748Y0070814D01*
X0156243Y0070814D01*
X0157239Y0071810D01*
X0157239Y0072173D01*
X0157768Y0072173D01*
X0157768Y0069098D01*
X0158398Y0068467D01*
X0158117Y0067980D01*
X0157968Y0067423D01*
X0157968Y0066635D01*
X0162428Y0066635D01*
X0162428Y0066257D01*
X0157968Y0066257D01*
X0157968Y0065568D01*
X0157968Y0066741D02*
X0156795Y0066741D01*
X0155797Y0067739D02*
X0158052Y0067739D01*
X0158128Y0068738D02*
X0154621Y0068738D01*
X0151911Y0069736D02*
X0157768Y0069736D01*
X0157768Y0070735D02*
X0145173Y0070735D01*
X0146164Y0071733D02*
X0146829Y0071733D01*
X0147985Y0069736D02*
X0137417Y0069736D01*
X0137850Y0070735D02*
X0136418Y0070735D01*
X0136858Y0071733D02*
X0135420Y0071733D01*
X0134421Y0072732D02*
X0136858Y0072732D01*
X0136858Y0073730D02*
X0133423Y0073730D01*
X0132424Y0074729D02*
X0136858Y0074729D01*
X0136858Y0075727D02*
X0131426Y0075727D01*
X0130427Y0076726D02*
X0136858Y0076726D01*
X0136858Y0077724D02*
X0129429Y0077724D01*
X0136858Y0079721D02*
X0114332Y0079721D01*
X0115330Y0078723D02*
X0137329Y0078723D01*
X0145693Y0078723D02*
X0147139Y0078723D01*
X0151495Y0083715D02*
X0152495Y0083715D01*
X0152495Y0084714D02*
X0151495Y0084714D01*
X0151495Y0085712D02*
X0152495Y0085712D01*
X0152495Y0086711D02*
X0151495Y0086711D01*
X0151495Y0088708D02*
X0152495Y0088708D01*
X0152495Y0089706D02*
X0151495Y0089706D01*
X0151495Y0090705D02*
X0152495Y0090705D01*
X0156809Y0090705D02*
X0158695Y0090705D01*
X0157768Y0089706D02*
X0157039Y0089706D01*
X0157039Y0088708D02*
X0157768Y0088708D01*
X0162617Y0083769D02*
X0163400Y0083400D01*
X0165700Y0083400D01*
X0167467Y0086711D02*
X0225609Y0086711D01*
X0225609Y0087709D02*
X0167467Y0087709D01*
X0167467Y0088708D02*
X0204269Y0088708D01*
X0203333Y0089706D02*
X0167467Y0089706D01*
X0166540Y0090705D02*
X0202920Y0090705D01*
X0208367Y0088708D02*
X0225609Y0088708D01*
X0225609Y0089706D02*
X0209303Y0089706D01*
X0209717Y0090705D02*
X0225609Y0090705D01*
X0225609Y0091703D02*
X0209787Y0091703D01*
X0209601Y0092702D02*
X0225609Y0092702D01*
X0225609Y0093700D02*
X0209087Y0093700D01*
X0207813Y0094699D02*
X0225609Y0094699D01*
X0225609Y0085712D02*
X0186909Y0085712D01*
X0188322Y0084714D02*
X0225609Y0084714D01*
X0225609Y0083715D02*
X0189320Y0083715D01*
X0190319Y0082717D02*
X0225609Y0082717D01*
X0225609Y0081718D02*
X0191317Y0081718D01*
X0192316Y0080720D02*
X0225609Y0080720D01*
X0225609Y0079721D02*
X0193314Y0079721D01*
X0194313Y0078723D02*
X0225609Y0078723D01*
X0225609Y0077724D02*
X0195311Y0077724D01*
X0196310Y0076726D02*
X0225609Y0076726D01*
X0225609Y0075727D02*
X0197308Y0075727D01*
X0198021Y0074729D02*
X0225609Y0074729D01*
X0225609Y0073730D02*
X0198200Y0073730D01*
X0198200Y0072732D02*
X0225609Y0072732D01*
X0225609Y0071733D02*
X0198200Y0071733D01*
X0198200Y0070735D02*
X0225609Y0070735D01*
X0225609Y0069736D02*
X0198200Y0069736D01*
X0198200Y0068738D02*
X0225609Y0068738D01*
X0225609Y0067739D02*
X0198200Y0067739D01*
X0198200Y0066741D02*
X0225609Y0066741D01*
X0225609Y0065742D02*
X0198200Y0065742D01*
X0198200Y0064744D02*
X0225609Y0064744D01*
X0225609Y0063745D02*
X0198200Y0063745D01*
X0198200Y0062747D02*
X0204013Y0062747D01*
X0204353Y0063087D02*
X0203378Y0062111D01*
X0202850Y0060836D01*
X0202850Y0059457D01*
X0203378Y0058182D01*
X0204353Y0057206D01*
X0205628Y0056678D01*
X0207008Y0056678D01*
X0208283Y0057206D01*
X0209259Y0058182D01*
X0209787Y0059457D01*
X0209787Y0060836D01*
X0209259Y0062111D01*
X0208283Y0063087D01*
X0207008Y0063615D01*
X0205628Y0063615D01*
X0204353Y0063087D01*
X0203227Y0061748D02*
X0198200Y0061748D01*
X0198200Y0060749D02*
X0202850Y0060749D01*
X0202850Y0059751D02*
X0198200Y0059751D01*
X0198200Y0058752D02*
X0203141Y0058752D01*
X0203806Y0057754D02*
X0198200Y0057754D01*
X0198200Y0056755D02*
X0205441Y0056755D01*
X0207195Y0056755D02*
X0225609Y0056755D01*
X0225609Y0055757D02*
X0198200Y0055757D01*
X0198200Y0054758D02*
X0225609Y0054758D01*
X0225609Y0053760D02*
X0198200Y0053760D01*
X0198200Y0052761D02*
X0225609Y0052761D01*
X0225609Y0051763D02*
X0208084Y0051763D01*
X0208072Y0051768D02*
X0209131Y0051329D01*
X0209942Y0050519D01*
X0210380Y0049460D01*
X0210380Y0045951D01*
X0209942Y0044892D01*
X0209131Y0044082D01*
X0208072Y0043643D01*
X0200627Y0043643D01*
X0199568Y0044082D01*
X0198758Y0044892D01*
X0198319Y0045951D01*
X0198319Y0049460D01*
X0198758Y0050519D01*
X0199568Y0051329D01*
X0200627Y0051768D01*
X0208072Y0051768D01*
X0209696Y0050764D02*
X0225609Y0050764D01*
X0225609Y0049766D02*
X0210254Y0049766D01*
X0210380Y0048767D02*
X0225609Y0048767D01*
X0225609Y0047769D02*
X0210380Y0047769D01*
X0210380Y0046770D02*
X0225609Y0046770D01*
X0225609Y0045772D02*
X0210306Y0045772D01*
X0209822Y0044773D02*
X0225609Y0044773D01*
X0225609Y0043775D02*
X0208389Y0043775D01*
X0200310Y0043775D02*
X0198188Y0043775D01*
X0198200Y0044773D02*
X0198877Y0044773D01*
X0198393Y0045772D02*
X0198200Y0045772D01*
X0198200Y0046770D02*
X0198319Y0046770D01*
X0198319Y0047769D02*
X0198200Y0047769D01*
X0198200Y0048767D02*
X0198319Y0048767D01*
X0198200Y0049766D02*
X0198446Y0049766D01*
X0198200Y0050764D02*
X0199003Y0050764D01*
X0198200Y0051763D02*
X0200615Y0051763D01*
X0208831Y0057754D02*
X0225609Y0057754D01*
X0225609Y0058752D02*
X0209495Y0058752D01*
X0209787Y0059751D02*
X0225609Y0059751D01*
X0225609Y0060749D02*
X0209787Y0060749D01*
X0209409Y0061748D02*
X0225609Y0061748D01*
X0225609Y0062747D02*
X0208623Y0062747D01*
X0187200Y0061748D02*
X0175518Y0061748D01*
X0176739Y0060749D02*
X0187200Y0060749D01*
X0187200Y0059751D02*
X0177300Y0059751D01*
X0177581Y0058752D02*
X0187200Y0058752D01*
X0187200Y0057754D02*
X0177581Y0057754D01*
X0177261Y0056755D02*
X0187200Y0056755D01*
X0187200Y0055757D02*
X0176646Y0055757D01*
X0175291Y0054758D02*
X0187200Y0054758D01*
X0187200Y0053760D02*
X0172695Y0053760D01*
X0168400Y0049500D02*
X0166200Y0048800D01*
X0166161Y0048099D01*
X0165661Y0048767D02*
X0166661Y0048767D01*
X0166661Y0049766D02*
X0165661Y0049766D01*
X0166358Y0050764D02*
X0166661Y0050764D01*
X0149948Y0051493D02*
X0149200Y0051600D01*
X0162617Y0066446D02*
X0162900Y0066400D01*
X0165100Y0066400D01*
X0167182Y0067739D02*
X0168528Y0067739D01*
X0157768Y0071733D02*
X0157162Y0071733D01*
X0126600Y0096100D02*
X0125767Y0096300D01*
X0119681Y0098693D02*
X0115909Y0098693D01*
X0115909Y0099691D02*
X0118775Y0099691D01*
X0110681Y0107680D02*
X0140479Y0107680D01*
X0136330Y0108678D02*
X0111679Y0108678D01*
X0114675Y0111674D02*
X0123808Y0111674D01*
X0127725Y0111674D02*
X0136905Y0111674D01*
X0136130Y0112672D02*
X0133933Y0112672D01*
X0145629Y0106681D02*
X0159343Y0106681D01*
X0159495Y0105682D02*
X0145629Y0105682D01*
X0145471Y0104684D02*
X0160046Y0104684D01*
X0161564Y0103685D02*
X0145673Y0103685D01*
X0115346Y0081718D02*
X0112335Y0081718D01*
X0113333Y0080720D02*
X0116431Y0080720D01*
X0114348Y0082717D02*
X0111336Y0082717D01*
X0110338Y0083715D02*
X0113349Y0083715D01*
X0112351Y0084714D02*
X0109339Y0084714D01*
X0112200Y0088400D02*
X0111259Y0089611D01*
X0110100Y0089500D01*
X0099100Y0085100D02*
X0098424Y0085139D01*
X0098424Y0081989D02*
X0099100Y0081800D01*
X0090510Y0079555D02*
X0081688Y0079555D01*
X0082337Y0080204D01*
X0082900Y0081564D01*
X0082900Y0083036D01*
X0082337Y0084396D01*
X0081500Y0085233D01*
X0081500Y0085253D01*
X0080153Y0086600D01*
X0078153Y0088600D01*
X0070247Y0088600D01*
X0068900Y0087253D01*
X0063841Y0082194D01*
X0063841Y0079555D01*
X0061000Y0079555D01*
X0061000Y0084253D01*
X0059653Y0085600D01*
X0057814Y0087439D01*
X0057408Y0087439D01*
X0057408Y0096276D01*
X0057191Y0096493D01*
X0057208Y0096555D01*
X0057208Y0097737D01*
X0052755Y0097737D01*
X0048302Y0097737D01*
X0052755Y0097737D01*
X0052755Y0097737D01*
X0052755Y0097737D01*
X0057208Y0097737D01*
X0057208Y0098400D01*
X0057319Y0098400D01*
X0057334Y0098394D01*
X0057816Y0098400D01*
X0058297Y0098400D01*
X0058312Y0098406D01*
X0058329Y0098407D01*
X0058771Y0098596D01*
X0059216Y0098781D01*
X0059228Y0098792D01*
X0059243Y0098799D01*
X0059579Y0099143D01*
X0059919Y0099484D01*
X0059926Y0099499D01*
X0061584Y0101200D01*
X0062436Y0101200D01*
X0063796Y0101763D01*
X0064837Y0102804D01*
X0065014Y0103233D01*
X0082900Y0085347D01*
X0084247Y0084000D01*
X0084767Y0084000D01*
X0085604Y0083163D01*
X0086964Y0082600D01*
X0088436Y0082600D01*
X0089796Y0083163D01*
X0090200Y0083568D01*
X0090200Y0080303D01*
X0090510Y0079555D01*
X0090441Y0079721D02*
X0081854Y0079721D01*
X0082550Y0080720D02*
X0090200Y0080720D01*
X0090200Y0081718D02*
X0082900Y0081718D01*
X0082900Y0082717D02*
X0086682Y0082717D01*
X0085052Y0083715D02*
X0082619Y0083715D01*
X0082019Y0084714D02*
X0083534Y0084714D01*
X0082535Y0085712D02*
X0081041Y0085712D01*
X0081537Y0086711D02*
X0080042Y0086711D01*
X0080538Y0087709D02*
X0079043Y0087709D01*
X0079540Y0088708D02*
X0057408Y0088708D01*
X0057408Y0089706D02*
X0078541Y0089706D01*
X0077543Y0090705D02*
X0057408Y0090705D01*
X0057408Y0091703D02*
X0076544Y0091703D01*
X0075546Y0092702D02*
X0057408Y0092702D01*
X0057408Y0093700D02*
X0074547Y0093700D01*
X0073549Y0094699D02*
X0057408Y0094699D01*
X0057408Y0095697D02*
X0072550Y0095697D01*
X0071552Y0096696D02*
X0057208Y0096696D01*
X0057208Y0097694D02*
X0070553Y0097694D01*
X0069554Y0098693D02*
X0059004Y0098693D01*
X0060113Y0099691D02*
X0068556Y0099691D01*
X0067557Y0100690D02*
X0061087Y0100690D01*
X0063615Y0101688D02*
X0066559Y0101688D01*
X0065560Y0102687D02*
X0064719Y0102687D01*
X0057998Y0104684D02*
X0057408Y0104684D01*
X0057408Y0105682D02*
X0058019Y0105682D01*
X0058433Y0106681D02*
X0057408Y0106681D01*
X0057408Y0107680D02*
X0059247Y0107680D01*
X0057408Y0108678D02*
X0063887Y0108678D01*
X0063883Y0109677D02*
X0057408Y0109677D01*
X0057408Y0110675D02*
X0063879Y0110675D01*
X0063875Y0111674D02*
X0057408Y0111674D01*
X0057408Y0112672D02*
X0063871Y0112672D01*
X0063868Y0113671D02*
X0057408Y0113671D01*
X0057408Y0114669D02*
X0063864Y0114669D01*
X0063860Y0115668D02*
X0056914Y0115668D01*
X0057406Y0116666D02*
X0003169Y0116666D01*
X0003169Y0115668D02*
X0048596Y0115668D01*
X0048102Y0114669D02*
X0003169Y0114669D01*
X0003169Y0113671D02*
X0048102Y0113671D01*
X0048102Y0112672D02*
X0003169Y0112672D01*
X0003169Y0111674D02*
X0048102Y0111674D01*
X0048102Y0110675D02*
X0003169Y0110675D01*
X0003169Y0109677D02*
X0048102Y0109677D01*
X0048102Y0108678D02*
X0003169Y0108678D01*
X0003169Y0107680D02*
X0037030Y0107680D01*
X0036350Y0106681D02*
X0003169Y0106681D01*
X0003169Y0105682D02*
X0036350Y0105682D01*
X0036350Y0104684D02*
X0003169Y0104684D01*
X0003169Y0103685D02*
X0036350Y0103685D01*
X0036350Y0102687D02*
X0003169Y0102687D01*
X0003169Y0101688D02*
X0036350Y0101688D01*
X0036350Y0100690D02*
X0003169Y0100690D01*
X0003169Y0099691D02*
X0037133Y0099691D01*
X0036570Y0098693D02*
X0003169Y0098693D01*
X0003169Y0097694D02*
X0031926Y0097694D01*
X0030563Y0096696D02*
X0003169Y0096696D01*
X0003169Y0095697D02*
X0029974Y0095697D01*
X0029700Y0094699D02*
X0003169Y0094699D01*
X0003169Y0093700D02*
X0029700Y0093700D01*
X0030057Y0092702D02*
X0003169Y0092702D01*
X0003169Y0091703D02*
X0030764Y0091703D01*
X0031100Y0090705D02*
X0003169Y0090705D01*
X0003169Y0089706D02*
X0031100Y0089706D01*
X0031100Y0088708D02*
X0003169Y0088708D01*
X0003169Y0087709D02*
X0031100Y0087709D01*
X0031100Y0086711D02*
X0003169Y0086711D01*
X0003169Y0085712D02*
X0031100Y0085712D01*
X0031100Y0084714D02*
X0003169Y0084714D01*
X0003169Y0083715D02*
X0032032Y0083715D01*
X0033031Y0082717D02*
X0003169Y0082717D01*
X0003169Y0081718D02*
X0034029Y0081718D01*
X0035028Y0080720D02*
X0003169Y0080720D01*
X0003169Y0079721D02*
X0036026Y0079721D01*
X0040974Y0075727D02*
X0016820Y0075727D01*
X0017819Y0074729D02*
X0039976Y0074729D01*
X0034002Y0070735D02*
X0027298Y0070735D01*
X0028206Y0069736D02*
X0033038Y0069736D01*
X0032625Y0068738D02*
X0028691Y0068738D01*
X0025137Y0068738D02*
X0024562Y0068738D01*
X0024562Y0069736D02*
X0025137Y0069736D01*
X0025137Y0070735D02*
X0024562Y0070735D01*
X0024562Y0065742D02*
X0025137Y0065742D01*
X0025137Y0064744D02*
X0024562Y0064744D01*
X0024562Y0063745D02*
X0025137Y0063745D01*
X0023607Y0063745D02*
X0018905Y0063745D01*
X0018491Y0064744D02*
X0022009Y0064744D01*
X0021273Y0065742D02*
X0017607Y0065742D01*
X0012285Y0068738D02*
X0003169Y0068738D01*
X0003169Y0069736D02*
X0011286Y0069736D01*
X0010775Y0070735D02*
X0003169Y0070735D01*
X0003169Y0071733D02*
X0010775Y0071733D01*
X0010775Y0072732D02*
X0003169Y0072732D01*
X0003169Y0073730D02*
X0010882Y0073730D01*
X0011880Y0074729D02*
X0003169Y0074729D01*
X0003169Y0075727D02*
X0012879Y0075727D01*
X0003169Y0076726D02*
X0051873Y0076726D01*
X0052871Y0077724D02*
X0003169Y0077724D01*
X0003169Y0078723D02*
X0053870Y0078723D01*
X0056381Y0074729D02*
X0057157Y0074729D01*
X0057157Y0073730D02*
X0055383Y0073730D01*
X0054384Y0072732D02*
X0057157Y0072732D01*
X0057157Y0071733D02*
X0053386Y0071733D01*
X0061000Y0079721D02*
X0063841Y0079721D01*
X0063841Y0080720D02*
X0061000Y0080720D01*
X0061000Y0081718D02*
X0063841Y0081718D01*
X0064364Y0082717D02*
X0061000Y0082717D01*
X0061000Y0083715D02*
X0065362Y0083715D01*
X0066361Y0084714D02*
X0060539Y0084714D01*
X0059541Y0085712D02*
X0067359Y0085712D01*
X0068358Y0086711D02*
X0058542Y0086711D01*
X0057408Y0087709D02*
X0069357Y0087709D01*
X0085200Y0092300D02*
X0069300Y0108200D01*
X0069300Y0117900D01*
X0069400Y0119000D01*
X0069400Y0120300D01*
X0069291Y0120572D01*
X0072440Y0120572D02*
X0072440Y0125024D01*
X0072440Y0120572D01*
X0072440Y0120572D01*
X0072400Y0121100D01*
X0072440Y0120660D02*
X0072440Y0120660D01*
X0072440Y0120572D02*
X0072440Y0116119D01*
X0071500Y0116119D01*
X0071500Y0109111D01*
X0084611Y0096000D01*
X0085936Y0096000D01*
X0087296Y0095437D01*
X0088337Y0094396D01*
X0088900Y0093036D01*
X0088900Y0091564D01*
X0088337Y0090204D01*
X0088133Y0090000D01*
X0088436Y0090000D01*
X0089796Y0089437D01*
X0090799Y0088434D01*
X0091284Y0088919D01*
X0092772Y0090408D01*
X0093691Y0090788D01*
X0093772Y0090788D01*
X0093772Y0092000D01*
X0093503Y0092000D01*
X0092584Y0092381D01*
X0091881Y0093084D01*
X0083623Y0101341D01*
X0082604Y0101763D01*
X0081563Y0102804D01*
X0081000Y0104164D01*
X0081000Y0105165D01*
X0073581Y0112584D01*
X0073200Y0113503D01*
X0073200Y0116119D01*
X0072440Y0116119D01*
X0072440Y0120572D01*
X0072440Y0120572D01*
X0072440Y0119662D02*
X0072440Y0119662D01*
X0072440Y0118663D02*
X0072440Y0118663D01*
X0072440Y0117665D02*
X0072440Y0117665D01*
X0072440Y0116666D02*
X0072440Y0116666D01*
X0073200Y0115668D02*
X0071500Y0115668D01*
X0071500Y0114669D02*
X0073200Y0114669D01*
X0073200Y0113671D02*
X0071500Y0113671D01*
X0071500Y0112672D02*
X0073544Y0112672D01*
X0074491Y0111674D02*
X0071500Y0111674D01*
X0071500Y0110675D02*
X0075490Y0110675D01*
X0076488Y0109677D02*
X0071500Y0109677D01*
X0071933Y0108678D02*
X0077487Y0108678D01*
X0078485Y0107680D02*
X0072932Y0107680D01*
X0073930Y0106681D02*
X0079484Y0106681D01*
X0080482Y0105682D02*
X0074929Y0105682D01*
X0075927Y0104684D02*
X0081000Y0104684D01*
X0081198Y0103685D02*
X0076926Y0103685D01*
X0077924Y0102687D02*
X0081681Y0102687D01*
X0082785Y0101688D02*
X0078923Y0101688D01*
X0079921Y0100690D02*
X0084275Y0100690D01*
X0085273Y0099691D02*
X0080920Y0099691D01*
X0081918Y0098693D02*
X0086272Y0098693D01*
X0087270Y0097694D02*
X0082917Y0097694D01*
X0083915Y0096696D02*
X0088269Y0096696D01*
X0089267Y0095697D02*
X0086667Y0095697D01*
X0088034Y0094699D02*
X0090266Y0094699D01*
X0091264Y0093700D02*
X0088625Y0093700D01*
X0088900Y0092702D02*
X0092263Y0092702D01*
X0093772Y0091703D02*
X0088900Y0091703D01*
X0088544Y0090705D02*
X0093489Y0090705D01*
X0092071Y0089706D02*
X0089145Y0089706D01*
X0090525Y0088708D02*
X0091072Y0088708D01*
X0090200Y0082717D02*
X0088718Y0082717D01*
X0091338Y0074902D02*
X0091400Y0074100D01*
X0052900Y0100900D02*
X0052755Y0100887D01*
X0051300Y0101000D01*
X0048102Y0103685D02*
X0046050Y0103685D01*
X0046050Y0104684D02*
X0048102Y0104684D01*
X0048102Y0105682D02*
X0046050Y0105682D01*
X0046050Y0106681D02*
X0048102Y0106681D01*
X0048102Y0107680D02*
X0045370Y0107680D01*
X0041200Y0103737D02*
X0041900Y0102700D01*
X0045850Y0097694D02*
X0048302Y0097694D01*
X0048302Y0096696D02*
X0045850Y0096696D01*
X0045850Y0094699D02*
X0048102Y0094699D01*
X0048102Y0095697D02*
X0041700Y0095697D01*
X0041200Y0095863D02*
X0040800Y0096100D01*
X0040700Y0095697D02*
X0036826Y0095697D01*
X0036550Y0096696D02*
X0036237Y0096696D01*
X0036550Y0097694D02*
X0034874Y0097694D01*
X0040700Y0094699D02*
X0041700Y0094699D01*
X0041700Y0093700D02*
X0040700Y0093700D01*
X0040700Y0092702D02*
X0041700Y0092702D01*
X0045734Y0092702D02*
X0048102Y0092702D01*
X0048102Y0093700D02*
X0045850Y0093700D01*
X0048102Y0091703D02*
X0036036Y0091703D01*
X0035700Y0090705D02*
X0048102Y0090705D01*
X0039795Y0089706D02*
X0035700Y0089706D01*
X0035700Y0088708D02*
X0036375Y0088708D01*
X0012092Y0065742D02*
X0003169Y0065742D01*
X0003169Y0064744D02*
X0011208Y0064744D01*
X0010794Y0063745D02*
X0003169Y0063745D01*
X0003169Y0062747D02*
X0010650Y0062747D01*
X0010650Y0061748D02*
X0003169Y0061748D01*
X0003169Y0060749D02*
X0011053Y0060749D01*
X0011719Y0059751D02*
X0003169Y0059751D01*
X0003169Y0058752D02*
X0013067Y0058752D01*
X0014003Y0056755D02*
X0003169Y0056755D01*
X0003169Y0055757D02*
X0012107Y0055757D01*
X0012470Y0056121D02*
X0011289Y0054939D01*
X0010650Y0053395D01*
X0010650Y0051724D01*
X0011289Y0050181D01*
X0012470Y0048999D01*
X0014014Y0048360D01*
X0015685Y0048360D01*
X0017229Y0048999D01*
X0018410Y0050181D01*
X0019050Y0051724D01*
X0019050Y0053395D01*
X0018410Y0054939D01*
X0017229Y0056121D01*
X0015685Y0056760D01*
X0014014Y0056760D01*
X0012470Y0056121D01*
X0011214Y0054758D02*
X0003169Y0054758D01*
X0003169Y0053760D02*
X0010801Y0053760D01*
X0010650Y0052761D02*
X0003169Y0052761D01*
X0003169Y0051763D02*
X0010650Y0051763D01*
X0011047Y0050764D02*
X0003169Y0050764D01*
X0003169Y0049766D02*
X0011704Y0049766D01*
X0013031Y0048767D02*
X0003169Y0048767D01*
X0003169Y0047769D02*
X0020650Y0047769D01*
X0020650Y0046770D02*
X0003169Y0046770D01*
X0003169Y0045772D02*
X0021044Y0045772D01*
X0021697Y0044773D02*
X0003169Y0044773D01*
X0003169Y0043775D02*
X0023013Y0043775D01*
X0024850Y0047560D02*
X0025300Y0047700D01*
X0022114Y0050764D02*
X0018652Y0050764D01*
X0019050Y0051763D02*
X0025827Y0051763D01*
X0026826Y0052761D02*
X0019050Y0052761D01*
X0018899Y0053760D02*
X0023049Y0053760D01*
X0021711Y0054758D02*
X0018485Y0054758D01*
X0017592Y0055757D02*
X0021050Y0055757D01*
X0020650Y0056755D02*
X0015696Y0056755D01*
X0016633Y0058752D02*
X0020798Y0058752D01*
X0020650Y0057754D02*
X0003169Y0057754D01*
X0017980Y0059751D02*
X0021211Y0059751D01*
X0022099Y0060749D02*
X0018646Y0060749D01*
X0027600Y0060749D02*
X0031141Y0060749D01*
X0030424Y0059751D02*
X0028488Y0059751D01*
X0028902Y0058752D02*
X0030424Y0058752D01*
X0030424Y0057754D02*
X0029050Y0057754D01*
X0029050Y0056755D02*
X0030424Y0056755D01*
X0029821Y0055757D02*
X0028649Y0055757D01*
X0028823Y0054758D02*
X0027988Y0054758D01*
X0027824Y0053760D02*
X0026651Y0053760D01*
X0021217Y0049766D02*
X0017995Y0049766D01*
X0016669Y0048767D02*
X0020804Y0048767D01*
X0033924Y0056737D02*
X0034100Y0056500D01*
X0035825Y0040779D02*
X0003169Y0040779D01*
X0003169Y0039781D02*
X0035680Y0039781D01*
X0035680Y0038782D02*
X0003169Y0038782D01*
X0038320Y0038782D02*
X0038600Y0038782D01*
X0038600Y0039781D02*
X0038320Y0039781D01*
X0038320Y0040779D02*
X0038600Y0040779D01*
X0038600Y0037526D02*
X0041239Y0037526D01*
X0041239Y0035008D01*
X0041137Y0034627D01*
X0040940Y0034285D01*
X0040660Y0034005D01*
X0040318Y0033808D01*
X0039937Y0033706D01*
X0038600Y0033706D01*
X0038600Y0037526D01*
X0038600Y0036785D02*
X0038320Y0036785D01*
X0038320Y0035787D02*
X0038600Y0035787D01*
X0038600Y0034788D02*
X0038320Y0034788D01*
X0038320Y0033790D02*
X0038600Y0033790D01*
X0040251Y0033790D02*
X0043672Y0033790D01*
X0042961Y0034788D02*
X0041180Y0034788D01*
X0041239Y0035787D02*
X0042961Y0035787D01*
X0042961Y0036785D02*
X0041239Y0036785D01*
X0084700Y0104900D02*
X0084800Y0104900D01*
X0081889Y0121659D02*
X0081889Y0121659D01*
X0075700Y0120600D02*
X0075590Y0120572D01*
X0072440Y0121659D02*
X0072440Y0121659D01*
X0072440Y0122657D02*
X0072440Y0122657D01*
X0072440Y0123656D02*
X0072440Y0123656D01*
X0072440Y0124654D02*
X0072440Y0124654D01*
X0068300Y0129100D02*
X0081100Y0129100D01*
X0100900Y0148900D01*
X0114500Y0148900D01*
X0118900Y0153300D01*
X0119310Y0153769D01*
X0113476Y0153611D02*
X0113333Y0153611D01*
X0113333Y0152613D02*
X0113476Y0152613D01*
X0113476Y0151614D02*
X0113333Y0151614D01*
X0113333Y0154610D02*
X0113476Y0154610D01*
X0113476Y0155608D02*
X0113333Y0155608D01*
X0113333Y0156607D02*
X0113476Y0156607D01*
X0113853Y0157605D02*
X0112957Y0157605D01*
X0102042Y0157605D02*
X0073587Y0157605D01*
X0074900Y0153769D02*
X0074900Y0133500D01*
X0072700Y0131300D01*
X0067200Y0131300D01*
X0059500Y0123600D01*
X0059500Y0121400D01*
X0059842Y0120572D01*
X0057157Y0120660D02*
X0003169Y0120660D01*
X0003169Y0119662D02*
X0057157Y0119662D01*
X0057157Y0118663D02*
X0003169Y0118663D01*
X0003169Y0117665D02*
X0057157Y0117665D01*
X0057157Y0121659D02*
X0003169Y0121659D01*
X0003169Y0122657D02*
X0057157Y0122657D01*
X0057157Y0123656D02*
X0003169Y0123656D01*
X0003169Y0124654D02*
X0057443Y0124654D01*
X0058441Y0125653D02*
X0003169Y0125653D01*
X0003169Y0126651D02*
X0059440Y0126651D01*
X0060438Y0127650D02*
X0003169Y0127650D01*
X0003169Y0128648D02*
X0061437Y0128648D01*
X0062435Y0129647D02*
X0003169Y0129647D01*
X0003169Y0130645D02*
X0063434Y0130645D01*
X0064432Y0131644D02*
X0003169Y0131644D01*
X0003169Y0132642D02*
X0011460Y0132642D01*
X0011416Y0132717D02*
X0011614Y0132375D01*
X0011893Y0132096D01*
X0012235Y0131898D01*
X0012617Y0131796D01*
X0016448Y0131796D01*
X0016448Y0135552D01*
X0017448Y0135552D01*
X0017448Y0131796D01*
X0021279Y0131796D01*
X0021661Y0131898D01*
X0022003Y0132096D01*
X0022282Y0132375D01*
X0022480Y0132717D01*
X0022582Y0133099D01*
X0022582Y0135552D01*
X0017448Y0135552D01*
X0017448Y0136552D01*
X0022582Y0136552D01*
X0022582Y0139005D01*
X0022480Y0139387D01*
X0022282Y0139729D01*
X0022003Y0140008D01*
X0021661Y0140206D01*
X0021279Y0140308D01*
X0017448Y0140308D01*
X0017448Y0136552D01*
X0016448Y0136552D01*
X0016448Y0135552D01*
X0011314Y0135552D01*
X0011314Y0133099D01*
X0011416Y0132717D01*
X0011314Y0133641D02*
X0003169Y0133641D01*
X0003169Y0134639D02*
X0011314Y0134639D01*
X0011314Y0136552D02*
X0011314Y0139005D01*
X0011416Y0139387D01*
X0011614Y0139729D01*
X0011893Y0140008D01*
X0012235Y0140206D01*
X0012617Y0140308D01*
X0016448Y0140308D01*
X0016448Y0136552D01*
X0011314Y0136552D01*
X0011314Y0136636D02*
X0003169Y0136636D01*
X0003169Y0135638D02*
X0016448Y0135638D01*
X0016448Y0136636D02*
X0017448Y0136636D01*
X0017448Y0135638D02*
X0055818Y0135638D01*
X0055818Y0135552D02*
X0050684Y0135552D01*
X0050684Y0133099D01*
X0050786Y0132717D01*
X0050984Y0132375D01*
X0051263Y0132096D01*
X0051605Y0131898D01*
X0051987Y0131796D01*
X0055818Y0131796D01*
X0055818Y0135552D01*
X0055818Y0136552D01*
X0050684Y0136552D01*
X0050684Y0139005D01*
X0050786Y0139387D01*
X0050984Y0139729D01*
X0051263Y0140008D01*
X0051605Y0140206D01*
X0051987Y0140308D01*
X0055818Y0140308D01*
X0055818Y0136552D01*
X0056818Y0136552D01*
X0056818Y0140308D01*
X0060649Y0140308D01*
X0061031Y0140206D01*
X0061373Y0140008D01*
X0061652Y0139729D01*
X0061850Y0139387D01*
X0061952Y0139005D01*
X0061952Y0136552D01*
X0056818Y0136552D01*
X0056818Y0135552D01*
X0056818Y0131796D01*
X0060649Y0131796D01*
X0061031Y0131898D01*
X0061373Y0132096D01*
X0061652Y0132375D01*
X0061850Y0132717D01*
X0061952Y0133099D01*
X0061952Y0135552D01*
X0056818Y0135552D01*
X0055818Y0135552D01*
X0055818Y0134639D02*
X0056818Y0134639D01*
X0056818Y0133641D02*
X0055818Y0133641D01*
X0055818Y0132642D02*
X0056818Y0132642D01*
X0056818Y0135638D02*
X0067629Y0135638D01*
X0067629Y0136552D02*
X0062495Y0136552D01*
X0062495Y0139005D01*
X0062598Y0139387D01*
X0062795Y0139729D01*
X0063074Y0140008D01*
X0063416Y0140206D01*
X0063798Y0140308D01*
X0067629Y0140308D01*
X0067629Y0136552D01*
X0067629Y0136636D02*
X0068629Y0136636D01*
X0068629Y0137635D02*
X0067629Y0137635D01*
X0067629Y0138633D02*
X0068629Y0138633D01*
X0068629Y0139632D02*
X0067629Y0139632D01*
X0062739Y0139632D02*
X0061708Y0139632D01*
X0061952Y0138633D02*
X0062495Y0138633D01*
X0062495Y0137635D02*
X0061952Y0137635D01*
X0061952Y0136636D02*
X0062495Y0136636D01*
X0062495Y0134639D02*
X0061952Y0134639D01*
X0061952Y0133641D02*
X0062495Y0133641D01*
X0062641Y0132642D02*
X0061806Y0132642D01*
X0056818Y0136636D02*
X0055818Y0136636D01*
X0055818Y0137635D02*
X0056818Y0137635D01*
X0056818Y0138633D02*
X0055818Y0138633D01*
X0055818Y0139632D02*
X0056818Y0139632D01*
X0056564Y0142100D02*
X0058036Y0142100D01*
X0059396Y0142663D01*
X0060437Y0143704D01*
X0061000Y0145064D01*
X0061000Y0146536D01*
X0060437Y0147896D01*
X0059600Y0148733D01*
X0059600Y0149313D01*
X0061156Y0149313D01*
X0062152Y0150309D01*
X0062152Y0157229D01*
X0061156Y0158224D01*
X0051480Y0158224D01*
X0050484Y0157229D01*
X0050484Y0156669D01*
X0022782Y0156669D01*
X0022782Y0157229D01*
X0021786Y0158224D01*
X0012110Y0158224D01*
X0011114Y0157229D01*
X0011114Y0150309D01*
X0012110Y0149313D01*
X0021786Y0149313D01*
X0022782Y0150309D01*
X0022782Y0150869D01*
X0050484Y0150869D01*
X0050484Y0150309D01*
X0051480Y0149313D01*
X0055000Y0149313D01*
X0055000Y0148733D01*
X0054163Y0147896D01*
X0053600Y0146536D01*
X0053600Y0145064D01*
X0054163Y0143704D01*
X0055204Y0142663D01*
X0056564Y0142100D01*
X0055291Y0142627D02*
X0003169Y0142627D01*
X0003169Y0141629D02*
X0072700Y0141629D01*
X0072700Y0142627D02*
X0059309Y0142627D01*
X0060358Y0143626D02*
X0072700Y0143626D01*
X0072700Y0144624D02*
X0060818Y0144624D01*
X0061000Y0145623D02*
X0072700Y0145623D01*
X0072700Y0146621D02*
X0060965Y0146621D01*
X0060551Y0147620D02*
X0072700Y0147620D01*
X0072700Y0148618D02*
X0059714Y0148618D01*
X0061460Y0149617D02*
X0062987Y0149617D01*
X0062295Y0150616D02*
X0062152Y0150616D01*
X0062152Y0151614D02*
X0062295Y0151614D01*
X0062295Y0152613D02*
X0062152Y0152613D01*
X0062152Y0153611D02*
X0062295Y0153611D01*
X0062295Y0154610D02*
X0062152Y0154610D01*
X0062152Y0155608D02*
X0062295Y0155608D01*
X0062295Y0156607D02*
X0062152Y0156607D01*
X0061776Y0157605D02*
X0062672Y0157605D01*
X0057300Y0153300D02*
X0056318Y0153769D01*
X0054886Y0148618D02*
X0003169Y0148618D01*
X0003169Y0147620D02*
X0054049Y0147620D01*
X0053635Y0146621D02*
X0003169Y0146621D01*
X0003169Y0145623D02*
X0053600Y0145623D01*
X0053782Y0144624D02*
X0003169Y0144624D01*
X0003169Y0143626D02*
X0054242Y0143626D01*
X0050928Y0139632D02*
X0022338Y0139632D01*
X0022582Y0138633D02*
X0050684Y0138633D01*
X0050684Y0137635D02*
X0022582Y0137635D01*
X0022582Y0136636D02*
X0050684Y0136636D01*
X0050684Y0134639D02*
X0022582Y0134639D01*
X0022582Y0133641D02*
X0050684Y0133641D01*
X0050830Y0132642D02*
X0022436Y0132642D01*
X0017448Y0132642D02*
X0016448Y0132642D01*
X0016448Y0133641D02*
X0017448Y0133641D01*
X0017448Y0134639D02*
X0016448Y0134639D01*
X0016448Y0137635D02*
X0017448Y0137635D01*
X0017448Y0138633D02*
X0016448Y0138633D01*
X0016448Y0139632D02*
X0017448Y0139632D01*
X0011558Y0139632D02*
X0003169Y0139632D01*
X0003169Y0140630D02*
X0072700Y0140630D01*
X0068300Y0129100D02*
X0062800Y0123600D01*
X0062800Y0121400D01*
X0062991Y0120572D01*
X0084758Y0129647D02*
X0225609Y0129647D01*
X0225609Y0130645D02*
X0085756Y0130645D01*
X0086755Y0131644D02*
X0225609Y0131644D01*
X0225609Y0132642D02*
X0164169Y0132642D01*
X0164212Y0132717D02*
X0164314Y0133099D01*
X0164314Y0135552D01*
X0159180Y0135552D01*
X0159180Y0131796D01*
X0163012Y0131796D01*
X0163393Y0131898D01*
X0163735Y0132096D01*
X0164014Y0132375D01*
X0164212Y0132717D01*
X0164314Y0133641D02*
X0225609Y0133641D01*
X0225609Y0134639D02*
X0164314Y0134639D01*
X0164314Y0136552D02*
X0164314Y0139005D01*
X0164212Y0139387D01*
X0164014Y0139729D01*
X0163735Y0140008D01*
X0163393Y0140206D01*
X0163012Y0140308D01*
X0159180Y0140308D01*
X0159180Y0136552D01*
X0158180Y0136552D01*
X0158180Y0135552D01*
X0153046Y0135552D01*
X0153046Y0133099D01*
X0153149Y0132717D01*
X0153346Y0132375D01*
X0153625Y0132096D01*
X0153967Y0131898D01*
X0154349Y0131796D01*
X0158180Y0131796D01*
X0158180Y0135552D01*
X0159180Y0135552D01*
X0159180Y0136552D01*
X0164314Y0136552D01*
X0164314Y0136636D02*
X0225609Y0136636D01*
X0225609Y0135638D02*
X0159180Y0135638D01*
X0158680Y0136052D02*
X0158500Y0136800D01*
X0120000Y0136800D01*
X0119310Y0136052D01*
X0118810Y0135638D02*
X0107999Y0135638D01*
X0107999Y0136552D02*
X0113133Y0136552D01*
X0113133Y0139005D01*
X0113031Y0139387D01*
X0112833Y0139729D01*
X0112554Y0140008D01*
X0112212Y0140206D01*
X0111831Y0140308D01*
X0107999Y0140308D01*
X0107999Y0136552D01*
X0107999Y0136636D02*
X0106999Y0136636D01*
X0106999Y0137635D02*
X0107999Y0137635D01*
X0107999Y0138633D02*
X0106999Y0138633D01*
X0106999Y0139632D02*
X0107999Y0139632D01*
X0112889Y0139632D02*
X0113920Y0139632D01*
X0113976Y0139729D02*
X0113779Y0139387D01*
X0113676Y0139005D01*
X0113676Y0136552D01*
X0118810Y0136552D01*
X0118810Y0135552D01*
X0113676Y0135552D01*
X0113676Y0133099D01*
X0113779Y0132717D01*
X0113976Y0132375D01*
X0114255Y0132096D01*
X0114597Y0131898D01*
X0114979Y0131796D01*
X0118810Y0131796D01*
X0118810Y0135552D01*
X0119810Y0135552D01*
X0119810Y0131796D01*
X0123642Y0131796D01*
X0124023Y0131898D01*
X0124365Y0132096D01*
X0124644Y0132375D01*
X0124842Y0132717D01*
X0124944Y0133099D01*
X0124944Y0135552D01*
X0119810Y0135552D01*
X0119810Y0136552D01*
X0118810Y0136552D01*
X0118810Y0140308D01*
X0114979Y0140308D01*
X0114597Y0140206D01*
X0114255Y0140008D01*
X0113976Y0139729D01*
X0113676Y0138633D02*
X0113133Y0138633D01*
X0113133Y0137635D02*
X0113676Y0137635D01*
X0113676Y0136636D02*
X0113133Y0136636D01*
X0113133Y0134639D02*
X0113676Y0134639D01*
X0113676Y0133641D02*
X0113133Y0133641D01*
X0112988Y0132642D02*
X0113822Y0132642D01*
X0118810Y0132642D02*
X0119810Y0132642D01*
X0119810Y0133641D02*
X0118810Y0133641D01*
X0118810Y0134639D02*
X0119810Y0134639D01*
X0119810Y0135638D02*
X0158180Y0135638D01*
X0158500Y0135700D02*
X0158680Y0136052D01*
X0158180Y0136552D02*
X0153046Y0136552D01*
X0153046Y0139005D01*
X0153149Y0139387D01*
X0153346Y0139729D01*
X0153625Y0140008D01*
X0153967Y0140206D01*
X0154349Y0140308D01*
X0158180Y0140308D01*
X0158180Y0136552D01*
X0158180Y0136636D02*
X0159180Y0136636D01*
X0159180Y0137635D02*
X0158180Y0137635D01*
X0158180Y0138633D02*
X0159180Y0138633D01*
X0159180Y0139632D02*
X0158180Y0139632D01*
X0153290Y0139632D02*
X0124700Y0139632D01*
X0124644Y0139729D02*
X0124365Y0140008D01*
X0124023Y0140206D01*
X0123642Y0140308D01*
X0119810Y0140308D01*
X0119810Y0136552D01*
X0124944Y0136552D01*
X0124944Y0139005D01*
X0124842Y0139387D01*
X0124644Y0139729D01*
X0124944Y0138633D02*
X0153046Y0138633D01*
X0153046Y0137635D02*
X0124944Y0137635D01*
X0124944Y0136636D02*
X0153046Y0136636D01*
X0153046Y0134639D02*
X0124944Y0134639D01*
X0124944Y0133641D02*
X0153046Y0133641D01*
X0153192Y0132642D02*
X0124799Y0132642D01*
X0119810Y0136636D02*
X0118810Y0136636D01*
X0118810Y0137635D02*
X0119810Y0137635D01*
X0119810Y0138633D02*
X0118810Y0138633D01*
X0118810Y0139632D02*
X0119810Y0139632D01*
X0107999Y0134639D02*
X0106999Y0134639D01*
X0106999Y0133641D02*
X0107999Y0133641D01*
X0107999Y0132642D02*
X0106999Y0132642D01*
X0102011Y0132642D02*
X0087753Y0132642D01*
X0088752Y0133641D02*
X0101865Y0133641D01*
X0101865Y0134639D02*
X0089750Y0134639D01*
X0124453Y0149617D02*
X0153538Y0149617D01*
X0152846Y0150616D02*
X0125144Y0150616D01*
X0124768Y0157605D02*
X0153223Y0157605D01*
X0164138Y0157605D02*
X0172460Y0157605D01*
X0172460Y0158604D02*
X0003169Y0158604D01*
X0003169Y0159602D02*
X0172460Y0159602D01*
X0172460Y0160601D02*
X0003169Y0160601D01*
X0003169Y0157605D02*
X0011491Y0157605D01*
X0011114Y0156607D02*
X0003169Y0156607D01*
X0003169Y0155608D02*
X0011114Y0155608D01*
X0011114Y0154610D02*
X0003169Y0154610D01*
X0003169Y0153611D02*
X0011114Y0153611D01*
X0011114Y0152613D02*
X0003169Y0152613D01*
X0003169Y0151614D02*
X0011114Y0151614D01*
X0011114Y0150616D02*
X0003169Y0150616D01*
X0003169Y0149617D02*
X0011806Y0149617D01*
X0022090Y0149617D02*
X0051176Y0149617D01*
X0050484Y0150616D02*
X0022782Y0150616D01*
X0022405Y0157605D02*
X0050861Y0157605D01*
X0043621Y0161599D02*
X0172460Y0161599D01*
X0172460Y0162598D02*
X0086557Y0162598D01*
X0129493Y0163596D02*
X0172460Y0163596D01*
X0164514Y0156607D02*
X0225609Y0156607D01*
X0225609Y0155608D02*
X0164514Y0155608D01*
X0164514Y0154610D02*
X0225609Y0154610D01*
X0225609Y0139632D02*
X0164071Y0139632D01*
X0164314Y0138633D02*
X0225609Y0138633D01*
X0225609Y0137635D02*
X0164314Y0137635D01*
X0159180Y0134639D02*
X0158180Y0134639D01*
X0158180Y0133641D02*
X0159180Y0133641D01*
X0159180Y0132642D02*
X0158180Y0132642D01*
X0197712Y0042776D02*
X0225609Y0042776D01*
X0225609Y0041778D02*
X0196713Y0041778D01*
X0195715Y0040779D02*
X0225609Y0040779D01*
X0011314Y0137635D02*
X0003169Y0137635D01*
X0003169Y0138633D02*
X0011314Y0138633D01*
D34*
X0041000Y0112700D03*
X0061700Y0104900D03*
X0063200Y0096800D03*
X0073700Y0082300D03*
X0079200Y0082300D03*
X0087700Y0086300D03*
X0085200Y0092300D03*
X0084700Y0104900D03*
X0090500Y0112200D03*
X0118000Y0094200D03*
X0104600Y0089500D03*
X0131500Y0107200D03*
X0149500Y0104700D03*
X0160000Y0121700D03*
X0210000Y0143700D03*
X0211000Y0077200D03*
X0170700Y0070800D03*
X0158500Y0047700D03*
X0122200Y0068800D03*
X0110200Y0068800D03*
X0103100Y0068900D03*
X0092200Y0060800D03*
X0076500Y0059100D03*
X0062200Y0067300D03*
X0036200Y0067700D03*
X0038700Y0085800D03*
X0033400Y0094300D03*
X0064200Y0044618D03*
X0031500Y0037200D03*
X0107000Y0041700D03*
X0107700Y0050800D03*
X0057300Y0145800D03*
D35*
X0057300Y0153300D01*
X0066141Y0120572D02*
X0066200Y0105300D01*
X0085200Y0086300D01*
X0087700Y0086300D01*
X0092700Y0080800D02*
X0096200Y0077300D01*
X0096200Y0062300D01*
X0107700Y0050800D01*
X0113200Y0054800D02*
X0103100Y0064900D01*
X0103100Y0068900D01*
X0109500Y0073000D02*
X0126600Y0073000D01*
X0148000Y0051600D01*
X0149200Y0051600D01*
X0149948Y0051493D02*
X0151300Y0051600D01*
X0154100Y0048800D01*
X0154100Y0046600D01*
X0157400Y0043300D01*
X0168400Y0043300D01*
X0172200Y0042300D02*
X0165100Y0034500D01*
X0085900Y0034500D01*
X0082600Y0037800D01*
X0082600Y0057600D01*
X0091400Y0066400D01*
X0091400Y0074100D01*
X0099100Y0081800D02*
X0100700Y0081800D01*
X0109500Y0073000D01*
X0115100Y0075700D02*
X0128200Y0075700D01*
X0137407Y0066493D01*
X0149948Y0066493D01*
X0134200Y0060300D02*
X0148007Y0046493D01*
X0149948Y0046493D01*
X0134200Y0060300D02*
X0125208Y0060300D01*
X0123078Y0062430D01*
X0113700Y0054800D02*
X0113200Y0054800D01*
X0113700Y0054800D02*
X0115609Y0052670D01*
X0094602Y0053481D02*
X0094600Y0058400D01*
X0092200Y0060800D01*
X0069291Y0074902D02*
X0069291Y0078891D01*
X0072700Y0082300D01*
X0073700Y0082300D01*
X0071200Y0086300D02*
X0077200Y0086300D01*
X0079200Y0084300D01*
X0079200Y0082300D01*
X0071200Y0086300D02*
X0066141Y0081241D01*
X0066141Y0074902D01*
X0058700Y0080300D02*
X0052200Y0073800D01*
X0042300Y0073800D01*
X0036200Y0067700D01*
X0037011Y0081989D02*
X0033400Y0085600D01*
X0033400Y0094300D01*
X0038700Y0085800D02*
X0041700Y0088300D01*
X0044200Y0088300D01*
X0045712Y0088288D01*
X0052755Y0088288D01*
X0052755Y0085139D02*
X0056861Y0085139D01*
X0058700Y0083300D01*
X0058700Y0080300D01*
X0052755Y0081989D02*
X0037011Y0081989D01*
X0099100Y0085100D02*
X0105700Y0085100D01*
X0115100Y0075700D01*
X0110100Y0089500D02*
X0105100Y0094500D01*
X0099600Y0094500D01*
X0098424Y0113485D02*
X0110200Y0124800D01*
X0163400Y0079000D02*
X0165700Y0079000D01*
D36*
X0173700Y0058300D03*
X0110200Y0124800D03*
M02*
