G75*
%MOIN*%
%OFA0B0*%
%FSLAX25Y25*%
%IPPOS*%
%LPD*%
%AMOC8*
5,1,8,0,0,1.08239X$1,22.5*
%
%ADD10C,0.00000*%
%ADD11C,0.00400*%
%ADD12C,0.00600*%
%ADD13C,0.00800*%
%ADD14C,0.01000*%
%ADD15C,0.00500*%
%ADD16R,0.01250X0.07500*%
%ADD17C,0.00300*%
%ADD18C,0.01600*%
%ADD19C,0.02520*%
%ADD20C,0.13773*%
%ADD21R,0.07874X0.02756*%
%ADD22C,0.00787*%
D10*
X0001200Y0026800D02*
X0001200Y0168532D01*
X0229546Y0168532D01*
X0229546Y0026800D01*
X0001200Y0026800D01*
X0022263Y0136052D02*
X0022263Y0136839D01*
X0021082Y0153769D02*
X0021082Y0153965D01*
X0072263Y0153769D02*
X0072263Y0153965D01*
X0073444Y0136839D02*
X0073444Y0136052D01*
X0123444Y0153769D02*
X0123444Y0153965D01*
X0124625Y0136839D02*
X0124625Y0136052D01*
X0204349Y0091564D02*
X0204351Y0091652D01*
X0204357Y0091740D01*
X0204367Y0091828D01*
X0204381Y0091916D01*
X0204398Y0092002D01*
X0204420Y0092088D01*
X0204445Y0092172D01*
X0204475Y0092256D01*
X0204507Y0092338D01*
X0204544Y0092418D01*
X0204584Y0092497D01*
X0204628Y0092574D01*
X0204675Y0092649D01*
X0204725Y0092721D01*
X0204779Y0092792D01*
X0204835Y0092859D01*
X0204895Y0092925D01*
X0204957Y0092987D01*
X0205023Y0093047D01*
X0205090Y0093103D01*
X0205161Y0093157D01*
X0205233Y0093207D01*
X0205308Y0093254D01*
X0205385Y0093298D01*
X0205464Y0093338D01*
X0205544Y0093375D01*
X0205626Y0093407D01*
X0205710Y0093437D01*
X0205794Y0093462D01*
X0205880Y0093484D01*
X0205966Y0093501D01*
X0206054Y0093515D01*
X0206142Y0093525D01*
X0206230Y0093531D01*
X0206318Y0093533D01*
X0206406Y0093531D01*
X0206494Y0093525D01*
X0206582Y0093515D01*
X0206670Y0093501D01*
X0206756Y0093484D01*
X0206842Y0093462D01*
X0206926Y0093437D01*
X0207010Y0093407D01*
X0207092Y0093375D01*
X0207172Y0093338D01*
X0207251Y0093298D01*
X0207328Y0093254D01*
X0207403Y0093207D01*
X0207475Y0093157D01*
X0207546Y0093103D01*
X0207613Y0093047D01*
X0207679Y0092987D01*
X0207741Y0092925D01*
X0207801Y0092859D01*
X0207857Y0092792D01*
X0207911Y0092721D01*
X0207961Y0092649D01*
X0208008Y0092574D01*
X0208052Y0092497D01*
X0208092Y0092418D01*
X0208129Y0092338D01*
X0208161Y0092256D01*
X0208191Y0092172D01*
X0208216Y0092088D01*
X0208238Y0092002D01*
X0208255Y0091916D01*
X0208269Y0091828D01*
X0208279Y0091740D01*
X0208285Y0091652D01*
X0208287Y0091564D01*
X0208285Y0091476D01*
X0208279Y0091388D01*
X0208269Y0091300D01*
X0208255Y0091212D01*
X0208238Y0091126D01*
X0208216Y0091040D01*
X0208191Y0090956D01*
X0208161Y0090872D01*
X0208129Y0090790D01*
X0208092Y0090710D01*
X0208052Y0090631D01*
X0208008Y0090554D01*
X0207961Y0090479D01*
X0207911Y0090407D01*
X0207857Y0090336D01*
X0207801Y0090269D01*
X0207741Y0090203D01*
X0207679Y0090141D01*
X0207613Y0090081D01*
X0207546Y0090025D01*
X0207475Y0089971D01*
X0207403Y0089921D01*
X0207328Y0089874D01*
X0207251Y0089830D01*
X0207172Y0089790D01*
X0207092Y0089753D01*
X0207010Y0089721D01*
X0206926Y0089691D01*
X0206842Y0089666D01*
X0206756Y0089644D01*
X0206670Y0089627D01*
X0206582Y0089613D01*
X0206494Y0089603D01*
X0206406Y0089597D01*
X0206318Y0089595D01*
X0206230Y0089597D01*
X0206142Y0089603D01*
X0206054Y0089613D01*
X0205966Y0089627D01*
X0205880Y0089644D01*
X0205794Y0089666D01*
X0205710Y0089691D01*
X0205626Y0089721D01*
X0205544Y0089753D01*
X0205464Y0089790D01*
X0205385Y0089830D01*
X0205308Y0089874D01*
X0205233Y0089921D01*
X0205161Y0089971D01*
X0205090Y0090025D01*
X0205023Y0090081D01*
X0204957Y0090141D01*
X0204895Y0090203D01*
X0204835Y0090269D01*
X0204779Y0090336D01*
X0204725Y0090407D01*
X0204675Y0090479D01*
X0204628Y0090554D01*
X0204584Y0090631D01*
X0204544Y0090710D01*
X0204507Y0090790D01*
X0204475Y0090872D01*
X0204445Y0090956D01*
X0204420Y0091040D01*
X0204398Y0091126D01*
X0204381Y0091212D01*
X0204367Y0091300D01*
X0204357Y0091388D01*
X0204351Y0091476D01*
X0204349Y0091564D01*
X0204349Y0060147D02*
X0204351Y0060235D01*
X0204357Y0060323D01*
X0204367Y0060411D01*
X0204381Y0060499D01*
X0204398Y0060585D01*
X0204420Y0060671D01*
X0204445Y0060755D01*
X0204475Y0060839D01*
X0204507Y0060921D01*
X0204544Y0061001D01*
X0204584Y0061080D01*
X0204628Y0061157D01*
X0204675Y0061232D01*
X0204725Y0061304D01*
X0204779Y0061375D01*
X0204835Y0061442D01*
X0204895Y0061508D01*
X0204957Y0061570D01*
X0205023Y0061630D01*
X0205090Y0061686D01*
X0205161Y0061740D01*
X0205233Y0061790D01*
X0205308Y0061837D01*
X0205385Y0061881D01*
X0205464Y0061921D01*
X0205544Y0061958D01*
X0205626Y0061990D01*
X0205710Y0062020D01*
X0205794Y0062045D01*
X0205880Y0062067D01*
X0205966Y0062084D01*
X0206054Y0062098D01*
X0206142Y0062108D01*
X0206230Y0062114D01*
X0206318Y0062116D01*
X0206406Y0062114D01*
X0206494Y0062108D01*
X0206582Y0062098D01*
X0206670Y0062084D01*
X0206756Y0062067D01*
X0206842Y0062045D01*
X0206926Y0062020D01*
X0207010Y0061990D01*
X0207092Y0061958D01*
X0207172Y0061921D01*
X0207251Y0061881D01*
X0207328Y0061837D01*
X0207403Y0061790D01*
X0207475Y0061740D01*
X0207546Y0061686D01*
X0207613Y0061630D01*
X0207679Y0061570D01*
X0207741Y0061508D01*
X0207801Y0061442D01*
X0207857Y0061375D01*
X0207911Y0061304D01*
X0207961Y0061232D01*
X0208008Y0061157D01*
X0208052Y0061080D01*
X0208092Y0061001D01*
X0208129Y0060921D01*
X0208161Y0060839D01*
X0208191Y0060755D01*
X0208216Y0060671D01*
X0208238Y0060585D01*
X0208255Y0060499D01*
X0208269Y0060411D01*
X0208279Y0060323D01*
X0208285Y0060235D01*
X0208287Y0060147D01*
X0208285Y0060059D01*
X0208279Y0059971D01*
X0208269Y0059883D01*
X0208255Y0059795D01*
X0208238Y0059709D01*
X0208216Y0059623D01*
X0208191Y0059539D01*
X0208161Y0059455D01*
X0208129Y0059373D01*
X0208092Y0059293D01*
X0208052Y0059214D01*
X0208008Y0059137D01*
X0207961Y0059062D01*
X0207911Y0058990D01*
X0207857Y0058919D01*
X0207801Y0058852D01*
X0207741Y0058786D01*
X0207679Y0058724D01*
X0207613Y0058664D01*
X0207546Y0058608D01*
X0207475Y0058554D01*
X0207403Y0058504D01*
X0207328Y0058457D01*
X0207251Y0058413D01*
X0207172Y0058373D01*
X0207092Y0058336D01*
X0207010Y0058304D01*
X0206926Y0058274D01*
X0206842Y0058249D01*
X0206756Y0058227D01*
X0206670Y0058210D01*
X0206582Y0058196D01*
X0206494Y0058186D01*
X0206406Y0058180D01*
X0206318Y0058178D01*
X0206230Y0058180D01*
X0206142Y0058186D01*
X0206054Y0058196D01*
X0205966Y0058210D01*
X0205880Y0058227D01*
X0205794Y0058249D01*
X0205710Y0058274D01*
X0205626Y0058304D01*
X0205544Y0058336D01*
X0205464Y0058373D01*
X0205385Y0058413D01*
X0205308Y0058457D01*
X0205233Y0058504D01*
X0205161Y0058554D01*
X0205090Y0058608D01*
X0205023Y0058664D01*
X0204957Y0058724D01*
X0204895Y0058786D01*
X0204835Y0058852D01*
X0204779Y0058919D01*
X0204725Y0058990D01*
X0204675Y0059062D01*
X0204628Y0059137D01*
X0204584Y0059214D01*
X0204544Y0059293D01*
X0204507Y0059373D01*
X0204475Y0059455D01*
X0204445Y0059539D01*
X0204420Y0059623D01*
X0204398Y0059709D01*
X0204381Y0059795D01*
X0204367Y0059883D01*
X0204357Y0059971D01*
X0204351Y0060059D01*
X0204349Y0060147D01*
D11*
X0229546Y0033690D02*
X0178365Y0033690D01*
X0178365Y0026800D01*
X0001200Y0030343D01*
X0001200Y0030300D02*
X0001200Y0164300D01*
X0001200Y0164202D02*
X0178365Y0168532D01*
X0178365Y0167745D02*
X0178365Y0160855D01*
X0229546Y0160855D01*
X0229546Y0160658D02*
X0229546Y0033690D01*
X0157245Y0140189D02*
X0157245Y0144793D01*
X0154943Y0142491D01*
X0158013Y0142491D01*
X0158013Y0157709D02*
X0154943Y0157709D01*
X0158013Y0160778D01*
X0158013Y0161545D01*
X0157245Y0162313D01*
X0155711Y0162313D01*
X0154943Y0161545D01*
X0122580Y0157906D02*
X0119510Y0157906D01*
X0121045Y0157906D02*
X0121045Y0162510D01*
X0119510Y0160975D01*
X0106831Y0160778D02*
X0106831Y0161545D01*
X0106064Y0162313D01*
X0104530Y0162313D01*
X0103762Y0161545D01*
X0106831Y0160778D02*
X0103762Y0157709D01*
X0106831Y0157709D01*
X0106064Y0144793D02*
X0103762Y0142491D01*
X0106831Y0142491D01*
X0106064Y0140189D02*
X0106064Y0144793D01*
X0119510Y0144026D02*
X0120278Y0144793D01*
X0121812Y0144793D01*
X0122580Y0144026D01*
X0122580Y0143258D01*
X0121812Y0142491D01*
X0122580Y0141724D01*
X0122580Y0140956D01*
X0121812Y0140189D01*
X0120278Y0140189D01*
X0119510Y0140956D01*
X0121045Y0142491D02*
X0121812Y0142491D01*
X0071398Y0141724D02*
X0071398Y0140956D01*
X0070631Y0140189D01*
X0069096Y0140189D01*
X0068329Y0140956D01*
X0069864Y0142491D02*
X0070631Y0142491D01*
X0071398Y0141724D01*
X0070631Y0142491D02*
X0071398Y0143258D01*
X0071398Y0144026D01*
X0070631Y0144793D01*
X0069096Y0144793D01*
X0068329Y0144026D01*
X0055650Y0142491D02*
X0052581Y0142491D01*
X0054883Y0144793D01*
X0054883Y0140189D01*
X0055650Y0157709D02*
X0052581Y0157709D01*
X0055650Y0160778D01*
X0055650Y0161545D01*
X0054883Y0162313D01*
X0053348Y0162313D01*
X0052581Y0161545D01*
X0068329Y0160975D02*
X0069864Y0162510D01*
X0069864Y0157906D01*
X0071398Y0157906D02*
X0068329Y0157906D01*
X0020217Y0157906D02*
X0017148Y0157906D01*
X0018683Y0157906D02*
X0018683Y0162510D01*
X0017148Y0160975D01*
X0017915Y0144793D02*
X0019450Y0144793D01*
X0020217Y0144026D01*
X0020217Y0143258D01*
X0019450Y0142491D01*
X0020217Y0141724D01*
X0020217Y0140956D01*
X0019450Y0140189D01*
X0017915Y0140189D01*
X0017148Y0140956D01*
X0018683Y0142491D02*
X0019450Y0142491D01*
X0017148Y0144026D02*
X0017915Y0144793D01*
X0018669Y0078288D02*
X0018669Y0077107D01*
X0019062Y0076713D01*
X0018669Y0077107D02*
X0014731Y0077107D01*
X0014731Y0078288D01*
X0013550Y0078288D02*
X0013550Y0077107D01*
X0014731Y0075926D01*
X0014338Y0076713D02*
X0014731Y0077107D01*
X0013550Y0077107D02*
X0013550Y0075926D01*
X0018669Y0075926D02*
X0019850Y0077107D01*
X0019850Y0075926D01*
X0019850Y0077107D02*
X0019850Y0078288D01*
D12*
X0038275Y0065440D02*
X0039977Y0065440D01*
X0040544Y0064873D01*
X0040544Y0062604D01*
X0039977Y0062037D01*
X0038275Y0062037D01*
X0038275Y0065440D01*
X0041959Y0064306D02*
X0043093Y0065440D01*
X0043093Y0062037D01*
X0041959Y0062037D02*
X0044227Y0062037D01*
X0059071Y0061222D02*
X0059638Y0060655D01*
X0060772Y0060655D01*
X0061339Y0061222D01*
X0062754Y0061222D02*
X0062754Y0061790D01*
X0063321Y0062357D01*
X0064455Y0062357D01*
X0065022Y0061790D01*
X0065022Y0061222D01*
X0064455Y0060655D01*
X0063321Y0060655D01*
X0062754Y0061222D01*
X0063321Y0062357D02*
X0062754Y0062924D01*
X0062754Y0063491D01*
X0063321Y0064058D01*
X0064455Y0064058D01*
X0065022Y0063491D01*
X0065022Y0062924D01*
X0064455Y0062357D01*
X0061339Y0063491D02*
X0060772Y0064058D01*
X0059638Y0064058D01*
X0059071Y0063491D01*
X0059071Y0061222D01*
X0074394Y0053436D02*
X0074394Y0051167D01*
X0074961Y0050600D01*
X0076095Y0050600D01*
X0076662Y0051167D01*
X0078077Y0050600D02*
X0080345Y0052869D01*
X0080345Y0053436D01*
X0079778Y0054003D01*
X0078644Y0054003D01*
X0078077Y0053436D01*
X0076662Y0053436D02*
X0076095Y0054003D01*
X0074961Y0054003D01*
X0074394Y0053436D01*
X0078077Y0050600D02*
X0080345Y0050600D01*
X0080089Y0041755D02*
X0080656Y0041188D01*
X0080656Y0040621D01*
X0080089Y0040054D01*
X0080656Y0039486D01*
X0080656Y0038919D01*
X0080089Y0038352D01*
X0078955Y0038352D01*
X0078388Y0038919D01*
X0076973Y0038919D02*
X0076406Y0038352D01*
X0075272Y0038352D01*
X0074705Y0038919D01*
X0074705Y0041188D01*
X0075272Y0041755D01*
X0076406Y0041755D01*
X0076973Y0041188D01*
X0078388Y0041188D02*
X0078955Y0041755D01*
X0080089Y0041755D01*
X0080089Y0040054D02*
X0079522Y0040054D01*
X0083263Y0035363D02*
X0083263Y0031960D01*
X0085532Y0031960D01*
X0086947Y0031960D02*
X0089215Y0031960D01*
X0090630Y0031960D02*
X0092331Y0031960D01*
X0092898Y0032527D01*
X0092898Y0034796D01*
X0092331Y0035363D01*
X0090630Y0035363D01*
X0090630Y0031960D01*
X0088081Y0033662D02*
X0086947Y0033662D01*
X0086947Y0035363D02*
X0086947Y0031960D01*
X0086947Y0035363D02*
X0089215Y0035363D01*
X0094313Y0034229D02*
X0095447Y0035363D01*
X0095447Y0031960D01*
X0094313Y0031960D02*
X0096582Y0031960D01*
X0111708Y0031740D02*
X0113977Y0031740D01*
X0115391Y0031740D02*
X0117660Y0031740D01*
X0119075Y0031740D02*
X0120776Y0031740D01*
X0121343Y0032307D01*
X0121343Y0034576D01*
X0120776Y0035143D01*
X0119075Y0035143D01*
X0119075Y0031740D01*
X0116526Y0033441D02*
X0115391Y0033441D01*
X0115391Y0031740D02*
X0115391Y0035143D01*
X0117660Y0035143D01*
X0122758Y0034576D02*
X0123325Y0035143D01*
X0124459Y0035143D01*
X0125026Y0034576D01*
X0125026Y0034008D01*
X0122758Y0031740D01*
X0125026Y0031740D01*
X0111708Y0031740D02*
X0111708Y0035143D01*
X0128600Y0050970D02*
X0128600Y0054373D01*
X0130302Y0054373D01*
X0130869Y0053806D01*
X0130869Y0052672D01*
X0130302Y0052104D01*
X0128600Y0052104D01*
X0129734Y0052104D02*
X0130869Y0050970D01*
X0132283Y0051537D02*
X0132850Y0050970D01*
X0133985Y0050970D01*
X0134552Y0051537D01*
X0134552Y0052104D01*
X0133985Y0052672D01*
X0133418Y0052672D01*
X0133985Y0052672D02*
X0134552Y0053239D01*
X0134552Y0053806D01*
X0133985Y0054373D01*
X0132850Y0054373D01*
X0132283Y0053806D01*
X0135966Y0053239D02*
X0137101Y0054373D01*
X0137101Y0050970D01*
X0138235Y0050970D02*
X0135966Y0050970D01*
X0136571Y0060230D02*
X0136004Y0060797D01*
X0138273Y0063066D01*
X0138273Y0060797D01*
X0137706Y0060230D01*
X0136571Y0060230D01*
X0136004Y0060797D02*
X0136004Y0063066D01*
X0136571Y0063633D01*
X0137706Y0063633D01*
X0138273Y0063066D01*
X0139687Y0062499D02*
X0140822Y0063633D01*
X0140822Y0060230D01*
X0141956Y0060230D02*
X0139687Y0060230D01*
X0134590Y0060230D02*
X0132321Y0060230D01*
X0133455Y0060230D02*
X0133455Y0063633D01*
X0132321Y0062499D01*
X0130906Y0063066D02*
X0130906Y0061931D01*
X0130339Y0061364D01*
X0128638Y0061364D01*
X0128638Y0060230D02*
X0128638Y0063633D01*
X0130339Y0063633D01*
X0130906Y0063066D01*
X0129772Y0061364D02*
X0130906Y0060230D01*
X0131808Y0073029D02*
X0131808Y0074731D01*
X0132375Y0075298D01*
X0133510Y0075298D01*
X0134077Y0074731D01*
X0134077Y0073029D01*
X0135211Y0073029D02*
X0131808Y0073029D01*
X0134077Y0074164D02*
X0135211Y0075298D01*
X0135211Y0076712D02*
X0132942Y0078981D01*
X0132375Y0078981D01*
X0131808Y0078414D01*
X0131808Y0077280D01*
X0132375Y0076712D01*
X0135211Y0076712D02*
X0135211Y0078981D01*
X0134644Y0080396D02*
X0132375Y0080396D01*
X0131808Y0080963D01*
X0131808Y0082097D01*
X0132375Y0082664D01*
X0134644Y0080396D01*
X0135211Y0080963D01*
X0135211Y0082097D01*
X0134644Y0082664D01*
X0132375Y0082664D01*
X0132267Y0093800D02*
X0132267Y0117800D01*
X0132265Y0117960D01*
X0132259Y0118119D01*
X0132249Y0118278D01*
X0132236Y0118437D01*
X0132218Y0118596D01*
X0132197Y0118754D01*
X0132171Y0118911D01*
X0132142Y0119068D01*
X0132109Y0119224D01*
X0132072Y0119379D01*
X0132032Y0119534D01*
X0131987Y0119687D01*
X0131939Y0119839D01*
X0131887Y0119990D01*
X0131831Y0120139D01*
X0131772Y0120287D01*
X0131709Y0120434D01*
X0131643Y0120579D01*
X0131573Y0120722D01*
X0131499Y0120864D01*
X0131423Y0121004D01*
X0131342Y0121142D01*
X0131259Y0121277D01*
X0131172Y0121411D01*
X0131081Y0121543D01*
X0130988Y0121672D01*
X0130891Y0121799D01*
X0130792Y0121924D01*
X0130689Y0122046D01*
X0130583Y0122165D01*
X0130475Y0122282D01*
X0130363Y0122396D01*
X0130249Y0122508D01*
X0130132Y0122616D01*
X0130013Y0122722D01*
X0129891Y0122825D01*
X0129766Y0122924D01*
X0129639Y0123021D01*
X0129510Y0123114D01*
X0129378Y0123205D01*
X0129244Y0123292D01*
X0129109Y0123375D01*
X0128971Y0123456D01*
X0128831Y0123532D01*
X0128689Y0123606D01*
X0128546Y0123676D01*
X0128401Y0123742D01*
X0128254Y0123805D01*
X0128106Y0123864D01*
X0127957Y0123920D01*
X0127806Y0123972D01*
X0127654Y0124020D01*
X0127501Y0124065D01*
X0127346Y0124105D01*
X0127191Y0124142D01*
X0127035Y0124175D01*
X0126878Y0124204D01*
X0126721Y0124230D01*
X0126563Y0124251D01*
X0126404Y0124269D01*
X0126245Y0124282D01*
X0126086Y0124292D01*
X0125927Y0124298D01*
X0125767Y0124300D01*
X0125607Y0124298D01*
X0125448Y0124292D01*
X0125289Y0124282D01*
X0125130Y0124269D01*
X0124971Y0124251D01*
X0124813Y0124230D01*
X0124656Y0124204D01*
X0124499Y0124175D01*
X0124343Y0124142D01*
X0124188Y0124105D01*
X0124033Y0124065D01*
X0123880Y0124020D01*
X0123728Y0123972D01*
X0123577Y0123920D01*
X0123428Y0123864D01*
X0123280Y0123805D01*
X0123133Y0123742D01*
X0122988Y0123676D01*
X0122845Y0123606D01*
X0122703Y0123532D01*
X0122563Y0123456D01*
X0122425Y0123375D01*
X0122290Y0123292D01*
X0122156Y0123205D01*
X0122024Y0123114D01*
X0121895Y0123021D01*
X0121768Y0122924D01*
X0121643Y0122825D01*
X0121521Y0122722D01*
X0121402Y0122616D01*
X0121285Y0122508D01*
X0121171Y0122396D01*
X0121059Y0122282D01*
X0120951Y0122165D01*
X0120845Y0122046D01*
X0120742Y0121924D01*
X0120643Y0121799D01*
X0120546Y0121672D01*
X0120453Y0121543D01*
X0120362Y0121411D01*
X0120275Y0121277D01*
X0120192Y0121142D01*
X0120111Y0121004D01*
X0120035Y0120864D01*
X0119961Y0120722D01*
X0119891Y0120579D01*
X0119825Y0120434D01*
X0119762Y0120287D01*
X0119703Y0120139D01*
X0119647Y0119990D01*
X0119595Y0119839D01*
X0119547Y0119687D01*
X0119502Y0119534D01*
X0119462Y0119379D01*
X0119425Y0119224D01*
X0119392Y0119068D01*
X0119363Y0118911D01*
X0119337Y0118754D01*
X0119316Y0118596D01*
X0119298Y0118437D01*
X0119285Y0118278D01*
X0119275Y0118119D01*
X0119269Y0117960D01*
X0119267Y0117800D01*
X0119267Y0093800D01*
X0119269Y0093640D01*
X0119275Y0093481D01*
X0119285Y0093322D01*
X0119298Y0093163D01*
X0119316Y0093004D01*
X0119337Y0092846D01*
X0119363Y0092689D01*
X0119392Y0092532D01*
X0119425Y0092376D01*
X0119462Y0092221D01*
X0119502Y0092066D01*
X0119547Y0091913D01*
X0119595Y0091761D01*
X0119647Y0091610D01*
X0119703Y0091461D01*
X0119762Y0091313D01*
X0119825Y0091166D01*
X0119891Y0091021D01*
X0119961Y0090878D01*
X0120035Y0090736D01*
X0120111Y0090596D01*
X0120192Y0090458D01*
X0120275Y0090323D01*
X0120362Y0090189D01*
X0120453Y0090057D01*
X0120546Y0089928D01*
X0120643Y0089801D01*
X0120742Y0089676D01*
X0120845Y0089554D01*
X0120951Y0089435D01*
X0121059Y0089318D01*
X0121171Y0089204D01*
X0121285Y0089092D01*
X0121402Y0088984D01*
X0121521Y0088878D01*
X0121643Y0088775D01*
X0121768Y0088676D01*
X0121895Y0088579D01*
X0122024Y0088486D01*
X0122156Y0088395D01*
X0122290Y0088308D01*
X0122425Y0088225D01*
X0122563Y0088144D01*
X0122703Y0088068D01*
X0122845Y0087994D01*
X0122988Y0087924D01*
X0123133Y0087858D01*
X0123280Y0087795D01*
X0123428Y0087736D01*
X0123577Y0087680D01*
X0123728Y0087628D01*
X0123880Y0087580D01*
X0124033Y0087535D01*
X0124188Y0087495D01*
X0124343Y0087458D01*
X0124499Y0087425D01*
X0124656Y0087396D01*
X0124813Y0087370D01*
X0124971Y0087349D01*
X0125130Y0087331D01*
X0125289Y0087318D01*
X0125448Y0087308D01*
X0125607Y0087302D01*
X0125767Y0087300D01*
X0125927Y0087302D01*
X0126086Y0087308D01*
X0126245Y0087318D01*
X0126404Y0087331D01*
X0126563Y0087349D01*
X0126721Y0087370D01*
X0126878Y0087396D01*
X0127035Y0087425D01*
X0127191Y0087458D01*
X0127346Y0087495D01*
X0127501Y0087535D01*
X0127654Y0087580D01*
X0127806Y0087628D01*
X0127957Y0087680D01*
X0128106Y0087736D01*
X0128254Y0087795D01*
X0128401Y0087858D01*
X0128546Y0087924D01*
X0128689Y0087994D01*
X0128831Y0088068D01*
X0128971Y0088144D01*
X0129109Y0088225D01*
X0129244Y0088308D01*
X0129378Y0088395D01*
X0129510Y0088486D01*
X0129639Y0088579D01*
X0129766Y0088676D01*
X0129891Y0088775D01*
X0130013Y0088878D01*
X0130132Y0088984D01*
X0130249Y0089092D01*
X0130363Y0089204D01*
X0130475Y0089318D01*
X0130583Y0089435D01*
X0130689Y0089554D01*
X0130792Y0089676D01*
X0130891Y0089801D01*
X0130988Y0089928D01*
X0131081Y0090057D01*
X0131172Y0090189D01*
X0131259Y0090323D01*
X0131342Y0090458D01*
X0131423Y0090596D01*
X0131499Y0090736D01*
X0131573Y0090878D01*
X0131643Y0091021D01*
X0131709Y0091166D01*
X0131772Y0091313D01*
X0131831Y0091461D01*
X0131887Y0091610D01*
X0131939Y0091761D01*
X0131987Y0091913D01*
X0132032Y0092066D01*
X0132072Y0092221D01*
X0132109Y0092376D01*
X0132142Y0092532D01*
X0132171Y0092689D01*
X0132197Y0092846D01*
X0132218Y0093004D01*
X0132236Y0093163D01*
X0132249Y0093322D01*
X0132259Y0093481D01*
X0132265Y0093640D01*
X0132267Y0093800D01*
X0125767Y0100800D02*
X0125767Y0103300D01*
X0122767Y0103300D01*
X0122767Y0104800D02*
X0122767Y0106800D01*
X0128767Y0106800D01*
X0128767Y0104800D01*
X0122767Y0104800D01*
X0125767Y0103300D02*
X0128767Y0103300D01*
X0128767Y0108300D02*
X0125767Y0108300D01*
X0125767Y0110800D01*
X0125767Y0108300D02*
X0122767Y0108300D01*
X0146222Y0109293D02*
X0146789Y0108726D01*
X0149057Y0108726D01*
X0149624Y0109293D01*
X0149624Y0110427D01*
X0149057Y0110995D01*
X0149057Y0112409D02*
X0149624Y0112976D01*
X0149624Y0114111D01*
X0149057Y0114678D01*
X0147923Y0114678D01*
X0147356Y0114111D01*
X0147356Y0113543D01*
X0147923Y0112409D01*
X0146222Y0112409D01*
X0146222Y0114678D01*
X0146789Y0110995D02*
X0146222Y0110427D01*
X0146222Y0109293D01*
X0147679Y0100426D02*
X0147679Y0098157D01*
X0145977Y0099859D01*
X0149380Y0099859D01*
X0153292Y0097595D02*
X0153860Y0096461D01*
X0154994Y0095326D01*
X0154994Y0097028D01*
X0155561Y0097595D01*
X0156128Y0097595D01*
X0156695Y0097028D01*
X0156695Y0095894D01*
X0156128Y0095326D01*
X0154994Y0095326D01*
X0156128Y0093912D02*
X0156695Y0093345D01*
X0156695Y0092210D01*
X0156128Y0091643D01*
X0153860Y0091643D01*
X0153292Y0092210D01*
X0153292Y0093345D01*
X0153860Y0093912D01*
X0149380Y0095041D02*
X0149380Y0096176D01*
X0148813Y0096743D01*
X0149380Y0095041D02*
X0148813Y0094474D01*
X0146545Y0094474D01*
X0145977Y0095041D01*
X0145977Y0096176D01*
X0146545Y0096743D01*
X0112404Y0084371D02*
X0112404Y0082102D01*
X0112404Y0083236D02*
X0109001Y0083236D01*
X0110135Y0082102D01*
X0109568Y0080687D02*
X0109001Y0080120D01*
X0109001Y0078986D01*
X0109568Y0078419D01*
X0111837Y0078419D01*
X0112404Y0078986D01*
X0112404Y0080120D01*
X0111837Y0080687D01*
X0098680Y0066684D02*
X0097545Y0066684D01*
X0096978Y0066117D01*
X0096978Y0063848D01*
X0099247Y0066117D01*
X0099247Y0063848D01*
X0098680Y0063281D01*
X0097545Y0063281D01*
X0096978Y0063848D01*
X0095564Y0063848D02*
X0094997Y0063281D01*
X0093862Y0063281D01*
X0093295Y0063848D01*
X0091881Y0063281D02*
X0090746Y0064416D01*
X0091313Y0064416D02*
X0089612Y0064416D01*
X0089612Y0063281D02*
X0089612Y0066684D01*
X0091313Y0066684D01*
X0091881Y0066117D01*
X0091881Y0064983D01*
X0091313Y0064416D01*
X0093295Y0066117D02*
X0093862Y0066684D01*
X0094997Y0066684D01*
X0095564Y0066117D01*
X0095564Y0065550D01*
X0094997Y0064983D01*
X0095564Y0064416D01*
X0095564Y0063848D01*
X0094997Y0064983D02*
X0094429Y0064983D01*
X0098680Y0066684D02*
X0099247Y0066117D01*
X0053400Y0044596D02*
X0053400Y0042328D01*
X0051131Y0044596D01*
X0050564Y0044596D01*
X0049997Y0044029D01*
X0049997Y0042895D01*
X0050564Y0042328D01*
X0050564Y0040913D02*
X0049997Y0040346D01*
X0049997Y0039212D01*
X0050564Y0038645D01*
X0052833Y0038645D01*
X0053400Y0039212D01*
X0053400Y0040346D01*
X0052833Y0040913D01*
X0053400Y0037324D02*
X0053400Y0036189D01*
X0053400Y0036756D02*
X0049997Y0036756D01*
X0049997Y0036189D02*
X0049997Y0037324D01*
X0007050Y0046860D02*
X0003647Y0049129D01*
X0004781Y0050543D02*
X0003647Y0051677D01*
X0007050Y0051677D01*
X0007050Y0050543D02*
X0007050Y0052812D01*
X0007050Y0049129D02*
X0003647Y0046860D01*
X0033119Y0100163D02*
X0035388Y0100163D01*
X0035955Y0100730D01*
X0035955Y0101865D01*
X0035388Y0102432D01*
X0035388Y0103846D02*
X0035955Y0103846D01*
X0035388Y0103846D02*
X0033119Y0106115D01*
X0032552Y0106115D01*
X0032552Y0103846D01*
X0033119Y0102432D02*
X0032552Y0101865D01*
X0032552Y0100730D01*
X0033119Y0100163D01*
X0045568Y0118537D02*
X0046702Y0118537D01*
X0046135Y0118537D02*
X0046135Y0121940D01*
X0045568Y0121940D02*
X0046702Y0121940D01*
X0048023Y0121373D02*
X0048023Y0119104D01*
X0048591Y0118537D01*
X0049725Y0118537D01*
X0050292Y0119104D01*
X0051707Y0118537D02*
X0053975Y0118537D01*
X0052841Y0118537D02*
X0052841Y0121940D01*
X0051707Y0120806D01*
X0050292Y0121373D02*
X0049725Y0121940D01*
X0048591Y0121940D01*
X0048023Y0121373D01*
X0157245Y0039311D02*
X0158947Y0037610D01*
X0158947Y0039878D01*
X0160648Y0039311D02*
X0157245Y0039311D01*
X0157245Y0036195D02*
X0160648Y0033927D01*
X0160648Y0036195D02*
X0157245Y0033927D01*
D13*
X0151981Y0044917D02*
X0147778Y0047719D01*
X0148478Y0049521D02*
X0147778Y0050221D01*
X0147778Y0051622D01*
X0148478Y0052323D01*
X0149179Y0052323D01*
X0151981Y0049521D01*
X0151981Y0052323D01*
X0151981Y0047719D02*
X0147778Y0044917D01*
X0148854Y0075166D02*
X0148854Y0087253D01*
X0155137Y0087253D02*
X0155137Y0075166D01*
X0094487Y0080414D02*
X0092913Y0078839D01*
X0058267Y0078839D01*
X0056692Y0080414D01*
X0056692Y0115060D01*
X0058267Y0116635D01*
X0092913Y0116635D01*
X0094487Y0115060D01*
X0094487Y0080414D01*
X0070503Y0055442D02*
X0058417Y0055442D01*
X0058417Y0049158D02*
X0070503Y0049158D01*
X0070814Y0043194D02*
X0058728Y0043194D01*
X0058728Y0036910D02*
X0070814Y0036910D01*
X0029298Y0041438D02*
X0029298Y0078682D01*
X0010401Y0078682D01*
X0010401Y0041438D01*
X0029298Y0041438D01*
X0026149Y0041044D02*
X0026149Y0039469D01*
X0024574Y0039469D01*
X0024574Y0041044D01*
X0022606Y0041044D02*
X0022606Y0039469D01*
X0017094Y0039469D01*
X0017094Y0041044D01*
X0015125Y0041044D02*
X0015125Y0039469D01*
X0013550Y0039469D01*
X0013550Y0041044D01*
X0011976Y0044587D02*
X0011976Y0075532D01*
X0027724Y0075532D01*
X0027724Y0044587D01*
X0011976Y0044587D01*
X0013550Y0079076D02*
X0013550Y0080650D01*
X0015125Y0080650D01*
X0015125Y0079076D01*
X0017094Y0079076D02*
X0017094Y0080650D01*
X0022606Y0080650D01*
X0022606Y0079076D01*
X0024574Y0079076D02*
X0024574Y0080650D01*
X0026149Y0080650D01*
X0026149Y0079076D01*
X0025923Y0158543D02*
X0025222Y0159243D01*
X0025923Y0158543D02*
X0027324Y0158543D01*
X0028024Y0159243D01*
X0028024Y0159944D01*
X0027324Y0160644D01*
X0025923Y0160644D01*
X0025222Y0161345D01*
X0025222Y0162046D01*
X0025923Y0162746D01*
X0027324Y0162746D01*
X0028024Y0162046D01*
X0029826Y0161345D02*
X0031227Y0162746D01*
X0031227Y0158543D01*
X0029826Y0158543D02*
X0032628Y0158543D01*
X0077403Y0159743D02*
X0078104Y0159043D01*
X0079505Y0159043D01*
X0080206Y0159743D01*
X0080206Y0160444D01*
X0079505Y0161144D01*
X0078104Y0161144D01*
X0077403Y0161845D01*
X0077403Y0162546D01*
X0078104Y0163246D01*
X0079505Y0163246D01*
X0080206Y0162546D01*
X0082007Y0162546D02*
X0082708Y0163246D01*
X0084109Y0163246D01*
X0084809Y0162546D01*
X0084809Y0161845D01*
X0082007Y0159043D01*
X0084809Y0159043D01*
X0128584Y0159243D02*
X0129285Y0158543D01*
X0130686Y0158543D01*
X0131387Y0159243D01*
X0131387Y0159944D01*
X0130686Y0160644D01*
X0129285Y0160644D01*
X0128584Y0161345D01*
X0128584Y0162046D01*
X0129285Y0162746D01*
X0130686Y0162746D01*
X0131387Y0162046D01*
X0133188Y0162046D02*
X0133889Y0162746D01*
X0135290Y0162746D01*
X0135991Y0162046D01*
X0135991Y0161345D01*
X0135290Y0160644D01*
X0135991Y0159944D01*
X0135991Y0159243D01*
X0135290Y0158543D01*
X0133889Y0158543D01*
X0133188Y0159243D01*
X0134589Y0160644D02*
X0135290Y0160644D01*
D14*
X0090225Y0081989D02*
X0090227Y0082056D01*
X0090233Y0082122D01*
X0090243Y0082188D01*
X0090257Y0082253D01*
X0090274Y0082317D01*
X0090296Y0082380D01*
X0090321Y0082442D01*
X0090350Y0082502D01*
X0090383Y0082560D01*
X0090418Y0082616D01*
X0090458Y0082670D01*
X0090500Y0082721D01*
X0090545Y0082770D01*
X0090593Y0082816D01*
X0090644Y0082859D01*
X0090697Y0082899D01*
X0090753Y0082936D01*
X0090811Y0082969D01*
X0090870Y0082999D01*
X0090931Y0083025D01*
X0090994Y0083048D01*
X0091058Y0083066D01*
X0091123Y0083081D01*
X0091189Y0083092D01*
X0091255Y0083099D01*
X0091321Y0083102D01*
X0091388Y0083101D01*
X0091454Y0083096D01*
X0091520Y0083087D01*
X0091586Y0083074D01*
X0091650Y0083057D01*
X0091713Y0083037D01*
X0091775Y0083012D01*
X0091836Y0082984D01*
X0091895Y0082953D01*
X0091951Y0082918D01*
X0092006Y0082880D01*
X0092058Y0082838D01*
X0092107Y0082793D01*
X0092154Y0082746D01*
X0092198Y0082696D01*
X0092238Y0082643D01*
X0092276Y0082588D01*
X0092310Y0082531D01*
X0092341Y0082472D01*
X0092368Y0082411D01*
X0092391Y0082349D01*
X0092411Y0082285D01*
X0092427Y0082220D01*
X0092439Y0082155D01*
X0092447Y0082089D01*
X0092451Y0082022D01*
X0092451Y0081956D01*
X0092447Y0081889D01*
X0092439Y0081823D01*
X0092427Y0081758D01*
X0092411Y0081693D01*
X0092391Y0081629D01*
X0092368Y0081567D01*
X0092341Y0081506D01*
X0092310Y0081447D01*
X0092276Y0081390D01*
X0092238Y0081335D01*
X0092198Y0081282D01*
X0092154Y0081232D01*
X0092107Y0081185D01*
X0092058Y0081140D01*
X0092006Y0081098D01*
X0091951Y0081060D01*
X0091894Y0081025D01*
X0091836Y0080994D01*
X0091775Y0080966D01*
X0091713Y0080941D01*
X0091650Y0080921D01*
X0091586Y0080904D01*
X0091520Y0080891D01*
X0091454Y0080882D01*
X0091388Y0080877D01*
X0091321Y0080876D01*
X0091255Y0080879D01*
X0091189Y0080886D01*
X0091123Y0080897D01*
X0091058Y0080912D01*
X0090994Y0080930D01*
X0090931Y0080953D01*
X0090870Y0080979D01*
X0090811Y0081009D01*
X0090753Y0081042D01*
X0090697Y0081079D01*
X0090644Y0081119D01*
X0090593Y0081162D01*
X0090545Y0081208D01*
X0090500Y0081257D01*
X0090458Y0081308D01*
X0090418Y0081362D01*
X0090383Y0081418D01*
X0090350Y0081476D01*
X0090321Y0081536D01*
X0090296Y0081598D01*
X0090274Y0081661D01*
X0090257Y0081725D01*
X0090243Y0081790D01*
X0090233Y0081856D01*
X0090227Y0081922D01*
X0090225Y0081989D01*
D15*
X0048842Y0060487D02*
X0048842Y0052987D01*
X0033842Y0052987D01*
X0033842Y0060487D01*
X0048842Y0060487D01*
X0045092Y0056737D02*
X0042592Y0056737D01*
X0040092Y0059237D01*
X0040092Y0054237D01*
X0042592Y0056737D01*
X0042592Y0059237D01*
X0042592Y0056737D02*
X0042592Y0054237D01*
X0042592Y0056737D02*
X0037592Y0056737D01*
X0088196Y0042410D02*
X0098196Y0042410D01*
X0116641Y0042190D02*
X0126641Y0042190D01*
X0144948Y0038993D02*
X0144948Y0067743D01*
X0146198Y0068993D01*
X0154948Y0068993D01*
X0154948Y0038993D01*
X0144948Y0038993D01*
X0164586Y0050422D02*
X0221672Y0050422D01*
X0221672Y0059123D01*
X0227184Y0059123D01*
X0221672Y0059123D02*
X0221672Y0093769D01*
X0227184Y0093769D01*
X0221672Y0093769D02*
X0221672Y0108690D01*
X0164586Y0108690D01*
X0164586Y0050422D01*
X0138767Y0120157D02*
X0139217Y0120607D01*
X0139217Y0121508D01*
X0138767Y0121959D01*
X0136965Y0121959D01*
X0136515Y0121508D01*
X0136515Y0120607D01*
X0136965Y0120157D01*
X0138767Y0120157D01*
X0138316Y0121058D02*
X0139217Y0121959D01*
X0139217Y0123104D02*
X0139217Y0124905D01*
X0139217Y0124004D02*
X0136515Y0124004D01*
X0137415Y0123104D01*
X0127184Y0133099D02*
X0127184Y0156721D01*
X0150806Y0156721D01*
X0150806Y0133099D01*
X0127184Y0133099D01*
X0099625Y0133099D02*
X0076003Y0133099D01*
X0076003Y0156721D01*
X0099625Y0156721D01*
X0099625Y0133099D01*
X0048444Y0133099D02*
X0024822Y0133099D01*
X0024822Y0156721D01*
X0048444Y0156721D01*
X0048444Y0133099D01*
D16*
X0046967Y0056737D03*
D17*
X0092571Y0043660D02*
X0092571Y0041160D01*
X0093821Y0042410D01*
X0092571Y0043660D01*
X0093821Y0043660D02*
X0093821Y0042410D01*
X0093821Y0041160D01*
X0121016Y0040940D02*
X0121016Y0043440D01*
X0122266Y0042190D01*
X0121016Y0040940D01*
X0122266Y0040940D02*
X0122266Y0042190D01*
X0122266Y0043440D01*
D18*
X0117267Y0093800D02*
X0117270Y0093593D01*
X0117277Y0093386D01*
X0117290Y0093180D01*
X0117307Y0092973D01*
X0117330Y0092768D01*
X0117358Y0092562D01*
X0117390Y0092358D01*
X0117428Y0092154D01*
X0117470Y0091952D01*
X0117518Y0091750D01*
X0117570Y0091550D01*
X0117627Y0091351D01*
X0117689Y0091154D01*
X0117756Y0090958D01*
X0117828Y0090764D01*
X0117904Y0090571D01*
X0117985Y0090381D01*
X0118071Y0090192D01*
X0118161Y0090006D01*
X0118255Y0089822D01*
X0118355Y0089640D01*
X0118458Y0089461D01*
X0118566Y0089284D01*
X0118678Y0089110D01*
X0118794Y0088939D01*
X0118915Y0088770D01*
X0119039Y0088605D01*
X0119168Y0088443D01*
X0119300Y0088284D01*
X0119436Y0088128D01*
X0119576Y0087975D01*
X0119720Y0087826D01*
X0119867Y0087681D01*
X0120018Y0087539D01*
X0120172Y0087401D01*
X0120330Y0087266D01*
X0120490Y0087136D01*
X0120654Y0087010D01*
X0120821Y0086887D01*
X0120991Y0086769D01*
X0121164Y0086654D01*
X0121339Y0086544D01*
X0121517Y0086439D01*
X0121698Y0086337D01*
X0121880Y0086241D01*
X0122066Y0086148D01*
X0122253Y0086060D01*
X0122443Y0085977D01*
X0122634Y0085898D01*
X0122827Y0085824D01*
X0123023Y0085755D01*
X0123219Y0085691D01*
X0123417Y0085631D01*
X0123617Y0085576D01*
X0123818Y0085526D01*
X0124020Y0085481D01*
X0124223Y0085441D01*
X0124427Y0085406D01*
X0124632Y0085376D01*
X0124837Y0085351D01*
X0125043Y0085331D01*
X0125250Y0085316D01*
X0125457Y0085306D01*
X0125664Y0085301D01*
X0125870Y0085301D01*
X0126077Y0085306D01*
X0126284Y0085316D01*
X0126491Y0085331D01*
X0126697Y0085351D01*
X0126902Y0085376D01*
X0127107Y0085406D01*
X0127311Y0085441D01*
X0127514Y0085481D01*
X0127716Y0085526D01*
X0127917Y0085576D01*
X0128117Y0085631D01*
X0128315Y0085691D01*
X0128511Y0085755D01*
X0128707Y0085824D01*
X0128900Y0085898D01*
X0129091Y0085977D01*
X0129281Y0086060D01*
X0129468Y0086148D01*
X0129654Y0086241D01*
X0129836Y0086337D01*
X0130017Y0086439D01*
X0130195Y0086544D01*
X0130370Y0086654D01*
X0130543Y0086769D01*
X0130713Y0086887D01*
X0130880Y0087010D01*
X0131044Y0087136D01*
X0131204Y0087266D01*
X0131362Y0087401D01*
X0131516Y0087539D01*
X0131667Y0087681D01*
X0131814Y0087826D01*
X0131958Y0087975D01*
X0132098Y0088128D01*
X0132234Y0088284D01*
X0132366Y0088443D01*
X0132495Y0088605D01*
X0132619Y0088770D01*
X0132740Y0088939D01*
X0132856Y0089110D01*
X0132968Y0089284D01*
X0133076Y0089461D01*
X0133179Y0089640D01*
X0133279Y0089822D01*
X0133373Y0090006D01*
X0133463Y0090192D01*
X0133549Y0090381D01*
X0133630Y0090571D01*
X0133706Y0090764D01*
X0133778Y0090958D01*
X0133845Y0091154D01*
X0133907Y0091351D01*
X0133964Y0091550D01*
X0134016Y0091750D01*
X0134064Y0091952D01*
X0134106Y0092154D01*
X0134144Y0092358D01*
X0134176Y0092562D01*
X0134204Y0092768D01*
X0134227Y0092973D01*
X0134244Y0093180D01*
X0134257Y0093386D01*
X0134264Y0093593D01*
X0134267Y0093800D01*
X0134267Y0117800D01*
X0134264Y0118007D01*
X0134257Y0118214D01*
X0134244Y0118420D01*
X0134227Y0118627D01*
X0134204Y0118832D01*
X0134176Y0119038D01*
X0134144Y0119242D01*
X0134106Y0119446D01*
X0134064Y0119648D01*
X0134016Y0119850D01*
X0133964Y0120050D01*
X0133907Y0120249D01*
X0133845Y0120446D01*
X0133778Y0120642D01*
X0133706Y0120836D01*
X0133630Y0121029D01*
X0133549Y0121219D01*
X0133463Y0121408D01*
X0133373Y0121594D01*
X0133279Y0121778D01*
X0133179Y0121960D01*
X0133076Y0122139D01*
X0132968Y0122316D01*
X0132856Y0122490D01*
X0132740Y0122661D01*
X0132619Y0122830D01*
X0132495Y0122995D01*
X0132366Y0123157D01*
X0132234Y0123316D01*
X0132098Y0123472D01*
X0131958Y0123625D01*
X0131814Y0123774D01*
X0131667Y0123919D01*
X0131516Y0124061D01*
X0131362Y0124199D01*
X0131204Y0124334D01*
X0131044Y0124464D01*
X0130880Y0124590D01*
X0130713Y0124713D01*
X0130543Y0124831D01*
X0130370Y0124946D01*
X0130195Y0125056D01*
X0130017Y0125161D01*
X0129836Y0125263D01*
X0129654Y0125359D01*
X0129468Y0125452D01*
X0129281Y0125540D01*
X0129091Y0125623D01*
X0128900Y0125702D01*
X0128707Y0125776D01*
X0128511Y0125845D01*
X0128315Y0125909D01*
X0128117Y0125969D01*
X0127917Y0126024D01*
X0127716Y0126074D01*
X0127514Y0126119D01*
X0127311Y0126159D01*
X0127107Y0126194D01*
X0126902Y0126224D01*
X0126697Y0126249D01*
X0126491Y0126269D01*
X0126284Y0126284D01*
X0126077Y0126294D01*
X0125870Y0126299D01*
X0125664Y0126299D01*
X0125457Y0126294D01*
X0125250Y0126284D01*
X0125043Y0126269D01*
X0124837Y0126249D01*
X0124632Y0126224D01*
X0124427Y0126194D01*
X0124223Y0126159D01*
X0124020Y0126119D01*
X0123818Y0126074D01*
X0123617Y0126024D01*
X0123417Y0125969D01*
X0123219Y0125909D01*
X0123023Y0125845D01*
X0122827Y0125776D01*
X0122634Y0125702D01*
X0122443Y0125623D01*
X0122253Y0125540D01*
X0122066Y0125452D01*
X0121880Y0125359D01*
X0121698Y0125263D01*
X0121517Y0125161D01*
X0121339Y0125056D01*
X0121164Y0124946D01*
X0120991Y0124831D01*
X0120821Y0124713D01*
X0120654Y0124590D01*
X0120490Y0124464D01*
X0120330Y0124334D01*
X0120172Y0124199D01*
X0120018Y0124061D01*
X0119867Y0123919D01*
X0119720Y0123774D01*
X0119576Y0123625D01*
X0119436Y0123472D01*
X0119300Y0123316D01*
X0119168Y0123157D01*
X0119039Y0122995D01*
X0118915Y0122830D01*
X0118794Y0122661D01*
X0118678Y0122490D01*
X0118566Y0122316D01*
X0118458Y0122139D01*
X0118355Y0121960D01*
X0118255Y0121778D01*
X0118161Y0121594D01*
X0118071Y0121408D01*
X0117985Y0121219D01*
X0117904Y0121029D01*
X0117828Y0120836D01*
X0117756Y0120642D01*
X0117689Y0120446D01*
X0117627Y0120249D01*
X0117570Y0120050D01*
X0117518Y0119850D01*
X0117470Y0119648D01*
X0117428Y0119446D01*
X0117390Y0119242D01*
X0117358Y0119038D01*
X0117330Y0118832D01*
X0117307Y0118627D01*
X0117290Y0118420D01*
X0117277Y0118214D01*
X0117270Y0118007D01*
X0117267Y0117800D01*
X0117267Y0093800D01*
D19*
X0130137Y0136052D03*
X0147854Y0136052D03*
X0147854Y0153769D03*
X0130137Y0153769D03*
X0096672Y0153769D03*
X0078956Y0153769D03*
X0078956Y0136052D03*
X0096672Y0136052D03*
X0045491Y0136052D03*
X0027775Y0136052D03*
X0027775Y0153769D03*
X0045491Y0153769D03*
D20*
X0036633Y0144910D03*
X0087814Y0144910D03*
X0138995Y0144910D03*
D21*
X0123247Y0136052D03*
X0103562Y0136052D03*
X0103562Y0153769D03*
X0123247Y0153769D03*
X0154743Y0153769D03*
X0154743Y0136052D03*
X0072066Y0136052D03*
X0052381Y0136052D03*
X0052381Y0153769D03*
X0072066Y0153769D03*
X0020885Y0153769D03*
X0020885Y0136052D03*
D22*
X0036570Y0042095D02*
X0047830Y0042095D01*
X0047830Y0041505D01*
X0036570Y0041505D01*
X0036570Y0042095D01*
X0036196Y0040127D02*
X0036196Y0035206D01*
M02*
