%
M48
M72
T01C0.02000
T02C0.02362
T03C0.03150
T04C0.03937
%
T01
X31500Y37200
X64200Y44618
X76500Y59100
X92200Y60800
X103100Y68900
X110200Y68800
X122200Y68800
X107700Y50800
X107000Y41700
X62200Y67300
X73700Y82300
X79200Y82300
X87700Y86300
X85200Y92300
X84700Y104900
X90500Y112200
X118000Y94200
X104600Y89500
X131500Y107200
X149500Y104700
X160000Y121700
X210000Y143700
X211000Y77200
X170700Y70800
X158500Y47700
X63200Y96800
X61700Y104900
X41000Y112700
X33400Y94300
X38700Y85800
X36200Y67700
X57300Y145800
T02
X110200Y124800
X125767Y115300
X125767Y96300
X149948Y66493
X149948Y61493
X149948Y56493
X149948Y51493
X149948Y46493
X149948Y41493
X173700Y58300
T03
X24850Y57560
X14850Y62560
X24850Y67560
X14850Y71935
X14850Y52560
X24850Y47560
T04
X206318Y60147
X206318Y91564
M30
