G75*
%MOIN*%
%OFA0B0*%
%FSLAX25Y25*%
%IPPOS*%
%LPD*%
%AMOC8*
5,1,8,0,0,1.08239X$1,22.5*
%
%ADD10C,0.00000*%
%ADD11C,0.00400*%
%ADD12C,0.01100*%
%ADD13C,0.00600*%
D10*
X0001200Y0026800D02*
X0001200Y0168532D01*
X0229546Y0168532D01*
X0229546Y0026800D01*
X0001200Y0026800D01*
X0204349Y0060147D02*
X0204351Y0060235D01*
X0204357Y0060323D01*
X0204367Y0060411D01*
X0204381Y0060499D01*
X0204398Y0060585D01*
X0204420Y0060671D01*
X0204445Y0060755D01*
X0204475Y0060839D01*
X0204507Y0060921D01*
X0204544Y0061001D01*
X0204584Y0061080D01*
X0204628Y0061157D01*
X0204675Y0061232D01*
X0204725Y0061304D01*
X0204779Y0061375D01*
X0204835Y0061442D01*
X0204895Y0061508D01*
X0204957Y0061570D01*
X0205023Y0061630D01*
X0205090Y0061686D01*
X0205161Y0061740D01*
X0205233Y0061790D01*
X0205308Y0061837D01*
X0205385Y0061881D01*
X0205464Y0061921D01*
X0205544Y0061958D01*
X0205626Y0061990D01*
X0205710Y0062020D01*
X0205794Y0062045D01*
X0205880Y0062067D01*
X0205966Y0062084D01*
X0206054Y0062098D01*
X0206142Y0062108D01*
X0206230Y0062114D01*
X0206318Y0062116D01*
X0206406Y0062114D01*
X0206494Y0062108D01*
X0206582Y0062098D01*
X0206670Y0062084D01*
X0206756Y0062067D01*
X0206842Y0062045D01*
X0206926Y0062020D01*
X0207010Y0061990D01*
X0207092Y0061958D01*
X0207172Y0061921D01*
X0207251Y0061881D01*
X0207328Y0061837D01*
X0207403Y0061790D01*
X0207475Y0061740D01*
X0207546Y0061686D01*
X0207613Y0061630D01*
X0207679Y0061570D01*
X0207741Y0061508D01*
X0207801Y0061442D01*
X0207857Y0061375D01*
X0207911Y0061304D01*
X0207961Y0061232D01*
X0208008Y0061157D01*
X0208052Y0061080D01*
X0208092Y0061001D01*
X0208129Y0060921D01*
X0208161Y0060839D01*
X0208191Y0060755D01*
X0208216Y0060671D01*
X0208238Y0060585D01*
X0208255Y0060499D01*
X0208269Y0060411D01*
X0208279Y0060323D01*
X0208285Y0060235D01*
X0208287Y0060147D01*
X0208285Y0060059D01*
X0208279Y0059971D01*
X0208269Y0059883D01*
X0208255Y0059795D01*
X0208238Y0059709D01*
X0208216Y0059623D01*
X0208191Y0059539D01*
X0208161Y0059455D01*
X0208129Y0059373D01*
X0208092Y0059293D01*
X0208052Y0059214D01*
X0208008Y0059137D01*
X0207961Y0059062D01*
X0207911Y0058990D01*
X0207857Y0058919D01*
X0207801Y0058852D01*
X0207741Y0058786D01*
X0207679Y0058724D01*
X0207613Y0058664D01*
X0207546Y0058608D01*
X0207475Y0058554D01*
X0207403Y0058504D01*
X0207328Y0058457D01*
X0207251Y0058413D01*
X0207172Y0058373D01*
X0207092Y0058336D01*
X0207010Y0058304D01*
X0206926Y0058274D01*
X0206842Y0058249D01*
X0206756Y0058227D01*
X0206670Y0058210D01*
X0206582Y0058196D01*
X0206494Y0058186D01*
X0206406Y0058180D01*
X0206318Y0058178D01*
X0206230Y0058180D01*
X0206142Y0058186D01*
X0206054Y0058196D01*
X0205966Y0058210D01*
X0205880Y0058227D01*
X0205794Y0058249D01*
X0205710Y0058274D01*
X0205626Y0058304D01*
X0205544Y0058336D01*
X0205464Y0058373D01*
X0205385Y0058413D01*
X0205308Y0058457D01*
X0205233Y0058504D01*
X0205161Y0058554D01*
X0205090Y0058608D01*
X0205023Y0058664D01*
X0204957Y0058724D01*
X0204895Y0058786D01*
X0204835Y0058852D01*
X0204779Y0058919D01*
X0204725Y0058990D01*
X0204675Y0059062D01*
X0204628Y0059137D01*
X0204584Y0059214D01*
X0204544Y0059293D01*
X0204507Y0059373D01*
X0204475Y0059455D01*
X0204445Y0059539D01*
X0204420Y0059623D01*
X0204398Y0059709D01*
X0204381Y0059795D01*
X0204367Y0059883D01*
X0204357Y0059971D01*
X0204351Y0060059D01*
X0204349Y0060147D01*
X0204349Y0091564D02*
X0204351Y0091652D01*
X0204357Y0091740D01*
X0204367Y0091828D01*
X0204381Y0091916D01*
X0204398Y0092002D01*
X0204420Y0092088D01*
X0204445Y0092172D01*
X0204475Y0092256D01*
X0204507Y0092338D01*
X0204544Y0092418D01*
X0204584Y0092497D01*
X0204628Y0092574D01*
X0204675Y0092649D01*
X0204725Y0092721D01*
X0204779Y0092792D01*
X0204835Y0092859D01*
X0204895Y0092925D01*
X0204957Y0092987D01*
X0205023Y0093047D01*
X0205090Y0093103D01*
X0205161Y0093157D01*
X0205233Y0093207D01*
X0205308Y0093254D01*
X0205385Y0093298D01*
X0205464Y0093338D01*
X0205544Y0093375D01*
X0205626Y0093407D01*
X0205710Y0093437D01*
X0205794Y0093462D01*
X0205880Y0093484D01*
X0205966Y0093501D01*
X0206054Y0093515D01*
X0206142Y0093525D01*
X0206230Y0093531D01*
X0206318Y0093533D01*
X0206406Y0093531D01*
X0206494Y0093525D01*
X0206582Y0093515D01*
X0206670Y0093501D01*
X0206756Y0093484D01*
X0206842Y0093462D01*
X0206926Y0093437D01*
X0207010Y0093407D01*
X0207092Y0093375D01*
X0207172Y0093338D01*
X0207251Y0093298D01*
X0207328Y0093254D01*
X0207403Y0093207D01*
X0207475Y0093157D01*
X0207546Y0093103D01*
X0207613Y0093047D01*
X0207679Y0092987D01*
X0207741Y0092925D01*
X0207801Y0092859D01*
X0207857Y0092792D01*
X0207911Y0092721D01*
X0207961Y0092649D01*
X0208008Y0092574D01*
X0208052Y0092497D01*
X0208092Y0092418D01*
X0208129Y0092338D01*
X0208161Y0092256D01*
X0208191Y0092172D01*
X0208216Y0092088D01*
X0208238Y0092002D01*
X0208255Y0091916D01*
X0208269Y0091828D01*
X0208279Y0091740D01*
X0208285Y0091652D01*
X0208287Y0091564D01*
X0208285Y0091476D01*
X0208279Y0091388D01*
X0208269Y0091300D01*
X0208255Y0091212D01*
X0208238Y0091126D01*
X0208216Y0091040D01*
X0208191Y0090956D01*
X0208161Y0090872D01*
X0208129Y0090790D01*
X0208092Y0090710D01*
X0208052Y0090631D01*
X0208008Y0090554D01*
X0207961Y0090479D01*
X0207911Y0090407D01*
X0207857Y0090336D01*
X0207801Y0090269D01*
X0207741Y0090203D01*
X0207679Y0090141D01*
X0207613Y0090081D01*
X0207546Y0090025D01*
X0207475Y0089971D01*
X0207403Y0089921D01*
X0207328Y0089874D01*
X0207251Y0089830D01*
X0207172Y0089790D01*
X0207092Y0089753D01*
X0207010Y0089721D01*
X0206926Y0089691D01*
X0206842Y0089666D01*
X0206756Y0089644D01*
X0206670Y0089627D01*
X0206582Y0089613D01*
X0206494Y0089603D01*
X0206406Y0089597D01*
X0206318Y0089595D01*
X0206230Y0089597D01*
X0206142Y0089603D01*
X0206054Y0089613D01*
X0205966Y0089627D01*
X0205880Y0089644D01*
X0205794Y0089666D01*
X0205710Y0089691D01*
X0205626Y0089721D01*
X0205544Y0089753D01*
X0205464Y0089790D01*
X0205385Y0089830D01*
X0205308Y0089874D01*
X0205233Y0089921D01*
X0205161Y0089971D01*
X0205090Y0090025D01*
X0205023Y0090081D01*
X0204957Y0090141D01*
X0204895Y0090203D01*
X0204835Y0090269D01*
X0204779Y0090336D01*
X0204725Y0090407D01*
X0204675Y0090479D01*
X0204628Y0090554D01*
X0204584Y0090631D01*
X0204544Y0090710D01*
X0204507Y0090790D01*
X0204475Y0090872D01*
X0204445Y0090956D01*
X0204420Y0091040D01*
X0204398Y0091126D01*
X0204381Y0091212D01*
X0204367Y0091300D01*
X0204357Y0091388D01*
X0204351Y0091476D01*
X0204349Y0091564D01*
D11*
X0229546Y0033690D02*
X0178365Y0033690D01*
X0178365Y0026800D01*
X0001200Y0030343D01*
X0001200Y0030300D02*
X0001200Y0164300D01*
X0001200Y0164202D02*
X0178365Y0168532D01*
X0178365Y0167745D02*
X0178365Y0160658D01*
X0229546Y0160658D01*
X0229546Y0033690D01*
D12*
X0153666Y0142850D02*
X0154650Y0143834D01*
X0153666Y0142850D02*
X0151697Y0142850D01*
X0150713Y0143834D01*
X0150713Y0144818D01*
X0151697Y0145803D01*
X0153666Y0145803D01*
X0154650Y0146787D01*
X0154650Y0147771D01*
X0153666Y0148755D01*
X0151697Y0148755D01*
X0150713Y0147771D01*
X0148205Y0148755D02*
X0145252Y0148755D01*
X0144268Y0147771D01*
X0144268Y0143834D01*
X0145252Y0142850D01*
X0148205Y0142850D01*
X0148205Y0148755D01*
X0141759Y0147771D02*
X0140775Y0148755D01*
X0138806Y0148755D01*
X0137822Y0147771D01*
X0137822Y0146787D01*
X0141759Y0142850D01*
X0137822Y0142850D01*
X0135314Y0142850D02*
X0133345Y0142850D01*
X0134329Y0142850D02*
X0134329Y0148755D01*
X0133345Y0148755D02*
X0135314Y0148755D01*
X0131017Y0148755D02*
X0131017Y0142850D01*
X0127080Y0142850D01*
X0124571Y0143834D02*
X0123587Y0142850D01*
X0121618Y0142850D01*
X0120634Y0143834D01*
X0124571Y0143834D02*
X0124571Y0147771D01*
X0123587Y0148755D01*
X0121618Y0148755D01*
X0120634Y0147771D01*
X0127080Y0148755D02*
X0131017Y0148755D01*
X0131017Y0145803D02*
X0129048Y0145803D01*
X0111680Y0148755D02*
X0107743Y0148755D01*
X0109712Y0148755D02*
X0109712Y0142850D01*
X0105235Y0142850D02*
X0103266Y0142850D01*
X0104250Y0142850D02*
X0104250Y0146787D01*
X0105235Y0146787D01*
X0104250Y0148755D02*
X0104250Y0149739D01*
X0100938Y0145803D02*
X0099953Y0146787D01*
X0097001Y0146787D01*
X0094492Y0148755D02*
X0090555Y0148755D01*
X0092524Y0148755D02*
X0092524Y0142850D01*
X0088047Y0143834D02*
X0087062Y0144818D01*
X0084110Y0144818D01*
X0084110Y0145803D02*
X0084110Y0142850D01*
X0087062Y0142850D01*
X0088047Y0143834D01*
X0087062Y0146787D02*
X0085094Y0146787D01*
X0084110Y0145803D01*
X0081601Y0145803D02*
X0081601Y0143834D01*
X0080617Y0142850D01*
X0077664Y0142850D01*
X0077664Y0146787D02*
X0080617Y0146787D01*
X0081601Y0145803D01*
X0068710Y0144818D02*
X0065758Y0144818D01*
X0064773Y0145803D01*
X0064773Y0147771D01*
X0065758Y0148755D01*
X0068710Y0148755D01*
X0068710Y0142850D01*
X0066742Y0144818D02*
X0064773Y0142850D01*
X0062265Y0143834D02*
X0062265Y0145803D01*
X0061280Y0146787D01*
X0059312Y0146787D01*
X0058328Y0145803D01*
X0058328Y0144818D01*
X0062265Y0144818D01*
X0062265Y0143834D02*
X0061280Y0142850D01*
X0059312Y0142850D01*
X0055819Y0146787D02*
X0053851Y0142850D01*
X0051882Y0146787D01*
X0049374Y0143834D02*
X0048389Y0143834D01*
X0048389Y0142850D01*
X0049374Y0142850D01*
X0049374Y0143834D01*
X0039705Y0142850D02*
X0035769Y0142850D01*
X0037737Y0142850D02*
X0037737Y0148755D01*
X0039705Y0146787D01*
X0033260Y0143834D02*
X0032276Y0143834D01*
X0032276Y0142850D01*
X0033260Y0142850D01*
X0033260Y0143834D01*
X0030037Y0142850D02*
X0026100Y0142850D01*
X0028069Y0142850D02*
X0028069Y0148755D01*
X0030037Y0146787D01*
X0027993Y0128755D02*
X0026024Y0128755D01*
X0025040Y0127771D01*
X0025040Y0126787D01*
X0028977Y0122850D01*
X0025040Y0122850D01*
X0031486Y0123834D02*
X0032470Y0122850D01*
X0034438Y0122850D01*
X0035423Y0123834D01*
X0031486Y0127771D01*
X0031486Y0123834D01*
X0035423Y0123834D02*
X0035423Y0127771D01*
X0034438Y0128755D01*
X0032470Y0128755D01*
X0031486Y0127771D01*
X0028977Y0127771D02*
X0027993Y0128755D01*
X0037931Y0125803D02*
X0041868Y0125803D01*
X0044377Y0127771D02*
X0048314Y0123834D01*
X0047329Y0122850D01*
X0045361Y0122850D01*
X0044377Y0123834D01*
X0044377Y0127771D01*
X0045361Y0128755D01*
X0047329Y0128755D01*
X0048314Y0127771D01*
X0048314Y0123834D01*
X0050822Y0122850D02*
X0054759Y0122850D01*
X0050822Y0126787D01*
X0050822Y0127771D01*
X0051806Y0128755D01*
X0053775Y0128755D01*
X0054759Y0127771D01*
X0057268Y0127771D02*
X0061205Y0123834D01*
X0060220Y0122850D01*
X0058252Y0122850D01*
X0057268Y0123834D01*
X0057268Y0127771D01*
X0058252Y0128755D01*
X0060220Y0128755D01*
X0061205Y0127771D01*
X0061205Y0123834D01*
X0063713Y0122850D02*
X0067650Y0122850D01*
X0063713Y0126787D01*
X0063713Y0127771D01*
X0064697Y0128755D01*
X0066666Y0128755D01*
X0067650Y0127771D01*
X0097001Y0142850D02*
X0099953Y0142850D01*
X0100938Y0143834D01*
X0100938Y0145803D01*
D13*
X0068407Y0112719D02*
X0067839Y0112719D01*
X0065571Y0110451D01*
X0065571Y0112719D01*
X0068407Y0112719D02*
X0068974Y0112152D01*
X0068974Y0111018D01*
X0068407Y0110451D01*
X0068974Y0107902D02*
X0065571Y0107902D01*
X0065571Y0109036D02*
X0065571Y0106767D01*
X0065571Y0105353D02*
X0066705Y0104219D01*
X0066705Y0104786D02*
X0066705Y0103084D01*
X0065571Y0103084D02*
X0068974Y0103084D01*
X0068974Y0104786D01*
X0068407Y0105353D01*
X0067272Y0105353D01*
X0066705Y0104786D01*
X0067839Y0106767D02*
X0068974Y0107902D01*
X0045274Y0106346D02*
X0043006Y0106346D01*
X0044140Y0106346D02*
X0044140Y0102943D01*
X0041591Y0104645D02*
X0039322Y0104645D01*
X0039890Y0106346D02*
X0039890Y0102943D01*
X0041591Y0104645D02*
X0039890Y0106346D01*
X0032863Y0099877D02*
X0031161Y0099877D01*
X0030594Y0099310D01*
X0030594Y0098176D01*
X0031161Y0097608D01*
X0032863Y0097608D01*
X0032863Y0096474D02*
X0032863Y0099877D01*
X0031729Y0097608D02*
X0030594Y0096474D01*
X0029180Y0096474D02*
X0026911Y0096474D01*
X0028045Y0096474D02*
X0028045Y0099877D01*
X0029180Y0098743D01*
X0025497Y0098743D02*
X0024362Y0099877D01*
X0024362Y0096474D01*
X0023228Y0096474D02*
X0025497Y0096474D01*
X0026598Y0091432D02*
X0028300Y0089731D01*
X0026031Y0089731D01*
X0026598Y0088029D02*
X0026598Y0091432D01*
X0029714Y0090865D02*
X0029714Y0089731D01*
X0030281Y0089164D01*
X0031983Y0089164D01*
X0030849Y0089164D02*
X0029714Y0088029D01*
X0031983Y0088029D02*
X0031983Y0091432D01*
X0030281Y0091432D01*
X0029714Y0090865D01*
X0030115Y0082070D02*
X0027846Y0082070D01*
X0027846Y0081503D01*
X0030115Y0079234D01*
X0030115Y0078667D01*
X0031529Y0078667D02*
X0032663Y0079801D01*
X0032096Y0079801D02*
X0033798Y0079801D01*
X0033798Y0078667D02*
X0033798Y0082070D01*
X0032096Y0082070D01*
X0031529Y0081503D01*
X0031529Y0080368D01*
X0032096Y0079801D01*
X0032970Y0074007D02*
X0032403Y0073440D01*
X0032403Y0072305D01*
X0032970Y0071738D01*
X0034672Y0071738D01*
X0034672Y0070604D02*
X0034672Y0074007D01*
X0032970Y0074007D01*
X0030989Y0073440D02*
X0030422Y0074007D01*
X0029287Y0074007D01*
X0028720Y0073440D01*
X0028720Y0072873D01*
X0030989Y0070604D01*
X0028720Y0070604D01*
X0032403Y0070604D02*
X0033538Y0071738D01*
X0041500Y0068279D02*
X0041500Y0067712D01*
X0043768Y0065443D01*
X0041500Y0065443D01*
X0046317Y0065443D02*
X0046317Y0068846D01*
X0047451Y0068846D02*
X0045183Y0068846D01*
X0043768Y0068279D02*
X0043201Y0068846D01*
X0042067Y0068846D01*
X0041500Y0068279D01*
X0035361Y0061936D02*
X0033659Y0061936D01*
X0033092Y0061369D01*
X0033092Y0060235D01*
X0033659Y0059667D01*
X0035361Y0059667D01*
X0035361Y0058533D02*
X0035361Y0061936D01*
X0034226Y0059667D02*
X0033092Y0058533D01*
X0031678Y0059100D02*
X0031110Y0058533D01*
X0029976Y0058533D01*
X0029409Y0059100D01*
X0029409Y0061369D01*
X0029976Y0061936D01*
X0031110Y0061936D01*
X0031678Y0061369D01*
X0031678Y0060802D01*
X0031110Y0060235D01*
X0029409Y0060235D01*
X0029972Y0052747D02*
X0029405Y0052180D01*
X0029405Y0051613D01*
X0029972Y0051046D01*
X0029405Y0050478D01*
X0029405Y0049911D01*
X0029972Y0049344D01*
X0031107Y0049344D01*
X0031674Y0049911D01*
X0033088Y0049344D02*
X0034223Y0050478D01*
X0033655Y0050478D02*
X0035357Y0050478D01*
X0035357Y0049344D02*
X0035357Y0052747D01*
X0033655Y0052747D01*
X0033088Y0052180D01*
X0033088Y0051046D01*
X0033655Y0050478D01*
X0031674Y0052180D02*
X0031107Y0052747D01*
X0029972Y0052747D01*
X0029972Y0051046D02*
X0030539Y0051046D01*
X0039818Y0046468D02*
X0039818Y0045901D01*
X0040386Y0045334D01*
X0039818Y0044767D01*
X0039818Y0044200D01*
X0040386Y0043632D01*
X0041520Y0043632D01*
X0042087Y0044200D01*
X0040953Y0045334D02*
X0040386Y0045334D01*
X0039818Y0046468D02*
X0040386Y0047035D01*
X0041520Y0047035D01*
X0042087Y0046468D01*
X0043502Y0047035D02*
X0045770Y0047035D01*
X0044636Y0047035D02*
X0044636Y0043632D01*
X0073185Y0053821D02*
X0076588Y0053821D01*
X0076588Y0055522D01*
X0076021Y0056089D01*
X0074886Y0056089D01*
X0074319Y0055522D01*
X0074319Y0053821D01*
X0074319Y0054955D02*
X0073185Y0056089D01*
X0073185Y0057504D02*
X0073185Y0059772D01*
X0073185Y0058638D02*
X0076588Y0058638D01*
X0075454Y0057504D01*
X0076021Y0061187D02*
X0073752Y0061187D01*
X0076021Y0063455D01*
X0073752Y0063455D01*
X0073185Y0062888D01*
X0073185Y0061754D01*
X0073752Y0061187D01*
X0076021Y0061187D02*
X0076588Y0061754D01*
X0076588Y0062888D01*
X0076021Y0063455D01*
X0076352Y0074935D02*
X0072949Y0074935D01*
X0074083Y0074935D02*
X0074083Y0076636D01*
X0074650Y0077203D01*
X0075785Y0077203D01*
X0076352Y0076636D01*
X0076352Y0074935D01*
X0074083Y0076069D02*
X0072949Y0077203D01*
X0073516Y0078618D02*
X0072949Y0079185D01*
X0072949Y0080319D01*
X0073516Y0080886D01*
X0074083Y0080886D01*
X0074650Y0080319D01*
X0074650Y0079185D01*
X0075217Y0078618D01*
X0075785Y0078618D01*
X0076352Y0079185D01*
X0076352Y0080319D01*
X0075785Y0080886D01*
X0075217Y0080886D01*
X0074650Y0080319D01*
X0074650Y0079185D02*
X0074083Y0078618D01*
X0073516Y0078618D01*
M02*
