G75*
%MOIN*%
%OFA0B0*%
%FSLAX25Y25*%
%IPPOS*%
%LPD*%
%AMOC8*
5,1,8,0,0,1.08239X$1,22.5*
%
%ADD10C,0.00000*%
%ADD11OC8,0.03962*%
%ADD12C,0.03962*%
%ADD13OC8,0.04750*%
%ADD14C,0.05000*%
%ADD15R,0.05118X0.05906*%
%ADD16C,0.04800*%
%ADD17C,0.00689*%
%ADD18R,0.05906X0.05118*%
%ADD19C,0.01000*%
%ADD20C,0.01600*%
%ADD21C,0.04000*%
%ADD22C,0.01200*%
%ADD23C,0.02400*%
%ADD24C,0.04362*%
D10*
X0001200Y0026800D02*
X0001200Y0168532D01*
X0229546Y0168532D01*
X0229546Y0026800D01*
X0001200Y0026800D01*
X0204349Y0060147D02*
X0204351Y0060235D01*
X0204357Y0060323D01*
X0204367Y0060411D01*
X0204381Y0060499D01*
X0204398Y0060585D01*
X0204420Y0060671D01*
X0204445Y0060755D01*
X0204475Y0060839D01*
X0204507Y0060921D01*
X0204544Y0061001D01*
X0204584Y0061080D01*
X0204628Y0061157D01*
X0204675Y0061232D01*
X0204725Y0061304D01*
X0204779Y0061375D01*
X0204835Y0061442D01*
X0204895Y0061508D01*
X0204957Y0061570D01*
X0205023Y0061630D01*
X0205090Y0061686D01*
X0205161Y0061740D01*
X0205233Y0061790D01*
X0205308Y0061837D01*
X0205385Y0061881D01*
X0205464Y0061921D01*
X0205544Y0061958D01*
X0205626Y0061990D01*
X0205710Y0062020D01*
X0205794Y0062045D01*
X0205880Y0062067D01*
X0205966Y0062084D01*
X0206054Y0062098D01*
X0206142Y0062108D01*
X0206230Y0062114D01*
X0206318Y0062116D01*
X0206406Y0062114D01*
X0206494Y0062108D01*
X0206582Y0062098D01*
X0206670Y0062084D01*
X0206756Y0062067D01*
X0206842Y0062045D01*
X0206926Y0062020D01*
X0207010Y0061990D01*
X0207092Y0061958D01*
X0207172Y0061921D01*
X0207251Y0061881D01*
X0207328Y0061837D01*
X0207403Y0061790D01*
X0207475Y0061740D01*
X0207546Y0061686D01*
X0207613Y0061630D01*
X0207679Y0061570D01*
X0207741Y0061508D01*
X0207801Y0061442D01*
X0207857Y0061375D01*
X0207911Y0061304D01*
X0207961Y0061232D01*
X0208008Y0061157D01*
X0208052Y0061080D01*
X0208092Y0061001D01*
X0208129Y0060921D01*
X0208161Y0060839D01*
X0208191Y0060755D01*
X0208216Y0060671D01*
X0208238Y0060585D01*
X0208255Y0060499D01*
X0208269Y0060411D01*
X0208279Y0060323D01*
X0208285Y0060235D01*
X0208287Y0060147D01*
X0208285Y0060059D01*
X0208279Y0059971D01*
X0208269Y0059883D01*
X0208255Y0059795D01*
X0208238Y0059709D01*
X0208216Y0059623D01*
X0208191Y0059539D01*
X0208161Y0059455D01*
X0208129Y0059373D01*
X0208092Y0059293D01*
X0208052Y0059214D01*
X0208008Y0059137D01*
X0207961Y0059062D01*
X0207911Y0058990D01*
X0207857Y0058919D01*
X0207801Y0058852D01*
X0207741Y0058786D01*
X0207679Y0058724D01*
X0207613Y0058664D01*
X0207546Y0058608D01*
X0207475Y0058554D01*
X0207403Y0058504D01*
X0207328Y0058457D01*
X0207251Y0058413D01*
X0207172Y0058373D01*
X0207092Y0058336D01*
X0207010Y0058304D01*
X0206926Y0058274D01*
X0206842Y0058249D01*
X0206756Y0058227D01*
X0206670Y0058210D01*
X0206582Y0058196D01*
X0206494Y0058186D01*
X0206406Y0058180D01*
X0206318Y0058178D01*
X0206230Y0058180D01*
X0206142Y0058186D01*
X0206054Y0058196D01*
X0205966Y0058210D01*
X0205880Y0058227D01*
X0205794Y0058249D01*
X0205710Y0058274D01*
X0205626Y0058304D01*
X0205544Y0058336D01*
X0205464Y0058373D01*
X0205385Y0058413D01*
X0205308Y0058457D01*
X0205233Y0058504D01*
X0205161Y0058554D01*
X0205090Y0058608D01*
X0205023Y0058664D01*
X0204957Y0058724D01*
X0204895Y0058786D01*
X0204835Y0058852D01*
X0204779Y0058919D01*
X0204725Y0058990D01*
X0204675Y0059062D01*
X0204628Y0059137D01*
X0204584Y0059214D01*
X0204544Y0059293D01*
X0204507Y0059373D01*
X0204475Y0059455D01*
X0204445Y0059539D01*
X0204420Y0059623D01*
X0204398Y0059709D01*
X0204381Y0059795D01*
X0204367Y0059883D01*
X0204357Y0059971D01*
X0204351Y0060059D01*
X0204349Y0060147D01*
X0204349Y0091564D02*
X0204351Y0091652D01*
X0204357Y0091740D01*
X0204367Y0091828D01*
X0204381Y0091916D01*
X0204398Y0092002D01*
X0204420Y0092088D01*
X0204445Y0092172D01*
X0204475Y0092256D01*
X0204507Y0092338D01*
X0204544Y0092418D01*
X0204584Y0092497D01*
X0204628Y0092574D01*
X0204675Y0092649D01*
X0204725Y0092721D01*
X0204779Y0092792D01*
X0204835Y0092859D01*
X0204895Y0092925D01*
X0204957Y0092987D01*
X0205023Y0093047D01*
X0205090Y0093103D01*
X0205161Y0093157D01*
X0205233Y0093207D01*
X0205308Y0093254D01*
X0205385Y0093298D01*
X0205464Y0093338D01*
X0205544Y0093375D01*
X0205626Y0093407D01*
X0205710Y0093437D01*
X0205794Y0093462D01*
X0205880Y0093484D01*
X0205966Y0093501D01*
X0206054Y0093515D01*
X0206142Y0093525D01*
X0206230Y0093531D01*
X0206318Y0093533D01*
X0206406Y0093531D01*
X0206494Y0093525D01*
X0206582Y0093515D01*
X0206670Y0093501D01*
X0206756Y0093484D01*
X0206842Y0093462D01*
X0206926Y0093437D01*
X0207010Y0093407D01*
X0207092Y0093375D01*
X0207172Y0093338D01*
X0207251Y0093298D01*
X0207328Y0093254D01*
X0207403Y0093207D01*
X0207475Y0093157D01*
X0207546Y0093103D01*
X0207613Y0093047D01*
X0207679Y0092987D01*
X0207741Y0092925D01*
X0207801Y0092859D01*
X0207857Y0092792D01*
X0207911Y0092721D01*
X0207961Y0092649D01*
X0208008Y0092574D01*
X0208052Y0092497D01*
X0208092Y0092418D01*
X0208129Y0092338D01*
X0208161Y0092256D01*
X0208191Y0092172D01*
X0208216Y0092088D01*
X0208238Y0092002D01*
X0208255Y0091916D01*
X0208269Y0091828D01*
X0208279Y0091740D01*
X0208285Y0091652D01*
X0208287Y0091564D01*
X0208285Y0091476D01*
X0208279Y0091388D01*
X0208269Y0091300D01*
X0208255Y0091212D01*
X0208238Y0091126D01*
X0208216Y0091040D01*
X0208191Y0090956D01*
X0208161Y0090872D01*
X0208129Y0090790D01*
X0208092Y0090710D01*
X0208052Y0090631D01*
X0208008Y0090554D01*
X0207961Y0090479D01*
X0207911Y0090407D01*
X0207857Y0090336D01*
X0207801Y0090269D01*
X0207741Y0090203D01*
X0207679Y0090141D01*
X0207613Y0090081D01*
X0207546Y0090025D01*
X0207475Y0089971D01*
X0207403Y0089921D01*
X0207328Y0089874D01*
X0207251Y0089830D01*
X0207172Y0089790D01*
X0207092Y0089753D01*
X0207010Y0089721D01*
X0206926Y0089691D01*
X0206842Y0089666D01*
X0206756Y0089644D01*
X0206670Y0089627D01*
X0206582Y0089613D01*
X0206494Y0089603D01*
X0206406Y0089597D01*
X0206318Y0089595D01*
X0206230Y0089597D01*
X0206142Y0089603D01*
X0206054Y0089613D01*
X0205966Y0089627D01*
X0205880Y0089644D01*
X0205794Y0089666D01*
X0205710Y0089691D01*
X0205626Y0089721D01*
X0205544Y0089753D01*
X0205464Y0089790D01*
X0205385Y0089830D01*
X0205308Y0089874D01*
X0205233Y0089921D01*
X0205161Y0089971D01*
X0205090Y0090025D01*
X0205023Y0090081D01*
X0204957Y0090141D01*
X0204895Y0090203D01*
X0204835Y0090269D01*
X0204779Y0090336D01*
X0204725Y0090407D01*
X0204675Y0090479D01*
X0204628Y0090554D01*
X0204584Y0090631D01*
X0204544Y0090710D01*
X0204507Y0090790D01*
X0204475Y0090872D01*
X0204445Y0090956D01*
X0204420Y0091040D01*
X0204398Y0091126D01*
X0204381Y0091212D01*
X0204367Y0091300D01*
X0204357Y0091388D01*
X0204351Y0091476D01*
X0204349Y0091564D01*
D11*
X0149948Y0066493D03*
D12*
X0149948Y0061493D03*
X0149948Y0056493D03*
X0149948Y0051493D03*
X0149948Y0046493D03*
X0149948Y0041493D03*
D13*
X0014850Y0071935D03*
D14*
X0024850Y0067560D03*
X0014850Y0062560D03*
X0024850Y0057560D03*
X0014850Y0052560D03*
X0024850Y0047560D03*
D15*
X0051550Y0051544D03*
X0059031Y0051544D03*
X0059535Y0060233D03*
X0052054Y0060233D03*
X0051865Y0073304D03*
X0059346Y0073304D03*
X0059472Y0081367D03*
X0051991Y0081367D03*
X0052176Y0090229D03*
X0059657Y0090229D03*
X0059854Y0098674D03*
X0052373Y0098674D03*
D16*
X0125767Y0096300D03*
X0125767Y0115300D03*
D17*
X0047492Y0100070D02*
X0045424Y0100070D01*
X0047492Y0100070D02*
X0047492Y0097216D01*
X0045424Y0097216D01*
X0045424Y0100070D01*
X0045424Y0097904D02*
X0047492Y0097904D01*
X0047492Y0098592D02*
X0045424Y0098592D01*
X0045424Y0099280D02*
X0047492Y0099280D01*
X0047492Y0099968D02*
X0045424Y0099968D01*
X0039992Y0100071D02*
X0037924Y0100071D01*
X0039992Y0100071D02*
X0039992Y0097217D01*
X0037924Y0097217D01*
X0037924Y0100071D01*
X0037924Y0097905D02*
X0039992Y0097905D01*
X0039992Y0098593D02*
X0037924Y0098593D01*
X0037924Y0099281D02*
X0039992Y0099281D01*
X0039992Y0099969D02*
X0037924Y0099969D01*
X0041674Y0091320D02*
X0043742Y0091320D01*
X0043742Y0088466D01*
X0041674Y0088466D01*
X0041674Y0091320D01*
X0041674Y0089154D02*
X0043742Y0089154D01*
X0043742Y0089842D02*
X0041674Y0089842D01*
X0041674Y0090530D02*
X0043742Y0090530D01*
X0043742Y0091218D02*
X0041674Y0091218D01*
X0039669Y0082571D02*
X0037601Y0082571D01*
X0039669Y0082571D02*
X0039669Y0079717D01*
X0037601Y0079717D01*
X0037601Y0082571D01*
X0037601Y0080405D02*
X0039669Y0080405D01*
X0039669Y0081093D02*
X0037601Y0081093D01*
X0037601Y0081781D02*
X0039669Y0081781D01*
X0039669Y0082469D02*
X0037601Y0082469D01*
X0045101Y0082570D02*
X0047169Y0082570D01*
X0047169Y0079716D01*
X0045101Y0079716D01*
X0045101Y0082570D01*
X0045101Y0080404D02*
X0047169Y0080404D01*
X0047169Y0081092D02*
X0045101Y0081092D01*
X0045101Y0081780D02*
X0047169Y0081780D01*
X0047169Y0082468D02*
X0045101Y0082468D01*
X0043419Y0073820D02*
X0041351Y0073820D01*
X0043419Y0073820D02*
X0043419Y0070966D01*
X0041351Y0070966D01*
X0041351Y0073820D01*
X0041351Y0071654D02*
X0043419Y0071654D01*
X0043419Y0072342D02*
X0041351Y0072342D01*
X0041351Y0073030D02*
X0043419Y0073030D01*
X0043419Y0073718D02*
X0041351Y0073718D01*
X0039488Y0061760D02*
X0037420Y0061760D01*
X0039488Y0061760D02*
X0039488Y0058906D01*
X0037420Y0058906D01*
X0037420Y0061760D01*
X0037420Y0059594D02*
X0039488Y0059594D01*
X0039488Y0060282D02*
X0037420Y0060282D01*
X0037420Y0060970D02*
X0039488Y0060970D01*
X0039488Y0061658D02*
X0037420Y0061658D01*
X0044920Y0061759D02*
X0046988Y0061759D01*
X0046988Y0058905D01*
X0044920Y0058905D01*
X0044920Y0061759D01*
X0044920Y0059593D02*
X0046988Y0059593D01*
X0046988Y0060281D02*
X0044920Y0060281D01*
X0044920Y0060969D02*
X0046988Y0060969D01*
X0046988Y0061657D02*
X0044920Y0061657D01*
X0043238Y0053009D02*
X0041170Y0053009D01*
X0043238Y0053009D02*
X0043238Y0050155D01*
X0041170Y0050155D01*
X0041170Y0053009D01*
X0041170Y0050843D02*
X0043238Y0050843D01*
X0043238Y0051531D02*
X0041170Y0051531D01*
X0041170Y0052219D02*
X0043238Y0052219D01*
X0043238Y0052907D02*
X0041170Y0052907D01*
D18*
X0067885Y0052280D03*
X0067885Y0059761D03*
X0067649Y0073395D03*
X0067649Y0080875D03*
X0067271Y0090544D03*
X0067271Y0098025D03*
D19*
X0067200Y0098300D01*
X0063200Y0098300D01*
X0060600Y0098300D01*
X0059854Y0098674D01*
X0060354Y0098693D02*
X0062818Y0098693D01*
X0062818Y0098524D02*
X0066771Y0098524D01*
X0066771Y0097525D01*
X0063913Y0097525D01*
X0063913Y0098174D01*
X0060354Y0098174D01*
X0060354Y0099174D01*
X0062818Y0099174D01*
X0062818Y0098524D01*
X0063913Y0097694D02*
X0066771Y0097694D01*
X0066771Y0098525D02*
X0066771Y0102084D01*
X0064121Y0102084D01*
X0064114Y0102082D01*
X0064837Y0102804D01*
X0065208Y0103700D01*
X0081192Y0103700D01*
X0081563Y0102804D01*
X0082200Y0102167D01*
X0082200Y0100303D01*
X0082581Y0099384D01*
X0083284Y0098681D01*
X0085985Y0095980D01*
X0085936Y0096000D01*
X0084464Y0096000D01*
X0083104Y0095437D01*
X0082063Y0094396D01*
X0081500Y0093036D01*
X0081500Y0091564D01*
X0082063Y0090204D01*
X0083104Y0089163D01*
X0084464Y0088600D01*
X0084767Y0088600D01*
X0084563Y0088396D01*
X0084000Y0087036D01*
X0084000Y0085564D01*
X0084563Y0084204D01*
X0085604Y0083163D01*
X0086964Y0082600D01*
X0088147Y0082600D01*
X0089900Y0080847D01*
X0089900Y0063733D01*
X0089063Y0062896D01*
X0088500Y0061536D01*
X0088500Y0060064D01*
X0089063Y0058704D01*
X0090104Y0057663D01*
X0091464Y0057100D01*
X0092936Y0057100D01*
X0094296Y0057663D01*
X0095337Y0058704D01*
X0095900Y0060064D01*
X0095900Y0061536D01*
X0095337Y0062896D01*
X0094500Y0063733D01*
X0094500Y0081610D01*
X0100900Y0075009D01*
X0100900Y0071933D01*
X0099963Y0070996D01*
X0099400Y0069636D01*
X0099400Y0068164D01*
X0099963Y0066804D01*
X0101004Y0065763D01*
X0102364Y0065200D01*
X0103836Y0065200D01*
X0105196Y0065763D01*
X0106237Y0066804D01*
X0106629Y0067752D01*
X0107063Y0066704D01*
X0107700Y0066067D01*
X0107700Y0062529D01*
X0092289Y0047118D01*
X0066933Y0047118D01*
X0066296Y0047755D01*
X0065652Y0048021D01*
X0071542Y0048021D01*
X0072538Y0049017D01*
X0072538Y0051500D01*
X0079653Y0051500D01*
X0081000Y0052847D01*
X0083000Y0054847D01*
X0083000Y0063753D01*
X0081653Y0065100D01*
X0081500Y0065253D01*
X0081500Y0079367D01*
X0082337Y0080204D01*
X0082900Y0081564D01*
X0082900Y0083036D01*
X0082337Y0084396D01*
X0081296Y0085437D01*
X0079936Y0086000D01*
X0078464Y0086000D01*
X0077104Y0085437D01*
X0076450Y0084783D01*
X0076000Y0085233D01*
X0076000Y0085584D01*
X0076200Y0086067D01*
X0076200Y0090797D01*
X0075819Y0091716D01*
X0075116Y0092419D01*
X0074197Y0092800D01*
X0073203Y0092800D01*
X0072166Y0092800D01*
X0072137Y0092811D01*
X0071924Y0092806D01*
X0071924Y0093807D01*
X0071305Y0094426D01*
X0071424Y0094544D01*
X0071621Y0094886D01*
X0071724Y0095268D01*
X0071724Y0097525D01*
X0067771Y0097525D01*
X0067771Y0098524D01*
X0071724Y0098524D01*
X0071724Y0100781D01*
X0071621Y0101163D01*
X0071424Y0101505D01*
X0071145Y0101784D01*
X0070803Y0101981D01*
X0070421Y0102084D01*
X0067771Y0102084D01*
X0067771Y0098525D01*
X0066771Y0098525D01*
X0066771Y0098693D02*
X0067771Y0098693D01*
X0067771Y0099691D02*
X0066771Y0099691D01*
X0066771Y0100690D02*
X0067771Y0100690D01*
X0067771Y0101688D02*
X0066771Y0101688D01*
X0064719Y0102687D02*
X0081681Y0102687D01*
X0081198Y0103685D02*
X0065202Y0103685D01*
X0062503Y0108700D02*
X0062261Y0108600D01*
X0060964Y0108600D01*
X0059604Y0108037D01*
X0058563Y0106996D01*
X0058000Y0105636D01*
X0058000Y0104164D01*
X0058430Y0103127D01*
X0057097Y0103127D01*
X0056716Y0103025D01*
X0056373Y0102827D01*
X0056255Y0102708D01*
X0055636Y0103327D01*
X0049110Y0103327D01*
X0048114Y0102331D01*
X0048114Y0102115D01*
X0044578Y0102115D01*
X0043380Y0100917D01*
X0043380Y0096369D01*
X0044578Y0095172D01*
X0048114Y0095172D01*
X0048114Y0095017D01*
X0048581Y0094550D01*
X0047917Y0093886D01*
X0047917Y0092393D01*
X0045560Y0092393D01*
X0044588Y0093365D01*
X0040828Y0093365D01*
X0039763Y0092300D01*
X0036576Y0092300D01*
X0037100Y0093564D01*
X0037100Y0095036D01*
X0037219Y0095172D01*
X0040838Y0095172D01*
X0042036Y0096370D01*
X0042036Y0100918D01*
X0040838Y0102115D01*
X0037078Y0102115D01*
X0035880Y0100918D01*
X0035880Y0100537D01*
X0035796Y0100532D01*
X0035219Y0099872D01*
X0034600Y0099253D01*
X0034600Y0099164D01*
X0033581Y0098000D01*
X0032664Y0098000D01*
X0031304Y0097437D01*
X0030263Y0096396D01*
X0029700Y0095036D01*
X0029700Y0093564D01*
X0030263Y0092204D01*
X0031304Y0091163D01*
X0032664Y0090600D01*
X0034136Y0090600D01*
X0034326Y0090679D01*
X0018947Y0075300D01*
X0018097Y0074450D01*
X0016537Y0076010D01*
X0013162Y0076010D01*
X0010775Y0073623D01*
X0010775Y0070247D01*
X0013162Y0067860D01*
X0016537Y0067860D01*
X0017600Y0068923D01*
X0017600Y0068453D01*
X0015842Y0066695D01*
X0015685Y0066760D01*
X0014014Y0066760D01*
X0012470Y0066121D01*
X0011289Y0064939D01*
X0010650Y0063395D01*
X0010650Y0061724D01*
X0011289Y0060181D01*
X0012470Y0058999D01*
X0014014Y0058360D01*
X0015685Y0058360D01*
X0017229Y0058999D01*
X0018410Y0060181D01*
X0019050Y0061724D01*
X0019050Y0063395D01*
X0019049Y0063397D01*
X0021310Y0065657D01*
X0021743Y0065010D01*
X0022300Y0064453D01*
X0022955Y0064015D01*
X0023683Y0063714D01*
X0024456Y0063560D01*
X0024562Y0063560D01*
X0024562Y0067272D01*
X0025137Y0067272D01*
X0025137Y0063560D01*
X0025244Y0063560D01*
X0026016Y0063714D01*
X0026744Y0064015D01*
X0027399Y0064453D01*
X0027957Y0065010D01*
X0028394Y0065665D01*
X0028500Y0065920D01*
X0028500Y0063333D01*
X0026299Y0061506D01*
X0025685Y0061760D01*
X0024014Y0061760D01*
X0022470Y0061121D01*
X0021289Y0059939D01*
X0020650Y0058395D01*
X0020650Y0056724D01*
X0021289Y0055181D01*
X0022170Y0054300D01*
X0018675Y0054300D01*
X0018410Y0054939D01*
X0017229Y0056121D01*
X0015685Y0056760D01*
X0014014Y0056760D01*
X0012470Y0056121D01*
X0011289Y0054939D01*
X0010650Y0053395D01*
X0010650Y0051724D01*
X0011289Y0050181D01*
X0012470Y0048999D01*
X0014014Y0048360D01*
X0015685Y0048360D01*
X0017229Y0048999D01*
X0018129Y0049900D01*
X0021273Y0049900D01*
X0020650Y0048395D01*
X0020650Y0046724D01*
X0021289Y0045181D01*
X0022470Y0043999D01*
X0024014Y0043360D01*
X0025685Y0043360D01*
X0027229Y0043999D01*
X0028410Y0045181D01*
X0029050Y0046724D01*
X0029050Y0048395D01*
X0028410Y0049939D01*
X0027930Y0050419D01*
X0028700Y0051189D01*
X0029611Y0052100D01*
X0039126Y0052100D01*
X0039126Y0049308D01*
X0040324Y0048111D01*
X0044084Y0048111D01*
X0045282Y0049308D01*
X0045282Y0049700D01*
X0047291Y0049700D01*
X0047291Y0047887D01*
X0048287Y0046891D01*
X0054814Y0046891D01*
X0055291Y0047368D01*
X0055767Y0046891D01*
X0061241Y0046891D01*
X0061063Y0046714D01*
X0060500Y0045354D01*
X0060500Y0043882D01*
X0061063Y0042522D01*
X0062104Y0041481D01*
X0063464Y0040918D01*
X0064936Y0040918D01*
X0066296Y0041481D01*
X0066933Y0042118D01*
X0093822Y0042118D01*
X0094741Y0042498D01*
X0104157Y0051914D01*
X0104000Y0051536D01*
X0104000Y0050064D01*
X0104563Y0048704D01*
X0105604Y0047663D01*
X0106964Y0047100D01*
X0108436Y0047100D01*
X0109796Y0047663D01*
X0110837Y0048704D01*
X0111400Y0050064D01*
X0111400Y0051047D01*
X0114553Y0054200D01*
X0147035Y0054200D01*
X0147242Y0053993D01*
X0146827Y0053578D01*
X0146267Y0052225D01*
X0146267Y0050761D01*
X0146827Y0049408D01*
X0147242Y0048993D01*
X0146827Y0048578D01*
X0146267Y0047225D01*
X0146267Y0045761D01*
X0146827Y0044408D01*
X0147384Y0043852D01*
X0147244Y0043712D01*
X0146863Y0043142D01*
X0146601Y0042508D01*
X0146467Y0041836D01*
X0146467Y0041584D01*
X0149857Y0041584D01*
X0149857Y0041402D01*
X0150039Y0041402D01*
X0150039Y0041584D01*
X0153429Y0041584D01*
X0153429Y0041836D01*
X0153295Y0042508D01*
X0153033Y0043142D01*
X0152652Y0043712D01*
X0152512Y0043852D01*
X0153069Y0044408D01*
X0153629Y0045761D01*
X0153629Y0047225D01*
X0153069Y0048578D01*
X0152654Y0048993D01*
X0153069Y0049408D01*
X0153629Y0050761D01*
X0153629Y0052225D01*
X0153069Y0053578D01*
X0152654Y0053993D01*
X0155351Y0053993D01*
X0155806Y0053978D01*
X0155846Y0053993D01*
X0155890Y0053993D01*
X0156311Y0054167D01*
X0156737Y0054327D01*
X0156769Y0054357D01*
X0156809Y0054374D01*
X0157131Y0054695D01*
X0170403Y0067100D01*
X0171436Y0067100D01*
X0172796Y0067663D01*
X0173837Y0068704D01*
X0174400Y0070064D01*
X0174400Y0071536D01*
X0173837Y0072896D01*
X0172796Y0073937D01*
X0171436Y0074500D01*
X0169964Y0074500D01*
X0168604Y0073937D01*
X0167563Y0072896D01*
X0167000Y0071536D01*
X0167000Y0070764D01*
X0154406Y0058993D01*
X0152654Y0058993D01*
X0153069Y0059408D01*
X0153629Y0060761D01*
X0153629Y0062225D01*
X0153069Y0063578D01*
X0152654Y0063993D01*
X0153629Y0064968D01*
X0153629Y0068018D01*
X0151473Y0070174D01*
X0148423Y0070174D01*
X0146267Y0068018D01*
X0146267Y0064968D01*
X0147242Y0063993D01*
X0112700Y0063993D01*
X0112700Y0066067D01*
X0113337Y0066704D01*
X0113900Y0068064D01*
X0113900Y0069536D01*
X0113337Y0070896D01*
X0112700Y0071533D01*
X0112700Y0075797D01*
X0112319Y0076716D01*
X0111616Y0077419D01*
X0102791Y0086245D01*
X0103864Y0085800D01*
X0104764Y0085800D01*
X0119366Y0071199D01*
X0119063Y0070896D01*
X0118500Y0069536D01*
X0118500Y0068064D01*
X0119063Y0066704D01*
X0120104Y0065663D01*
X0121464Y0065100D01*
X0122936Y0065100D01*
X0124296Y0065663D01*
X0125337Y0066704D01*
X0125900Y0068064D01*
X0125900Y0069536D01*
X0125337Y0070896D01*
X0124700Y0071533D01*
X0124700Y0072397D01*
X0124319Y0073316D01*
X0123616Y0074019D01*
X0108300Y0089336D01*
X0108300Y0090236D01*
X0107737Y0091596D01*
X0106696Y0092637D01*
X0105706Y0093047D01*
X0059600Y0139153D01*
X0059600Y0142867D01*
X0060437Y0143704D01*
X0061000Y0145064D01*
X0061000Y0146536D01*
X0060437Y0147896D01*
X0059396Y0148937D01*
X0058036Y0149500D01*
X0056564Y0149500D01*
X0055204Y0148937D01*
X0054163Y0147896D01*
X0053600Y0146536D01*
X0053600Y0145064D01*
X0054163Y0143704D01*
X0055000Y0142867D01*
X0055000Y0137247D01*
X0083547Y0108700D01*
X0062503Y0108700D01*
X0062449Y0108678D02*
X0003169Y0108678D01*
X0003169Y0107680D02*
X0059247Y0107680D01*
X0058433Y0106681D02*
X0003169Y0106681D01*
X0003169Y0105682D02*
X0058019Y0105682D01*
X0058000Y0104684D02*
X0003169Y0104684D01*
X0003169Y0103685D02*
X0058198Y0103685D01*
X0048470Y0102687D02*
X0003169Y0102687D01*
X0003169Y0101688D02*
X0036651Y0101688D01*
X0035880Y0100690D02*
X0003169Y0100690D01*
X0003169Y0099691D02*
X0035039Y0099691D01*
X0034188Y0098693D02*
X0003169Y0098693D01*
X0003169Y0097694D02*
X0031926Y0097694D01*
X0030563Y0096696D02*
X0003169Y0096696D01*
X0003169Y0095697D02*
X0029974Y0095697D01*
X0029700Y0094699D02*
X0003169Y0094699D01*
X0003169Y0093700D02*
X0029700Y0093700D01*
X0030057Y0092702D02*
X0003169Y0092702D01*
X0003169Y0091703D02*
X0030764Y0091703D01*
X0032411Y0090705D02*
X0003169Y0090705D01*
X0003169Y0089706D02*
X0033354Y0089706D01*
X0032355Y0088708D02*
X0003169Y0088708D01*
X0003169Y0087709D02*
X0031357Y0087709D01*
X0030358Y0086711D02*
X0003169Y0086711D01*
X0003169Y0085712D02*
X0029359Y0085712D01*
X0028361Y0084714D02*
X0003169Y0084714D01*
X0003169Y0083715D02*
X0027362Y0083715D01*
X0026364Y0082717D02*
X0003169Y0082717D01*
X0003169Y0081718D02*
X0025365Y0081718D01*
X0024367Y0080720D02*
X0003169Y0080720D01*
X0003169Y0079721D02*
X0023368Y0079721D01*
X0022370Y0078723D02*
X0003169Y0078723D01*
X0003169Y0077724D02*
X0021371Y0077724D01*
X0020373Y0076726D02*
X0003169Y0076726D01*
X0003169Y0075727D02*
X0012879Y0075727D01*
X0011880Y0074729D02*
X0003169Y0074729D01*
X0003169Y0073730D02*
X0010882Y0073730D01*
X0010775Y0072732D02*
X0003169Y0072732D01*
X0003169Y0071733D02*
X0010775Y0071733D01*
X0010775Y0070735D02*
X0003169Y0070735D01*
X0003169Y0069736D02*
X0011286Y0069736D01*
X0012285Y0068738D02*
X0003169Y0068738D01*
X0003169Y0067739D02*
X0016886Y0067739D01*
X0017415Y0068738D02*
X0017600Y0068738D01*
X0015888Y0066741D02*
X0015732Y0066741D01*
X0013967Y0066741D02*
X0003169Y0066741D01*
X0003169Y0065742D02*
X0012092Y0065742D01*
X0011208Y0064744D02*
X0003169Y0064744D01*
X0003169Y0063745D02*
X0010794Y0063745D01*
X0010650Y0062747D02*
X0003169Y0062747D01*
X0003169Y0061748D02*
X0010650Y0061748D01*
X0011053Y0060749D02*
X0003169Y0060749D01*
X0003169Y0059751D02*
X0011719Y0059751D01*
X0013067Y0058752D02*
X0003169Y0058752D01*
X0003169Y0057754D02*
X0020650Y0057754D01*
X0020650Y0056755D02*
X0015696Y0056755D01*
X0014003Y0056755D02*
X0003169Y0056755D01*
X0003169Y0055757D02*
X0012107Y0055757D01*
X0011214Y0054758D02*
X0003169Y0054758D01*
X0003169Y0053760D02*
X0010801Y0053760D01*
X0010650Y0052761D02*
X0003169Y0052761D01*
X0003169Y0051763D02*
X0010650Y0051763D01*
X0011047Y0050764D02*
X0003169Y0050764D01*
X0003169Y0049766D02*
X0011704Y0049766D01*
X0013031Y0048767D02*
X0003169Y0048767D01*
X0003169Y0047769D02*
X0020650Y0047769D01*
X0020650Y0046770D02*
X0003169Y0046770D01*
X0003169Y0045772D02*
X0021044Y0045772D01*
X0021697Y0044773D02*
X0003169Y0044773D01*
X0003169Y0043775D02*
X0023013Y0043775D01*
X0026687Y0043775D02*
X0060544Y0043775D01*
X0060500Y0044773D02*
X0028003Y0044773D01*
X0028655Y0045772D02*
X0060673Y0045772D01*
X0061120Y0046770D02*
X0029050Y0046770D01*
X0029050Y0047769D02*
X0047410Y0047769D01*
X0047291Y0048767D02*
X0044741Y0048767D01*
X0042204Y0051582D02*
X0041900Y0054300D01*
X0028700Y0054300D01*
X0026500Y0052100D01*
X0015500Y0052100D01*
X0014850Y0052560D01*
X0017995Y0049766D02*
X0021217Y0049766D01*
X0020804Y0048767D02*
X0016669Y0048767D01*
X0018485Y0054758D02*
X0021711Y0054758D01*
X0021050Y0055757D02*
X0017592Y0055757D01*
X0016633Y0058752D02*
X0020798Y0058752D01*
X0021211Y0059751D02*
X0017980Y0059751D01*
X0018646Y0060749D02*
X0022099Y0060749D01*
X0023985Y0061748D02*
X0019050Y0061748D01*
X0019050Y0062747D02*
X0027794Y0062747D01*
X0028500Y0063745D02*
X0026092Y0063745D01*
X0025137Y0063745D02*
X0024562Y0063745D01*
X0023607Y0063745D02*
X0019398Y0063745D01*
X0020396Y0064744D02*
X0022009Y0064744D01*
X0024562Y0064744D02*
X0025137Y0064744D01*
X0025137Y0065742D02*
X0024562Y0065742D01*
X0024562Y0066741D02*
X0025137Y0066741D01*
X0025137Y0067847D02*
X0024562Y0067847D01*
X0024562Y0071560D01*
X0024456Y0071560D01*
X0023683Y0071406D01*
X0022955Y0071105D01*
X0022300Y0070667D01*
X0022200Y0070567D01*
X0022200Y0072047D01*
X0035063Y0084911D01*
X0035563Y0083704D01*
X0035703Y0083564D01*
X0035557Y0083418D01*
X0035557Y0078870D01*
X0036755Y0077672D01*
X0040515Y0077672D01*
X0041713Y0078870D01*
X0041713Y0083418D01*
X0041632Y0083499D01*
X0041837Y0083704D01*
X0042400Y0085064D01*
X0042400Y0086422D01*
X0044588Y0086422D01*
X0045560Y0087393D01*
X0047917Y0087393D01*
X0047917Y0086572D01*
X0048599Y0085891D01*
X0047732Y0085024D01*
X0047732Y0084615D01*
X0044255Y0084615D01*
X0043057Y0083417D01*
X0043057Y0078869D01*
X0044255Y0077672D01*
X0047771Y0077672D01*
X0048044Y0077399D01*
X0047606Y0076961D01*
X0047606Y0074893D01*
X0045237Y0074893D01*
X0044265Y0075865D01*
X0040505Y0075865D01*
X0039307Y0074667D01*
X0039307Y0074100D01*
X0032489Y0074100D01*
X0028500Y0070111D01*
X0028500Y0069200D01*
X0028394Y0069455D01*
X0027957Y0070110D01*
X0027399Y0070667D01*
X0026744Y0071105D01*
X0026016Y0071406D01*
X0025244Y0071560D01*
X0025137Y0071560D01*
X0025137Y0067847D01*
X0025137Y0068738D02*
X0024562Y0068738D01*
X0024562Y0069736D02*
X0025137Y0069736D01*
X0025137Y0070735D02*
X0024562Y0070735D01*
X0022401Y0070735D02*
X0022200Y0070735D01*
X0022200Y0071733D02*
X0030122Y0071733D01*
X0031120Y0072732D02*
X0022884Y0072732D01*
X0023883Y0073730D02*
X0032119Y0073730D01*
X0033400Y0071900D02*
X0030700Y0069200D01*
X0030700Y0062300D01*
X0025400Y0057900D01*
X0024900Y0057600D01*
X0024850Y0057560D01*
X0029050Y0057754D02*
X0035681Y0057754D01*
X0035376Y0058059D02*
X0036574Y0056861D01*
X0040334Y0056861D01*
X0041532Y0058059D01*
X0041532Y0062607D01*
X0040954Y0063185D01*
X0040954Y0065943D01*
X0040573Y0066862D01*
X0039900Y0067536D01*
X0039900Y0068436D01*
X0039376Y0069700D01*
X0039726Y0069700D01*
X0040505Y0068922D01*
X0044265Y0068922D01*
X0045237Y0069893D01*
X0047606Y0069893D01*
X0047606Y0069647D01*
X0048602Y0068651D01*
X0055129Y0068651D01*
X0055605Y0069128D01*
X0056082Y0068651D01*
X0058755Y0068651D01*
X0058500Y0068036D01*
X0058500Y0066564D01*
X0059063Y0065204D01*
X0060035Y0064233D01*
X0060035Y0060733D01*
X0063432Y0060733D01*
X0063432Y0060261D01*
X0067385Y0060261D01*
X0067385Y0063820D01*
X0064735Y0063820D01*
X0064353Y0063718D01*
X0064011Y0063520D01*
X0063732Y0063241D01*
X0063594Y0063001D01*
X0063594Y0063383D01*
X0063491Y0063765D01*
X0063461Y0063818D01*
X0064296Y0064163D01*
X0065337Y0065204D01*
X0065900Y0066564D01*
X0065900Y0068036D01*
X0065445Y0069136D01*
X0071306Y0069136D01*
X0072302Y0070131D01*
X0072302Y0076658D01*
X0071683Y0077276D01*
X0071802Y0077395D01*
X0071999Y0077737D01*
X0072102Y0078118D01*
X0072102Y0078957D01*
X0072964Y0078600D01*
X0074436Y0078600D01*
X0075796Y0079163D01*
X0076450Y0079818D01*
X0076900Y0079367D01*
X0076900Y0063347D01*
X0078400Y0061847D01*
X0078400Y0056753D01*
X0077747Y0056100D01*
X0071981Y0056100D01*
X0071919Y0056162D01*
X0072038Y0056281D01*
X0072236Y0056623D01*
X0072338Y0057004D01*
X0072338Y0059261D01*
X0068385Y0059261D01*
X0068385Y0060261D01*
X0067385Y0060261D01*
X0067385Y0059261D01*
X0063594Y0059261D01*
X0063594Y0059733D01*
X0060035Y0059733D01*
X0060035Y0060733D01*
X0059035Y0060733D01*
X0059035Y0064686D01*
X0056778Y0064686D01*
X0056397Y0064584D01*
X0056055Y0064386D01*
X0055936Y0064268D01*
X0055318Y0064886D01*
X0048791Y0064886D01*
X0047795Y0063890D01*
X0047795Y0063804D01*
X0044074Y0063804D01*
X0042876Y0062606D01*
X0042876Y0058058D01*
X0044074Y0056861D01*
X0047795Y0056861D01*
X0047795Y0056576D01*
X0048231Y0056141D01*
X0047291Y0055201D01*
X0047291Y0054100D01*
X0045038Y0054100D01*
X0044100Y0055038D01*
X0044100Y0055211D01*
X0044001Y0055311D01*
X0043985Y0055450D01*
X0043369Y0055942D01*
X0042811Y0056500D01*
X0042671Y0056500D01*
X0042561Y0056588D01*
X0041777Y0056500D01*
X0028957Y0056500D01*
X0029050Y0056724D01*
X0029050Y0058071D01*
X0031494Y0060100D01*
X0031611Y0060100D01*
X0032184Y0060672D01*
X0032806Y0061189D01*
X0032817Y0061306D01*
X0032900Y0061389D01*
X0032900Y0062198D01*
X0032975Y0063004D01*
X0032900Y0063094D01*
X0032900Y0065998D01*
X0033063Y0065604D01*
X0034104Y0064563D01*
X0035464Y0064000D01*
X0035954Y0064000D01*
X0035954Y0063185D01*
X0035376Y0062607D01*
X0035376Y0058059D01*
X0035376Y0058752D02*
X0029871Y0058752D01*
X0031074Y0059751D02*
X0035376Y0059751D01*
X0035376Y0060749D02*
X0032276Y0060749D01*
X0032900Y0061748D02*
X0035376Y0061748D01*
X0035516Y0062747D02*
X0032951Y0062747D01*
X0032900Y0063745D02*
X0035954Y0063745D01*
X0033924Y0064744D02*
X0032900Y0064744D01*
X0032900Y0065742D02*
X0033006Y0065742D01*
X0028500Y0065742D02*
X0028426Y0065742D01*
X0028500Y0064744D02*
X0027690Y0064744D01*
X0026591Y0061748D02*
X0025714Y0061748D01*
X0029050Y0056755D02*
X0047795Y0056755D01*
X0047847Y0055757D02*
X0043601Y0055757D01*
X0044380Y0054758D02*
X0047291Y0054758D01*
X0051300Y0051900D02*
X0042500Y0051900D01*
X0042204Y0051582D01*
X0039126Y0051763D02*
X0029274Y0051763D01*
X0028276Y0050764D02*
X0039126Y0050764D01*
X0039126Y0049766D02*
X0028482Y0049766D01*
X0028896Y0048767D02*
X0039667Y0048767D01*
X0051300Y0051900D02*
X0051550Y0051544D01*
X0043180Y0057754D02*
X0041227Y0057754D01*
X0041532Y0058752D02*
X0042876Y0058752D01*
X0042876Y0059751D02*
X0041532Y0059751D01*
X0041532Y0060749D02*
X0042876Y0060749D01*
X0042876Y0061748D02*
X0041532Y0061748D01*
X0041392Y0062747D02*
X0043016Y0062747D01*
X0044015Y0063745D02*
X0040954Y0063745D01*
X0040954Y0064744D02*
X0048649Y0064744D01*
X0048516Y0068738D02*
X0039775Y0068738D01*
X0039900Y0067739D02*
X0058500Y0067739D01*
X0058500Y0066741D02*
X0040624Y0066741D01*
X0040954Y0065742D02*
X0058841Y0065742D01*
X0059524Y0064744D02*
X0055460Y0064744D01*
X0059035Y0063745D02*
X0060035Y0063745D01*
X0060035Y0062747D02*
X0059035Y0062747D01*
X0059035Y0061748D02*
X0060035Y0061748D01*
X0060035Y0060749D02*
X0059035Y0060749D01*
X0059535Y0060233D02*
X0060100Y0060700D01*
X0067800Y0060700D01*
X0067885Y0059761D01*
X0068900Y0059600D01*
X0068385Y0059751D02*
X0078400Y0059751D01*
X0078400Y0060749D02*
X0072338Y0060749D01*
X0072338Y0060261D02*
X0072338Y0062517D01*
X0072236Y0062899D01*
X0072038Y0063241D01*
X0071759Y0063520D01*
X0071417Y0063718D01*
X0071035Y0063820D01*
X0068385Y0063820D01*
X0068385Y0060261D01*
X0072338Y0060261D01*
X0072338Y0061748D02*
X0078400Y0061748D01*
X0077501Y0062747D02*
X0072276Y0062747D01*
X0072200Y0063800D02*
X0068900Y0060700D01*
X0067885Y0059761D01*
X0067385Y0059751D02*
X0060035Y0059751D01*
X0063497Y0063745D02*
X0064456Y0063745D01*
X0064876Y0064744D02*
X0076900Y0064744D01*
X0076900Y0065742D02*
X0065559Y0065742D01*
X0065900Y0066741D02*
X0076900Y0066741D01*
X0076900Y0067739D02*
X0065900Y0067739D01*
X0065609Y0068738D02*
X0076900Y0068738D01*
X0076900Y0069736D02*
X0071906Y0069736D01*
X0072302Y0070735D02*
X0076900Y0070735D01*
X0076900Y0071733D02*
X0072302Y0071733D01*
X0072302Y0072732D02*
X0076900Y0072732D01*
X0076900Y0073730D02*
X0072302Y0073730D01*
X0072302Y0074729D02*
X0076900Y0074729D01*
X0076900Y0075727D02*
X0072302Y0075727D01*
X0072700Y0076300D02*
X0072700Y0064300D01*
X0072200Y0063800D01*
X0071314Y0063745D02*
X0076900Y0063745D01*
X0075400Y0059600D02*
X0076500Y0059100D01*
X0078400Y0058752D02*
X0072338Y0058752D01*
X0072338Y0057754D02*
X0078400Y0057754D01*
X0078400Y0056755D02*
X0072271Y0056755D01*
X0068385Y0060749D02*
X0067385Y0060749D01*
X0067385Y0061748D02*
X0068385Y0061748D01*
X0068385Y0062747D02*
X0067385Y0062747D01*
X0067385Y0063745D02*
X0068385Y0063745D01*
X0081500Y0065742D02*
X0089900Y0065742D01*
X0089900Y0064744D02*
X0082009Y0064744D01*
X0083000Y0063745D02*
X0089900Y0063745D01*
X0089001Y0062747D02*
X0083000Y0062747D01*
X0083000Y0061748D02*
X0088588Y0061748D01*
X0088500Y0060749D02*
X0083000Y0060749D01*
X0083000Y0059751D02*
X0088630Y0059751D01*
X0089043Y0058752D02*
X0083000Y0058752D01*
X0083000Y0057754D02*
X0090014Y0057754D01*
X0094386Y0057754D02*
X0102925Y0057754D01*
X0101927Y0056755D02*
X0083000Y0056755D01*
X0083000Y0055757D02*
X0100928Y0055757D01*
X0099930Y0054758D02*
X0082911Y0054758D01*
X0081912Y0053760D02*
X0098931Y0053760D01*
X0097933Y0052761D02*
X0080914Y0052761D01*
X0079915Y0051763D02*
X0096934Y0051763D01*
X0095936Y0050764D02*
X0072538Y0050764D01*
X0072538Y0049766D02*
X0094937Y0049766D01*
X0093939Y0048767D02*
X0072288Y0048767D01*
X0066261Y0047769D02*
X0092940Y0047769D01*
X0097016Y0044773D02*
X0146676Y0044773D01*
X0146267Y0045772D02*
X0098014Y0045772D01*
X0099013Y0046770D02*
X0146267Y0046770D01*
X0146492Y0047769D02*
X0109901Y0047769D01*
X0110863Y0048767D02*
X0147016Y0048767D01*
X0146679Y0049766D02*
X0111276Y0049766D01*
X0111400Y0050764D02*
X0146267Y0050764D01*
X0146267Y0051763D02*
X0112115Y0051763D01*
X0113114Y0052761D02*
X0146489Y0052761D01*
X0147009Y0053760D02*
X0114112Y0053760D01*
X0105499Y0047769D02*
X0100011Y0047769D01*
X0101010Y0048767D02*
X0104537Y0048767D01*
X0104124Y0049766D02*
X0102008Y0049766D01*
X0103007Y0050764D02*
X0104000Y0050764D01*
X0104005Y0051763D02*
X0104094Y0051763D01*
X0103924Y0058752D02*
X0095357Y0058752D01*
X0095770Y0059751D02*
X0104922Y0059751D01*
X0105921Y0060749D02*
X0095900Y0060749D01*
X0095812Y0061748D02*
X0106919Y0061748D01*
X0107700Y0062747D02*
X0095399Y0062747D01*
X0094500Y0063745D02*
X0107700Y0063745D01*
X0107700Y0064744D02*
X0094500Y0064744D01*
X0094500Y0065742D02*
X0101056Y0065742D01*
X0100027Y0066741D02*
X0094500Y0066741D01*
X0094500Y0067739D02*
X0099576Y0067739D01*
X0099400Y0068738D02*
X0094500Y0068738D01*
X0094500Y0069736D02*
X0099441Y0069736D01*
X0099855Y0070735D02*
X0094500Y0070735D01*
X0094500Y0071733D02*
X0100700Y0071733D01*
X0100900Y0072732D02*
X0094500Y0072732D01*
X0094500Y0073730D02*
X0100900Y0073730D01*
X0100900Y0074729D02*
X0094500Y0074729D01*
X0094500Y0075727D02*
X0100203Y0075727D01*
X0099235Y0076726D02*
X0094500Y0076726D01*
X0094500Y0077724D02*
X0098267Y0077724D01*
X0097299Y0078723D02*
X0094500Y0078723D01*
X0094500Y0079721D02*
X0096331Y0079721D01*
X0095363Y0080720D02*
X0094500Y0080720D01*
X0089900Y0080720D02*
X0082550Y0080720D01*
X0082900Y0081718D02*
X0089029Y0081718D01*
X0086682Y0082717D02*
X0082900Y0082717D01*
X0082619Y0083715D02*
X0085052Y0083715D01*
X0084352Y0084714D02*
X0082019Y0084714D01*
X0080631Y0085712D02*
X0084000Y0085712D01*
X0084000Y0086711D02*
X0076200Y0086711D01*
X0076200Y0087709D02*
X0084279Y0087709D01*
X0084204Y0088708D02*
X0076200Y0088708D01*
X0076200Y0089706D02*
X0082561Y0089706D01*
X0081856Y0090705D02*
X0076200Y0090705D01*
X0075825Y0091703D02*
X0081500Y0091703D01*
X0081500Y0092702D02*
X0074434Y0092702D01*
X0071924Y0093700D02*
X0081775Y0093700D01*
X0082366Y0094699D02*
X0071513Y0094699D01*
X0071724Y0095697D02*
X0083733Y0095697D01*
X0085269Y0096696D02*
X0071724Y0096696D01*
X0071724Y0098693D02*
X0083272Y0098693D01*
X0082453Y0099691D02*
X0071724Y0099691D01*
X0071724Y0100690D02*
X0082200Y0100690D01*
X0082200Y0101688D02*
X0071240Y0101688D01*
X0067771Y0097694D02*
X0084270Y0097694D01*
X0085200Y0092300D02*
X0087200Y0092300D01*
X0103100Y0075900D01*
X0103100Y0068900D01*
X0106624Y0067739D02*
X0106635Y0067739D01*
X0107048Y0066741D02*
X0106173Y0066741D01*
X0105144Y0065742D02*
X0107700Y0065742D01*
X0112700Y0065742D02*
X0120025Y0065742D01*
X0119048Y0066741D02*
X0113352Y0066741D01*
X0113765Y0067739D02*
X0118635Y0067739D01*
X0118500Y0068738D02*
X0113900Y0068738D01*
X0113817Y0069736D02*
X0118583Y0069736D01*
X0118996Y0070735D02*
X0113404Y0070735D01*
X0112700Y0071733D02*
X0118831Y0071733D01*
X0117833Y0072732D02*
X0112700Y0072732D01*
X0112700Y0073730D02*
X0116834Y0073730D01*
X0115836Y0074729D02*
X0112700Y0074729D01*
X0112700Y0075727D02*
X0114837Y0075727D01*
X0113839Y0076726D02*
X0112310Y0076726D01*
X0112840Y0077724D02*
X0111311Y0077724D01*
X0111842Y0078723D02*
X0110313Y0078723D01*
X0110843Y0079721D02*
X0109314Y0079721D01*
X0109845Y0080720D02*
X0108316Y0080720D01*
X0108846Y0081718D02*
X0107317Y0081718D01*
X0107848Y0082717D02*
X0106319Y0082717D01*
X0106849Y0083715D02*
X0105320Y0083715D01*
X0105851Y0084714D02*
X0104322Y0084714D01*
X0104852Y0085712D02*
X0103323Y0085712D01*
X0104600Y0089500D02*
X0104700Y0090800D01*
X0106539Y0092702D02*
X0123740Y0092702D01*
X0123444Y0092824D02*
X0124951Y0092200D01*
X0126582Y0092200D01*
X0128089Y0092824D01*
X0129243Y0093978D01*
X0129867Y0095485D01*
X0129867Y0097116D01*
X0129243Y0098623D01*
X0128089Y0099776D01*
X0126582Y0100400D01*
X0124951Y0100400D01*
X0123444Y0099776D01*
X0122291Y0098623D01*
X0121667Y0097116D01*
X0121667Y0095485D01*
X0122291Y0093978D01*
X0123444Y0092824D01*
X0122568Y0093700D02*
X0105052Y0093700D01*
X0104054Y0094699D02*
X0121992Y0094699D01*
X0121667Y0095697D02*
X0103055Y0095697D01*
X0102057Y0096696D02*
X0121667Y0096696D01*
X0121907Y0097694D02*
X0101058Y0097694D01*
X0100060Y0098693D02*
X0122361Y0098693D01*
X0123360Y0099691D02*
X0099061Y0099691D01*
X0098063Y0100690D02*
X0181602Y0100690D01*
X0181593Y0101688D02*
X0097064Y0101688D01*
X0096066Y0102687D02*
X0181583Y0102687D01*
X0181574Y0103685D02*
X0095067Y0103685D01*
X0094069Y0104684D02*
X0181565Y0104684D01*
X0181555Y0105682D02*
X0093070Y0105682D01*
X0092072Y0106681D02*
X0181546Y0106681D01*
X0181537Y0107680D02*
X0091073Y0107680D01*
X0090075Y0108678D02*
X0181527Y0108678D01*
X0181518Y0109677D02*
X0089076Y0109677D01*
X0088078Y0110675D02*
X0181509Y0110675D01*
X0181499Y0111674D02*
X0127725Y0111674D01*
X0128089Y0111824D02*
X0129243Y0112978D01*
X0129867Y0114485D01*
X0129867Y0116116D01*
X0129243Y0117623D01*
X0128089Y0118776D01*
X0126582Y0119400D01*
X0124951Y0119400D01*
X0123444Y0118776D01*
X0122291Y0117623D01*
X0121667Y0116116D01*
X0121667Y0114485D01*
X0122291Y0112978D01*
X0123444Y0111824D01*
X0124951Y0111200D01*
X0126582Y0111200D01*
X0128089Y0111824D01*
X0128937Y0112672D02*
X0181490Y0112672D01*
X0181481Y0113671D02*
X0129530Y0113671D01*
X0129867Y0114669D02*
X0181471Y0114669D01*
X0181462Y0115668D02*
X0129867Y0115668D01*
X0129639Y0116666D02*
X0181453Y0116666D01*
X0181443Y0117665D02*
X0129201Y0117665D01*
X0128202Y0118663D02*
X0181434Y0118663D01*
X0181425Y0119662D02*
X0079091Y0119662D01*
X0078093Y0120660D02*
X0181415Y0120660D01*
X0181409Y0121339D02*
X0181891Y0069744D01*
X0174328Y0062181D01*
X0172928Y0062181D01*
X0171502Y0061590D01*
X0170410Y0060499D01*
X0169819Y0059072D01*
X0169819Y0057528D01*
X0170410Y0056102D01*
X0171502Y0055010D01*
X0172928Y0054419D01*
X0174472Y0054419D01*
X0175898Y0055010D01*
X0176990Y0056102D01*
X0177581Y0057528D01*
X0177581Y0058929D01*
X0185162Y0066509D01*
X0185174Y0066509D01*
X0185834Y0067181D01*
X0186500Y0067847D01*
X0186500Y0067860D01*
X0186509Y0067869D01*
X0186500Y0068810D01*
X0186500Y0069753D01*
X0186491Y0069762D01*
X0186000Y0122311D01*
X0186000Y0123253D01*
X0185991Y0123262D01*
X0185991Y0123274D01*
X0185319Y0123934D01*
X0179500Y0129753D01*
X0178153Y0131100D01*
X0114768Y0131100D01*
X0113884Y0131152D01*
X0113826Y0131100D01*
X0113747Y0131100D01*
X0113122Y0130474D01*
X0111062Y0128644D01*
X0110972Y0128681D01*
X0109428Y0128681D01*
X0108002Y0128090D01*
X0106910Y0126999D01*
X0106319Y0125572D01*
X0106319Y0124028D01*
X0106910Y0122602D01*
X0108002Y0121510D01*
X0109428Y0120919D01*
X0110972Y0120919D01*
X0112398Y0121510D01*
X0113490Y0122602D01*
X0114081Y0124028D01*
X0114081Y0125173D01*
X0115574Y0126500D01*
X0176247Y0126500D01*
X0181409Y0121339D01*
X0181089Y0121659D02*
X0112547Y0121659D01*
X0113513Y0122657D02*
X0180090Y0122657D01*
X0179092Y0123656D02*
X0113927Y0123656D01*
X0114081Y0124654D02*
X0178093Y0124654D01*
X0177095Y0125653D02*
X0114621Y0125653D01*
X0111067Y0128648D02*
X0111052Y0128648D01*
X0112191Y0129647D02*
X0069106Y0129647D01*
X0068107Y0130645D02*
X0113293Y0130645D01*
X0109348Y0128648D02*
X0070105Y0128648D01*
X0071103Y0127650D02*
X0107561Y0127650D01*
X0106766Y0126651D02*
X0072102Y0126651D01*
X0073100Y0125653D02*
X0106352Y0125653D01*
X0106319Y0124654D02*
X0074099Y0124654D01*
X0075097Y0123656D02*
X0106473Y0123656D01*
X0106887Y0122657D02*
X0076096Y0122657D01*
X0077094Y0121659D02*
X0107853Y0121659D01*
X0121895Y0116666D02*
X0082087Y0116666D01*
X0083085Y0115668D02*
X0121667Y0115668D01*
X0121667Y0114669D02*
X0084084Y0114669D01*
X0085082Y0113671D02*
X0122004Y0113671D01*
X0122597Y0112672D02*
X0086081Y0112672D01*
X0087079Y0111674D02*
X0123808Y0111674D01*
X0122333Y0117665D02*
X0081088Y0117665D01*
X0080090Y0118663D02*
X0123332Y0118663D01*
X0128174Y0099691D02*
X0181611Y0099691D01*
X0181621Y0098693D02*
X0129172Y0098693D01*
X0129627Y0097694D02*
X0181630Y0097694D01*
X0181639Y0096696D02*
X0129867Y0096696D01*
X0129867Y0095697D02*
X0181649Y0095697D01*
X0181658Y0094699D02*
X0129541Y0094699D01*
X0128965Y0093700D02*
X0181667Y0093700D01*
X0181677Y0092702D02*
X0127794Y0092702D01*
X0115917Y0081718D02*
X0181779Y0081718D01*
X0181788Y0080720D02*
X0116916Y0080720D01*
X0117914Y0079721D02*
X0181798Y0079721D01*
X0181807Y0078723D02*
X0118913Y0078723D01*
X0119911Y0077724D02*
X0181816Y0077724D01*
X0181826Y0076726D02*
X0120910Y0076726D01*
X0121908Y0075727D02*
X0181835Y0075727D01*
X0181844Y0074729D02*
X0122907Y0074729D01*
X0123905Y0073730D02*
X0168397Y0073730D01*
X0167495Y0072732D02*
X0124562Y0072732D01*
X0124700Y0071733D02*
X0167082Y0071733D01*
X0166969Y0070735D02*
X0125404Y0070735D01*
X0125817Y0069736D02*
X0147985Y0069736D01*
X0146987Y0068738D02*
X0125900Y0068738D01*
X0125765Y0067739D02*
X0146267Y0067739D01*
X0146267Y0066741D02*
X0125352Y0066741D01*
X0124375Y0065742D02*
X0146267Y0065742D01*
X0146492Y0064744D02*
X0112700Y0064744D01*
X0114919Y0082717D02*
X0181770Y0082717D01*
X0181761Y0083715D02*
X0113920Y0083715D01*
X0112922Y0084714D02*
X0181751Y0084714D01*
X0181742Y0085712D02*
X0111923Y0085712D01*
X0110925Y0086711D02*
X0181733Y0086711D01*
X0181723Y0087709D02*
X0109926Y0087709D01*
X0108928Y0088708D02*
X0181714Y0088708D01*
X0181705Y0089706D02*
X0108300Y0089706D01*
X0108106Y0090705D02*
X0181695Y0090705D01*
X0181686Y0091703D02*
X0107629Y0091703D01*
X0089900Y0079721D02*
X0081854Y0079721D01*
X0081500Y0078723D02*
X0089900Y0078723D01*
X0089900Y0077724D02*
X0081500Y0077724D01*
X0081500Y0076726D02*
X0089900Y0076726D01*
X0089900Y0075727D02*
X0081500Y0075727D01*
X0081500Y0074729D02*
X0089900Y0074729D01*
X0089900Y0073730D02*
X0081500Y0073730D01*
X0081500Y0072732D02*
X0089900Y0072732D01*
X0089900Y0071733D02*
X0081500Y0071733D01*
X0081500Y0070735D02*
X0089900Y0070735D01*
X0089900Y0069736D02*
X0081500Y0069736D01*
X0081500Y0068738D02*
X0089900Y0068738D01*
X0089900Y0067739D02*
X0081500Y0067739D01*
X0081500Y0066741D02*
X0089900Y0066741D01*
X0076900Y0076726D02*
X0072234Y0076726D01*
X0072700Y0076300D02*
X0068300Y0080700D01*
X0067649Y0080875D01*
X0067200Y0081800D01*
X0059500Y0081800D01*
X0059472Y0081367D01*
X0059972Y0081718D02*
X0063196Y0081718D01*
X0063196Y0081867D02*
X0063196Y0081375D01*
X0067149Y0081375D01*
X0067149Y0084934D01*
X0064499Y0084934D01*
X0064117Y0084832D01*
X0063775Y0084634D01*
X0063531Y0084390D01*
X0063531Y0084517D01*
X0063428Y0084899D01*
X0063231Y0085241D01*
X0062952Y0085520D01*
X0062854Y0085576D01*
X0062920Y0085576D01*
X0063629Y0086285D01*
X0070928Y0086285D01*
X0071200Y0086557D01*
X0071200Y0086067D01*
X0071400Y0085584D01*
X0071400Y0085233D01*
X0071037Y0084870D01*
X0070799Y0084934D01*
X0068149Y0084934D01*
X0068149Y0081375D01*
X0070078Y0081375D01*
X0070493Y0080375D01*
X0068149Y0080375D01*
X0068149Y0081375D01*
X0067149Y0081375D01*
X0067149Y0080375D01*
X0063531Y0080375D01*
X0063531Y0080867D01*
X0059972Y0080867D01*
X0059972Y0081867D01*
X0063196Y0081867D01*
X0063531Y0080720D02*
X0067149Y0080720D01*
X0067149Y0081718D02*
X0068149Y0081718D01*
X0068149Y0080720D02*
X0070350Y0080720D01*
X0072102Y0078723D02*
X0072668Y0078723D01*
X0071992Y0077724D02*
X0076900Y0077724D01*
X0076900Y0078723D02*
X0074732Y0078723D01*
X0076354Y0079721D02*
X0076546Y0079721D01*
X0076053Y0085712D02*
X0077769Y0085712D01*
X0071347Y0085712D02*
X0063056Y0085712D01*
X0063478Y0084714D02*
X0063913Y0084714D01*
X0067149Y0084714D02*
X0068149Y0084714D01*
X0068149Y0083715D02*
X0067149Y0083715D01*
X0067149Y0082717D02*
X0068149Y0082717D01*
X0055996Y0068738D02*
X0055215Y0068738D01*
X0047606Y0069736D02*
X0045080Y0069736D01*
X0042385Y0072393D02*
X0041900Y0071900D01*
X0033400Y0071900D01*
X0029123Y0070735D02*
X0027298Y0070735D01*
X0028206Y0069736D02*
X0028500Y0069736D01*
X0024881Y0074729D02*
X0039368Y0074729D01*
X0040367Y0075727D02*
X0025880Y0075727D01*
X0026878Y0076726D02*
X0047606Y0076726D01*
X0047606Y0075727D02*
X0044403Y0075727D01*
X0044202Y0077724D02*
X0040567Y0077724D01*
X0041566Y0078723D02*
X0043204Y0078723D01*
X0043057Y0079721D02*
X0041713Y0079721D01*
X0041713Y0080720D02*
X0043057Y0080720D01*
X0043057Y0081718D02*
X0041713Y0081718D01*
X0041713Y0082717D02*
X0043057Y0082717D01*
X0043355Y0083715D02*
X0041841Y0083715D01*
X0042255Y0084714D02*
X0047732Y0084714D01*
X0048421Y0085712D02*
X0042400Y0085712D01*
X0044877Y0086711D02*
X0047917Y0086711D01*
X0042708Y0089893D02*
X0042400Y0090000D01*
X0040164Y0092702D02*
X0036743Y0092702D01*
X0037100Y0093700D02*
X0047917Y0093700D01*
X0047917Y0092702D02*
X0045251Y0092702D01*
X0048432Y0094699D02*
X0037100Y0094699D01*
X0041363Y0095697D02*
X0044052Y0095697D01*
X0043380Y0096696D02*
X0042036Y0096696D01*
X0042036Y0097694D02*
X0043380Y0097694D01*
X0043380Y0098693D02*
X0042036Y0098693D01*
X0042036Y0099691D02*
X0043380Y0099691D01*
X0043380Y0100690D02*
X0042036Y0100690D01*
X0041265Y0101688D02*
X0044151Y0101688D01*
X0038958Y0098644D02*
X0038600Y0098300D01*
X0035145Y0084714D02*
X0034866Y0084714D01*
X0035559Y0083715D02*
X0033868Y0083715D01*
X0032869Y0082717D02*
X0035557Y0082717D01*
X0035557Y0081718D02*
X0031871Y0081718D01*
X0030872Y0080720D02*
X0035557Y0080720D01*
X0035557Y0079721D02*
X0029874Y0079721D01*
X0028875Y0078723D02*
X0035704Y0078723D01*
X0036703Y0077724D02*
X0027877Y0077724D01*
X0019374Y0075727D02*
X0016820Y0075727D01*
X0017819Y0074729D02*
X0018376Y0074729D01*
X0015500Y0063100D02*
X0014850Y0062560D01*
X0003169Y0042776D02*
X0060958Y0042776D01*
X0061807Y0041778D02*
X0003169Y0041778D01*
X0003169Y0040779D02*
X0146541Y0040779D01*
X0146601Y0040478D02*
X0146467Y0041150D01*
X0146467Y0041402D01*
X0149857Y0041402D01*
X0149857Y0038012D01*
X0149605Y0038012D01*
X0148933Y0038146D01*
X0148299Y0038408D01*
X0147729Y0038789D01*
X0147244Y0039274D01*
X0146863Y0039844D01*
X0146601Y0040478D01*
X0146905Y0039781D02*
X0003169Y0039781D01*
X0003169Y0038782D02*
X0147739Y0038782D01*
X0149857Y0038782D02*
X0150039Y0038782D01*
X0150039Y0038012D02*
X0150291Y0038012D01*
X0150963Y0038146D01*
X0151597Y0038408D01*
X0152167Y0038789D01*
X0152652Y0039274D01*
X0153033Y0039844D01*
X0153295Y0040478D01*
X0153429Y0041150D01*
X0153429Y0041402D01*
X0150039Y0041402D01*
X0150039Y0038012D01*
X0150039Y0039781D02*
X0149857Y0039781D01*
X0149857Y0040779D02*
X0150039Y0040779D01*
X0152991Y0039781D02*
X0225609Y0039781D01*
X0225609Y0040779D02*
X0153355Y0040779D01*
X0153429Y0041778D02*
X0225609Y0041778D01*
X0225609Y0042776D02*
X0153184Y0042776D01*
X0152589Y0043775D02*
X0225609Y0043775D01*
X0225609Y0044773D02*
X0153220Y0044773D01*
X0153629Y0045772D02*
X0225609Y0045772D01*
X0225609Y0046770D02*
X0153629Y0046770D01*
X0153404Y0047769D02*
X0225609Y0047769D01*
X0225609Y0048767D02*
X0152880Y0048767D01*
X0153217Y0049766D02*
X0225609Y0049766D01*
X0225609Y0050764D02*
X0153629Y0050764D01*
X0153629Y0051763D02*
X0225609Y0051763D01*
X0225609Y0052761D02*
X0153407Y0052761D01*
X0152887Y0053760D02*
X0225609Y0053760D01*
X0225609Y0054758D02*
X0175291Y0054758D01*
X0176646Y0055757D02*
X0225609Y0055757D01*
X0225609Y0056755D02*
X0207195Y0056755D01*
X0207008Y0056678D02*
X0208283Y0057206D01*
X0209259Y0058182D01*
X0209787Y0059457D01*
X0209787Y0060836D01*
X0209259Y0062111D01*
X0208283Y0063087D01*
X0207008Y0063615D01*
X0205628Y0063615D01*
X0204353Y0063087D01*
X0203378Y0062111D01*
X0202850Y0060836D01*
X0202850Y0059457D01*
X0203378Y0058182D01*
X0204353Y0057206D01*
X0205628Y0056678D01*
X0207008Y0056678D01*
X0205441Y0056755D02*
X0177261Y0056755D01*
X0177581Y0057754D02*
X0203806Y0057754D01*
X0203141Y0058752D02*
X0177581Y0058752D01*
X0178404Y0059751D02*
X0202850Y0059751D01*
X0202850Y0060749D02*
X0179402Y0060749D01*
X0180401Y0061748D02*
X0203227Y0061748D01*
X0204013Y0062747D02*
X0181399Y0062747D01*
X0182398Y0063745D02*
X0225609Y0063745D01*
X0225609Y0062747D02*
X0208623Y0062747D01*
X0209409Y0061748D02*
X0225609Y0061748D01*
X0225609Y0060749D02*
X0209787Y0060749D01*
X0209787Y0059751D02*
X0225609Y0059751D01*
X0225609Y0058752D02*
X0209495Y0058752D01*
X0208831Y0057754D02*
X0225609Y0057754D01*
X0225609Y0064744D02*
X0183396Y0064744D01*
X0184395Y0065742D02*
X0225609Y0065742D01*
X0225609Y0066741D02*
X0185401Y0066741D01*
X0186392Y0067739D02*
X0225609Y0067739D01*
X0225609Y0068738D02*
X0186501Y0068738D01*
X0186500Y0069736D02*
X0225609Y0069736D01*
X0225609Y0070735D02*
X0186482Y0070735D01*
X0186473Y0071733D02*
X0225609Y0071733D01*
X0225609Y0072732D02*
X0186463Y0072732D01*
X0186454Y0073730D02*
X0225609Y0073730D01*
X0225609Y0074729D02*
X0186445Y0074729D01*
X0186435Y0075727D02*
X0225609Y0075727D01*
X0225609Y0076726D02*
X0186426Y0076726D01*
X0186417Y0077724D02*
X0225609Y0077724D01*
X0225609Y0078723D02*
X0186407Y0078723D01*
X0186398Y0079721D02*
X0225609Y0079721D01*
X0225609Y0080720D02*
X0186389Y0080720D01*
X0186379Y0081718D02*
X0225609Y0081718D01*
X0225609Y0082717D02*
X0186370Y0082717D01*
X0186361Y0083715D02*
X0225609Y0083715D01*
X0225609Y0084714D02*
X0186351Y0084714D01*
X0186342Y0085712D02*
X0225609Y0085712D01*
X0225609Y0086711D02*
X0186333Y0086711D01*
X0186323Y0087709D02*
X0225609Y0087709D01*
X0225609Y0088708D02*
X0208367Y0088708D01*
X0208283Y0088623D02*
X0209259Y0089599D01*
X0209787Y0090874D01*
X0209787Y0092254D01*
X0209259Y0093529D01*
X0208283Y0094504D01*
X0207008Y0095032D01*
X0205628Y0095032D01*
X0204353Y0094504D01*
X0203378Y0093529D01*
X0202850Y0092254D01*
X0202850Y0090874D01*
X0203378Y0089599D01*
X0204353Y0088623D01*
X0205628Y0088095D01*
X0207008Y0088095D01*
X0208283Y0088623D01*
X0209303Y0089706D02*
X0225609Y0089706D01*
X0225609Y0090705D02*
X0209717Y0090705D01*
X0209787Y0091703D02*
X0225609Y0091703D01*
X0225609Y0092702D02*
X0209601Y0092702D01*
X0209087Y0093700D02*
X0225609Y0093700D01*
X0225609Y0094699D02*
X0207813Y0094699D01*
X0204823Y0094699D02*
X0186258Y0094699D01*
X0186249Y0095697D02*
X0225609Y0095697D01*
X0225609Y0096696D02*
X0186239Y0096696D01*
X0186230Y0097694D02*
X0225609Y0097694D01*
X0225609Y0098693D02*
X0186221Y0098693D01*
X0186211Y0099691D02*
X0225609Y0099691D01*
X0225609Y0100690D02*
X0186202Y0100690D01*
X0186193Y0101688D02*
X0225609Y0101688D01*
X0225609Y0102687D02*
X0186183Y0102687D01*
X0186174Y0103685D02*
X0225609Y0103685D01*
X0225609Y0104684D02*
X0186165Y0104684D01*
X0186155Y0105682D02*
X0225609Y0105682D01*
X0225609Y0106681D02*
X0186146Y0106681D01*
X0186137Y0107680D02*
X0225609Y0107680D01*
X0225609Y0108678D02*
X0186127Y0108678D01*
X0186118Y0109677D02*
X0225609Y0109677D01*
X0225609Y0110675D02*
X0186109Y0110675D01*
X0186099Y0111674D02*
X0225609Y0111674D01*
X0225609Y0112672D02*
X0186090Y0112672D01*
X0186081Y0113671D02*
X0225609Y0113671D01*
X0225609Y0114669D02*
X0186071Y0114669D01*
X0186062Y0115668D02*
X0225609Y0115668D01*
X0225609Y0116666D02*
X0186053Y0116666D01*
X0186043Y0117665D02*
X0225609Y0117665D01*
X0225609Y0118663D02*
X0186034Y0118663D01*
X0186025Y0119662D02*
X0225609Y0119662D01*
X0225609Y0120660D02*
X0186015Y0120660D01*
X0186006Y0121659D02*
X0225609Y0121659D01*
X0225609Y0122657D02*
X0186000Y0122657D01*
X0185602Y0123656D02*
X0225609Y0123656D01*
X0225609Y0124654D02*
X0184599Y0124654D01*
X0183600Y0125653D02*
X0225609Y0125653D01*
X0225609Y0126651D02*
X0182602Y0126651D01*
X0181603Y0127650D02*
X0225609Y0127650D01*
X0225609Y0128648D02*
X0180605Y0128648D01*
X0179606Y0129647D02*
X0225609Y0129647D01*
X0225609Y0130645D02*
X0178607Y0130645D01*
X0172460Y0156721D02*
X0225609Y0156721D01*
X0225609Y0038611D01*
X0172460Y0038611D01*
X0172460Y0030737D01*
X0003169Y0032706D01*
X0003169Y0160658D01*
X0172460Y0164595D01*
X0172429Y0164595D01*
X0172460Y0164595D02*
X0172460Y0156721D01*
X0172460Y0157605D02*
X0003169Y0157605D01*
X0003169Y0156607D02*
X0225609Y0156607D01*
X0225609Y0155608D02*
X0003169Y0155608D01*
X0003169Y0154610D02*
X0225609Y0154610D01*
X0225609Y0153611D02*
X0003169Y0153611D01*
X0003169Y0152613D02*
X0225609Y0152613D01*
X0225609Y0151614D02*
X0003169Y0151614D01*
X0003169Y0150616D02*
X0225609Y0150616D01*
X0225609Y0149617D02*
X0003169Y0149617D01*
X0003169Y0148618D02*
X0054886Y0148618D01*
X0054049Y0147620D02*
X0003169Y0147620D01*
X0003169Y0146621D02*
X0053635Y0146621D01*
X0053600Y0145623D02*
X0003169Y0145623D01*
X0003169Y0144624D02*
X0053782Y0144624D01*
X0054242Y0143626D02*
X0003169Y0143626D01*
X0003169Y0142627D02*
X0055000Y0142627D01*
X0055000Y0141629D02*
X0003169Y0141629D01*
X0003169Y0140630D02*
X0055000Y0140630D01*
X0055000Y0139632D02*
X0003169Y0139632D01*
X0003169Y0138633D02*
X0055000Y0138633D01*
X0055000Y0137635D02*
X0003169Y0137635D01*
X0003169Y0136636D02*
X0055611Y0136636D01*
X0056610Y0135638D02*
X0003169Y0135638D01*
X0003169Y0134639D02*
X0057608Y0134639D01*
X0058607Y0133641D02*
X0003169Y0133641D01*
X0003169Y0132642D02*
X0059605Y0132642D01*
X0060604Y0131644D02*
X0003169Y0131644D01*
X0003169Y0130645D02*
X0061602Y0130645D01*
X0062601Y0129647D02*
X0003169Y0129647D01*
X0003169Y0128648D02*
X0063599Y0128648D01*
X0064598Y0127650D02*
X0003169Y0127650D01*
X0003169Y0126651D02*
X0065596Y0126651D01*
X0066595Y0125653D02*
X0003169Y0125653D01*
X0003169Y0124654D02*
X0067593Y0124654D01*
X0068592Y0123656D02*
X0003169Y0123656D01*
X0003169Y0122657D02*
X0069590Y0122657D01*
X0070589Y0121659D02*
X0003169Y0121659D01*
X0003169Y0120660D02*
X0071587Y0120660D01*
X0072586Y0119662D02*
X0003169Y0119662D01*
X0003169Y0118663D02*
X0073584Y0118663D01*
X0074583Y0117665D02*
X0003169Y0117665D01*
X0003169Y0116666D02*
X0075581Y0116666D01*
X0076580Y0115668D02*
X0003169Y0115668D01*
X0003169Y0114669D02*
X0077578Y0114669D01*
X0078577Y0113671D02*
X0003169Y0113671D01*
X0003169Y0112672D02*
X0079575Y0112672D01*
X0080574Y0111674D02*
X0003169Y0111674D01*
X0003169Y0110675D02*
X0081572Y0110675D01*
X0082571Y0109677D02*
X0003169Y0109677D01*
X0038600Y0081800D02*
X0038635Y0081144D01*
X0066593Y0041778D02*
X0146467Y0041778D01*
X0146712Y0042776D02*
X0095019Y0042776D01*
X0096017Y0043775D02*
X0147307Y0043775D01*
X0152157Y0038782D02*
X0225609Y0038782D01*
X0180885Y0068738D02*
X0173851Y0068738D01*
X0174264Y0069736D02*
X0181883Y0069736D01*
X0181882Y0070735D02*
X0174400Y0070735D01*
X0174318Y0071733D02*
X0181872Y0071733D01*
X0181863Y0072732D02*
X0173905Y0072732D01*
X0173003Y0073730D02*
X0181854Y0073730D01*
X0179886Y0067739D02*
X0172872Y0067739D01*
X0170018Y0066741D02*
X0178888Y0066741D01*
X0177889Y0065742D02*
X0168950Y0065742D01*
X0167881Y0064744D02*
X0176891Y0064744D01*
X0175892Y0063745D02*
X0166813Y0063745D01*
X0165745Y0062747D02*
X0174894Y0062747D01*
X0171882Y0061748D02*
X0164676Y0061748D01*
X0163608Y0060749D02*
X0170661Y0060749D01*
X0170100Y0059751D02*
X0162540Y0059751D01*
X0161471Y0058752D02*
X0169819Y0058752D01*
X0169819Y0057754D02*
X0160403Y0057754D01*
X0159335Y0056755D02*
X0170139Y0056755D01*
X0170754Y0055757D02*
X0158267Y0055757D01*
X0157198Y0054758D02*
X0172109Y0054758D01*
X0159491Y0063745D02*
X0152902Y0063745D01*
X0153404Y0064744D02*
X0160559Y0064744D01*
X0161627Y0065742D02*
X0153629Y0065742D01*
X0153629Y0066741D02*
X0162696Y0066741D01*
X0163764Y0067739D02*
X0153629Y0067739D01*
X0152909Y0068738D02*
X0164832Y0068738D01*
X0165900Y0069736D02*
X0151911Y0069736D01*
X0147242Y0063993D02*
X0147242Y0063993D01*
X0153413Y0062747D02*
X0158422Y0062747D01*
X0157354Y0061748D02*
X0153629Y0061748D01*
X0153624Y0060749D02*
X0156286Y0060749D01*
X0155217Y0059751D02*
X0153211Y0059751D01*
X0152654Y0058993D02*
X0152654Y0058993D01*
X0149948Y0056493D02*
X0149700Y0056500D01*
X0172460Y0037784D02*
X0003169Y0037784D01*
X0003169Y0036785D02*
X0172460Y0036785D01*
X0172460Y0035787D02*
X0003169Y0035787D01*
X0003169Y0034788D02*
X0172460Y0034788D01*
X0172460Y0033790D02*
X0003169Y0033790D01*
X0003169Y0032791D02*
X0172460Y0032791D01*
X0172460Y0031793D02*
X0081683Y0031793D01*
X0167555Y0030794D02*
X0172460Y0030794D01*
X0186314Y0088708D02*
X0204269Y0088708D01*
X0203333Y0089706D02*
X0186305Y0089706D01*
X0186295Y0090705D02*
X0202920Y0090705D01*
X0202850Y0091703D02*
X0186286Y0091703D01*
X0186277Y0092702D02*
X0203035Y0092702D01*
X0203549Y0093700D02*
X0186267Y0093700D01*
X0225609Y0131644D02*
X0067109Y0131644D01*
X0066110Y0132642D02*
X0225609Y0132642D01*
X0225609Y0133641D02*
X0065112Y0133641D01*
X0064113Y0134639D02*
X0225609Y0134639D01*
X0225609Y0135638D02*
X0063115Y0135638D01*
X0062116Y0136636D02*
X0225609Y0136636D01*
X0225609Y0137635D02*
X0061118Y0137635D01*
X0060119Y0138633D02*
X0225609Y0138633D01*
X0225609Y0139632D02*
X0059600Y0139632D01*
X0059600Y0140630D02*
X0225609Y0140630D01*
X0225609Y0141629D02*
X0059600Y0141629D01*
X0059600Y0142627D02*
X0225609Y0142627D01*
X0225609Y0143626D02*
X0060358Y0143626D01*
X0060818Y0144624D02*
X0225609Y0144624D01*
X0225609Y0145623D02*
X0061000Y0145623D01*
X0060965Y0146621D02*
X0225609Y0146621D01*
X0225609Y0147620D02*
X0060551Y0147620D01*
X0059714Y0148618D02*
X0225609Y0148618D01*
X0172460Y0158604D02*
X0003169Y0158604D01*
X0003169Y0159602D02*
X0172460Y0159602D01*
X0172460Y0160601D02*
X0003169Y0160601D01*
X0043621Y0161599D02*
X0172460Y0161599D01*
X0172460Y0162598D02*
X0086557Y0162598D01*
X0129493Y0163596D02*
X0172460Y0163596D01*
D20*
X0084700Y0104900D02*
X0084700Y0103300D01*
X0084700Y0104900D02*
X0084700Y0100800D01*
X0110200Y0075300D01*
X0110200Y0068800D01*
X0110200Y0061493D01*
X0093325Y0044618D01*
X0064200Y0044618D01*
X0064444Y0051544D02*
X0059031Y0051544D01*
X0064444Y0051544D02*
X0065200Y0052300D01*
X0067865Y0052300D01*
X0067885Y0052280D01*
X0068900Y0059600D02*
X0075400Y0059600D01*
X0062200Y0067300D02*
X0062200Y0070450D01*
X0059346Y0073304D01*
X0067558Y0073304D01*
X0067649Y0073395D01*
X0051865Y0073304D02*
X0051861Y0073300D01*
X0051200Y0073300D01*
X0050293Y0072393D01*
X0042385Y0072393D01*
X0036200Y0067700D02*
X0038454Y0065446D01*
X0038454Y0060333D01*
X0046135Y0081143D02*
X0046135Y0081235D01*
X0046200Y0081300D01*
X0051924Y0081300D01*
X0051991Y0081367D01*
X0050793Y0089893D02*
X0042708Y0089893D01*
X0050793Y0089893D02*
X0051200Y0090300D01*
X0052106Y0090300D01*
X0052176Y0090229D01*
X0059657Y0090229D02*
X0066956Y0090229D01*
X0067271Y0090544D01*
X0068771Y0090229D01*
X0071700Y0090300D01*
X0073700Y0090300D01*
X0073700Y0086564D01*
X0063200Y0096800D02*
X0063200Y0098300D01*
X0061700Y0104900D02*
X0063000Y0106200D01*
X0083400Y0106200D01*
X0084700Y0104900D01*
X0104600Y0089500D02*
X0122200Y0071900D01*
X0122200Y0068800D01*
X0110200Y0061493D02*
X0149948Y0061493D01*
X0149948Y0056493D02*
X0155393Y0056493D01*
X0170700Y0070800D01*
X0158500Y0047700D02*
X0152293Y0041493D01*
X0149948Y0041493D01*
X0052373Y0098674D02*
X0052247Y0098800D01*
X0046700Y0098800D01*
X0046543Y0098643D01*
X0046458Y0098643D01*
D21*
X0033400Y0094300D03*
X0038700Y0085800D03*
X0063200Y0096800D03*
X0061700Y0104900D03*
X0041000Y0112700D03*
X0084700Y0104900D03*
X0090500Y0112200D03*
X0118000Y0094200D03*
X0104600Y0089500D03*
X0087700Y0086300D03*
X0079200Y0082300D03*
X0073700Y0082300D03*
X0085200Y0092300D03*
X0103100Y0068900D03*
X0110200Y0068800D03*
X0122200Y0068800D03*
X0107700Y0050800D03*
X0107000Y0041700D03*
X0092200Y0060800D03*
X0076500Y0059100D03*
X0062200Y0067300D03*
X0036200Y0067700D03*
X0064200Y0044618D03*
X0031500Y0037200D03*
X0131500Y0107200D03*
X0149500Y0104700D03*
X0160000Y0121700D03*
X0210000Y0143700D03*
X0211000Y0077200D03*
X0170700Y0070800D03*
X0158500Y0047700D03*
X0057300Y0145800D03*
D22*
X0057300Y0138200D01*
X0104700Y0090800D01*
X0092200Y0081800D02*
X0092200Y0060800D01*
X0080700Y0062800D02*
X0080700Y0055800D01*
X0078700Y0053800D01*
X0070365Y0053800D01*
X0067885Y0052280D01*
X0079200Y0064300D02*
X0080700Y0062800D01*
X0079200Y0064300D02*
X0079200Y0082300D01*
X0073700Y0082300D02*
X0073700Y0086564D01*
X0087700Y0086300D02*
X0092200Y0081800D01*
X0113600Y0056500D02*
X0149700Y0056500D01*
X0173700Y0058300D02*
X0184200Y0068800D01*
X0183700Y0122300D01*
X0177200Y0128800D01*
X0114700Y0128800D01*
X0110200Y0124800D01*
X0042400Y0090000D02*
X0036900Y0090000D01*
X0019900Y0073000D01*
X0019900Y0067500D01*
X0015500Y0063100D01*
X0038600Y0081800D02*
X0038700Y0085800D01*
X0033400Y0094300D02*
X0036900Y0098300D01*
X0038600Y0098300D01*
X0107700Y0050800D02*
X0107900Y0050800D01*
X0113600Y0056500D01*
D23*
X0052054Y0060233D02*
X0051955Y0060332D01*
X0045954Y0060332D01*
D24*
X0110200Y0124800D03*
X0173700Y0058300D03*
M02*
