G75*
%MOIN*%
%OFA0B0*%
%FSLAX25Y25*%
%IPPOS*%
%LPD*%
%AMOC8*
5,1,8,0,0,1.08239X$1,22.5*
%
%ADD10C,0.00000*%
%ADD11R,0.05918X0.06706*%
%ADD12R,0.06706X0.02769*%
%ADD13R,0.02769X0.06706*%
%ADD14R,0.07099X0.05918*%
%ADD15OC8,0.04762*%
%ADD16C,0.04762*%
%ADD17C,0.00660*%
%ADD18R,0.05800X0.07800*%
%ADD19R,0.05918X0.07887*%
%ADD20OC8,0.05550*%
%ADD21C,0.05800*%
%ADD22C,0.05600*%
%ADD23R,0.06706X0.05918*%
%ADD24R,0.07887X0.05918*%
%ADD25R,0.09068X0.06312*%
%ADD26C,0.01778*%
%ADD27C,0.03156*%
%ADD28C,0.02762*%
%ADD29C,0.04737*%
%ADD30R,0.05918X0.07099*%
%ADD31R,0.03359X0.05721*%
D10*
X0001200Y0026800D02*
X0001200Y0168532D01*
X0229546Y0168532D01*
X0229546Y0026800D01*
X0001200Y0026800D01*
X0204349Y0060147D02*
X0204351Y0060235D01*
X0204357Y0060323D01*
X0204367Y0060411D01*
X0204381Y0060499D01*
X0204398Y0060585D01*
X0204420Y0060671D01*
X0204445Y0060755D01*
X0204475Y0060839D01*
X0204507Y0060921D01*
X0204544Y0061001D01*
X0204584Y0061080D01*
X0204628Y0061157D01*
X0204675Y0061232D01*
X0204725Y0061304D01*
X0204779Y0061375D01*
X0204835Y0061442D01*
X0204895Y0061508D01*
X0204957Y0061570D01*
X0205023Y0061630D01*
X0205090Y0061686D01*
X0205161Y0061740D01*
X0205233Y0061790D01*
X0205308Y0061837D01*
X0205385Y0061881D01*
X0205464Y0061921D01*
X0205544Y0061958D01*
X0205626Y0061990D01*
X0205710Y0062020D01*
X0205794Y0062045D01*
X0205880Y0062067D01*
X0205966Y0062084D01*
X0206054Y0062098D01*
X0206142Y0062108D01*
X0206230Y0062114D01*
X0206318Y0062116D01*
X0206406Y0062114D01*
X0206494Y0062108D01*
X0206582Y0062098D01*
X0206670Y0062084D01*
X0206756Y0062067D01*
X0206842Y0062045D01*
X0206926Y0062020D01*
X0207010Y0061990D01*
X0207092Y0061958D01*
X0207172Y0061921D01*
X0207251Y0061881D01*
X0207328Y0061837D01*
X0207403Y0061790D01*
X0207475Y0061740D01*
X0207546Y0061686D01*
X0207613Y0061630D01*
X0207679Y0061570D01*
X0207741Y0061508D01*
X0207801Y0061442D01*
X0207857Y0061375D01*
X0207911Y0061304D01*
X0207961Y0061232D01*
X0208008Y0061157D01*
X0208052Y0061080D01*
X0208092Y0061001D01*
X0208129Y0060921D01*
X0208161Y0060839D01*
X0208191Y0060755D01*
X0208216Y0060671D01*
X0208238Y0060585D01*
X0208255Y0060499D01*
X0208269Y0060411D01*
X0208279Y0060323D01*
X0208285Y0060235D01*
X0208287Y0060147D01*
X0208285Y0060059D01*
X0208279Y0059971D01*
X0208269Y0059883D01*
X0208255Y0059795D01*
X0208238Y0059709D01*
X0208216Y0059623D01*
X0208191Y0059539D01*
X0208161Y0059455D01*
X0208129Y0059373D01*
X0208092Y0059293D01*
X0208052Y0059214D01*
X0208008Y0059137D01*
X0207961Y0059062D01*
X0207911Y0058990D01*
X0207857Y0058919D01*
X0207801Y0058852D01*
X0207741Y0058786D01*
X0207679Y0058724D01*
X0207613Y0058664D01*
X0207546Y0058608D01*
X0207475Y0058554D01*
X0207403Y0058504D01*
X0207328Y0058457D01*
X0207251Y0058413D01*
X0207172Y0058373D01*
X0207092Y0058336D01*
X0207010Y0058304D01*
X0206926Y0058274D01*
X0206842Y0058249D01*
X0206756Y0058227D01*
X0206670Y0058210D01*
X0206582Y0058196D01*
X0206494Y0058186D01*
X0206406Y0058180D01*
X0206318Y0058178D01*
X0206230Y0058180D01*
X0206142Y0058186D01*
X0206054Y0058196D01*
X0205966Y0058210D01*
X0205880Y0058227D01*
X0205794Y0058249D01*
X0205710Y0058274D01*
X0205626Y0058304D01*
X0205544Y0058336D01*
X0205464Y0058373D01*
X0205385Y0058413D01*
X0205308Y0058457D01*
X0205233Y0058504D01*
X0205161Y0058554D01*
X0205090Y0058608D01*
X0205023Y0058664D01*
X0204957Y0058724D01*
X0204895Y0058786D01*
X0204835Y0058852D01*
X0204779Y0058919D01*
X0204725Y0058990D01*
X0204675Y0059062D01*
X0204628Y0059137D01*
X0204584Y0059214D01*
X0204544Y0059293D01*
X0204507Y0059373D01*
X0204475Y0059455D01*
X0204445Y0059539D01*
X0204420Y0059623D01*
X0204398Y0059709D01*
X0204381Y0059795D01*
X0204367Y0059883D01*
X0204357Y0059971D01*
X0204351Y0060059D01*
X0204349Y0060147D01*
X0204349Y0091564D02*
X0204351Y0091652D01*
X0204357Y0091740D01*
X0204367Y0091828D01*
X0204381Y0091916D01*
X0204398Y0092002D01*
X0204420Y0092088D01*
X0204445Y0092172D01*
X0204475Y0092256D01*
X0204507Y0092338D01*
X0204544Y0092418D01*
X0204584Y0092497D01*
X0204628Y0092574D01*
X0204675Y0092649D01*
X0204725Y0092721D01*
X0204779Y0092792D01*
X0204835Y0092859D01*
X0204895Y0092925D01*
X0204957Y0092987D01*
X0205023Y0093047D01*
X0205090Y0093103D01*
X0205161Y0093157D01*
X0205233Y0093207D01*
X0205308Y0093254D01*
X0205385Y0093298D01*
X0205464Y0093338D01*
X0205544Y0093375D01*
X0205626Y0093407D01*
X0205710Y0093437D01*
X0205794Y0093462D01*
X0205880Y0093484D01*
X0205966Y0093501D01*
X0206054Y0093515D01*
X0206142Y0093525D01*
X0206230Y0093531D01*
X0206318Y0093533D01*
X0206406Y0093531D01*
X0206494Y0093525D01*
X0206582Y0093515D01*
X0206670Y0093501D01*
X0206756Y0093484D01*
X0206842Y0093462D01*
X0206926Y0093437D01*
X0207010Y0093407D01*
X0207092Y0093375D01*
X0207172Y0093338D01*
X0207251Y0093298D01*
X0207328Y0093254D01*
X0207403Y0093207D01*
X0207475Y0093157D01*
X0207546Y0093103D01*
X0207613Y0093047D01*
X0207679Y0092987D01*
X0207741Y0092925D01*
X0207801Y0092859D01*
X0207857Y0092792D01*
X0207911Y0092721D01*
X0207961Y0092649D01*
X0208008Y0092574D01*
X0208052Y0092497D01*
X0208092Y0092418D01*
X0208129Y0092338D01*
X0208161Y0092256D01*
X0208191Y0092172D01*
X0208216Y0092088D01*
X0208238Y0092002D01*
X0208255Y0091916D01*
X0208269Y0091828D01*
X0208279Y0091740D01*
X0208285Y0091652D01*
X0208287Y0091564D01*
X0208285Y0091476D01*
X0208279Y0091388D01*
X0208269Y0091300D01*
X0208255Y0091212D01*
X0208238Y0091126D01*
X0208216Y0091040D01*
X0208191Y0090956D01*
X0208161Y0090872D01*
X0208129Y0090790D01*
X0208092Y0090710D01*
X0208052Y0090631D01*
X0208008Y0090554D01*
X0207961Y0090479D01*
X0207911Y0090407D01*
X0207857Y0090336D01*
X0207801Y0090269D01*
X0207741Y0090203D01*
X0207679Y0090141D01*
X0207613Y0090081D01*
X0207546Y0090025D01*
X0207475Y0089971D01*
X0207403Y0089921D01*
X0207328Y0089874D01*
X0207251Y0089830D01*
X0207172Y0089790D01*
X0207092Y0089753D01*
X0207010Y0089721D01*
X0206926Y0089691D01*
X0206842Y0089666D01*
X0206756Y0089644D01*
X0206670Y0089627D01*
X0206582Y0089613D01*
X0206494Y0089603D01*
X0206406Y0089597D01*
X0206318Y0089595D01*
X0206230Y0089597D01*
X0206142Y0089603D01*
X0206054Y0089613D01*
X0205966Y0089627D01*
X0205880Y0089644D01*
X0205794Y0089666D01*
X0205710Y0089691D01*
X0205626Y0089721D01*
X0205544Y0089753D01*
X0205464Y0089790D01*
X0205385Y0089830D01*
X0205308Y0089874D01*
X0205233Y0089921D01*
X0205161Y0089971D01*
X0205090Y0090025D01*
X0205023Y0090081D01*
X0204957Y0090141D01*
X0204895Y0090203D01*
X0204835Y0090269D01*
X0204779Y0090336D01*
X0204725Y0090407D01*
X0204675Y0090479D01*
X0204628Y0090554D01*
X0204584Y0090631D01*
X0204544Y0090710D01*
X0204507Y0090790D01*
X0204475Y0090872D01*
X0204445Y0090956D01*
X0204420Y0091040D01*
X0204398Y0091126D01*
X0204381Y0091212D01*
X0204367Y0091300D01*
X0204357Y0091388D01*
X0204351Y0091476D01*
X0204349Y0091564D01*
D11*
X0123078Y0062430D03*
X0115598Y0062430D03*
X0115609Y0052670D03*
X0123090Y0052670D03*
X0094602Y0053481D03*
X0087121Y0053481D03*
D12*
X0098424Y0081989D03*
X0098424Y0085139D03*
X0098424Y0088288D03*
X0098424Y0091438D03*
X0098424Y0094587D03*
X0098424Y0097737D03*
X0098424Y0100887D03*
X0098424Y0104036D03*
X0098424Y0107186D03*
X0098424Y0110336D03*
X0098424Y0113485D03*
X0052755Y0113485D03*
X0052755Y0110336D03*
X0052755Y0107186D03*
X0052755Y0104036D03*
X0052755Y0100887D03*
X0052755Y0097737D03*
X0052755Y0094587D03*
X0052755Y0091438D03*
X0052755Y0088288D03*
X0052755Y0085139D03*
X0052755Y0081989D03*
D13*
X0059842Y0074902D03*
X0062991Y0074902D03*
X0066141Y0074902D03*
X0069291Y0074902D03*
X0072440Y0074902D03*
X0075590Y0074902D03*
X0078739Y0074902D03*
X0081889Y0074902D03*
X0085039Y0074902D03*
X0088188Y0074902D03*
X0091338Y0074902D03*
X0091338Y0120572D03*
X0088188Y0120572D03*
X0085039Y0120572D03*
X0081889Y0120572D03*
X0078739Y0120572D03*
X0075590Y0120572D03*
X0072440Y0120572D03*
X0069291Y0120572D03*
X0066141Y0120572D03*
X0062991Y0120572D03*
X0059842Y0120572D03*
D14*
X0041200Y0103737D03*
X0041200Y0095863D03*
X0111259Y0097485D03*
X0111259Y0089611D03*
X0141125Y0092674D03*
X0141125Y0100548D03*
X0140980Y0107918D03*
X0140980Y0115792D03*
D15*
X0149948Y0066493D03*
D16*
X0149948Y0061493D03*
X0149948Y0056493D03*
X0149948Y0051493D03*
X0149948Y0046493D03*
X0149948Y0041493D03*
D17*
X0050629Y0059557D02*
X0046889Y0059557D01*
X0050629Y0059557D02*
X0050629Y0053917D01*
X0046889Y0053917D01*
X0046889Y0059557D01*
X0046889Y0054576D02*
X0050629Y0054576D01*
X0050629Y0055235D02*
X0046889Y0055235D01*
X0046889Y0055894D02*
X0050629Y0055894D01*
X0050629Y0056553D02*
X0046889Y0056553D01*
X0046889Y0057212D02*
X0050629Y0057212D01*
X0050629Y0057871D02*
X0046889Y0057871D01*
X0046889Y0058530D02*
X0050629Y0058530D01*
X0050629Y0059189D02*
X0046889Y0059189D01*
X0035794Y0059557D02*
X0032054Y0059557D01*
X0035794Y0059557D02*
X0035794Y0053917D01*
X0032054Y0053917D01*
X0032054Y0059557D01*
X0032054Y0054576D02*
X0035794Y0054576D01*
X0035794Y0055235D02*
X0032054Y0055235D01*
X0032054Y0055894D02*
X0035794Y0055894D01*
X0035794Y0056553D02*
X0032054Y0056553D01*
X0032054Y0057212D02*
X0035794Y0057212D01*
X0035794Y0057871D02*
X0032054Y0057871D01*
X0032054Y0058530D02*
X0035794Y0058530D01*
X0035794Y0059189D02*
X0032054Y0059189D01*
D18*
X0086973Y0042410D03*
X0099420Y0042410D03*
X0115418Y0042190D03*
X0127865Y0042190D03*
D19*
X0070908Y0040052D03*
X0058634Y0040052D03*
X0058323Y0052300D03*
X0070597Y0052300D03*
D20*
X0014850Y0071935D03*
D21*
X0024850Y0067560D03*
X0014850Y0062560D03*
X0024850Y0057560D03*
X0014850Y0052560D03*
X0024850Y0047560D03*
D22*
X0125767Y0096300D03*
X0125767Y0115300D03*
D23*
X0141511Y0082469D03*
X0141511Y0074989D03*
D24*
X0151995Y0075073D03*
X0151995Y0087347D03*
D25*
X0158680Y0136052D03*
X0158680Y0153769D03*
X0119310Y0153769D03*
X0107499Y0153769D03*
X0107499Y0136052D03*
X0119310Y0136052D03*
X0068129Y0136052D03*
X0056318Y0136052D03*
X0056318Y0153769D03*
X0068129Y0153769D03*
X0016948Y0153769D03*
X0016948Y0136052D03*
D26*
X0159957Y0088988D02*
X0165277Y0088988D01*
X0165277Y0087210D01*
X0159957Y0087210D01*
X0159957Y0088988D01*
X0159957Y0088987D02*
X0165277Y0088987D01*
X0165277Y0084658D02*
X0159957Y0084658D01*
X0165277Y0084658D02*
X0165277Y0082880D01*
X0159957Y0082880D01*
X0159957Y0084658D01*
X0159957Y0084657D02*
X0165277Y0084657D01*
X0165277Y0078549D02*
X0159957Y0078549D01*
X0159957Y0080327D01*
X0165277Y0080327D01*
X0165277Y0078549D01*
X0165277Y0080326D02*
X0159957Y0080326D01*
X0159957Y0075996D02*
X0165277Y0075996D01*
X0165277Y0074218D01*
X0159957Y0074218D01*
X0159957Y0075996D01*
X0159957Y0075995D02*
X0165277Y0075995D01*
X0165277Y0071665D02*
X0159957Y0071665D01*
X0165277Y0071665D02*
X0165277Y0069887D01*
X0159957Y0069887D01*
X0159957Y0071665D01*
X0159957Y0071664D02*
X0165277Y0071664D01*
X0165277Y0067335D02*
X0159957Y0067335D01*
X0165277Y0067335D02*
X0165277Y0065557D01*
X0159957Y0065557D01*
X0159957Y0067335D01*
X0159957Y0067334D02*
X0165277Y0067334D01*
X0165277Y0063004D02*
X0159957Y0063004D01*
X0165277Y0063004D02*
X0165277Y0061226D01*
X0159957Y0061226D01*
X0159957Y0063004D01*
X0159957Y0063003D02*
X0165277Y0063003D01*
X0165277Y0056895D02*
X0159957Y0056895D01*
X0159957Y0058673D01*
X0165277Y0058673D01*
X0165277Y0056895D01*
X0165277Y0058672D02*
X0159957Y0058672D01*
X0159859Y0054343D02*
X0165179Y0054343D01*
X0165179Y0052565D01*
X0159859Y0052565D01*
X0159859Y0054343D01*
X0159859Y0054342D02*
X0165179Y0054342D01*
D27*
X0165376Y0106463D02*
X0165376Y0110405D01*
X0165376Y0106463D02*
X0162220Y0106463D01*
X0162220Y0110405D01*
X0165376Y0110405D01*
X0165376Y0109618D02*
X0162220Y0109618D01*
D28*
X0207699Y0110996D02*
X0207699Y0108234D01*
X0201001Y0108234D01*
X0201001Y0110996D01*
X0207699Y0110996D01*
X0207699Y0110995D02*
X0201001Y0110995D01*
X0207699Y0049087D02*
X0207699Y0046325D01*
X0201001Y0046325D01*
X0201001Y0049087D01*
X0207699Y0049087D01*
X0207699Y0049086D02*
X0201001Y0049086D01*
X0167936Y0049480D02*
X0167936Y0046718D01*
X0164386Y0046718D01*
X0164386Y0049480D01*
X0167936Y0049480D01*
X0167936Y0049479D02*
X0164386Y0049479D01*
D29*
X0206318Y0060147D03*
X0206318Y0091564D03*
D30*
X0077637Y0064300D03*
X0069763Y0064300D03*
D31*
X0042200Y0045934D03*
X0038460Y0037666D03*
X0045940Y0037666D03*
M02*
